JetBrainsMoro-LightItalic.ufo
<glyph name="exclam" format="2">
  <advance width="600.0"/>
  <unicode hex="0021"/>
  <outline>
    <contour>
      <point x="262.0" y="212.33333333333334" type="line"/>
      <point x="316.93333333333334" y="212.33333333333334" type="line"/>
      <point x="398.26666666666665" y="599.3333333333334" type="line"/>
      <point x="419.1333333333333" y="730.0" type="line"/>
      <point x="324.8666666666667" y="730.0" type="line"/>
      <point x="304.0" y="599.3333333333334" type="line"/>
    </contour>
    <contour>
      <point x="244.26666666666668" y="-5.0" type="curve" smooth="yes"/>
      <point x="267.6" y="-5.0" type="line" smooth="yes"/>
      <point x="302.06666666666666" y="-5.0"/>
      <point x="330.26666666666665" y="19.933333333333334"/>
      <point x="336.0" y="54.4" type="curve" smooth="yes"/>
      <point x="341.0" y="88.13333333333334"/>
      <point x="323.0" y="112.33333333333333"/>
      <point x="286.3333333333333" y="112.33333333333333" type="curve" smooth="yes"/>
      <point x="263.0" y="112.33333333333333" type="line" smooth="yes"/>
      <point x="228.53333333333333" y="112.33333333333333"/>
      <point x="200.33333333333334" y="88.13333333333334"/>
      <point x="195.33333333333334" y="53.666666666666664" type="curve" smooth="yes"/>
      <point x="189.6" y="19.2"/>
      <point x="209.8" y="-5.0"/>
    </contour>
  </outline>
</glyph>
<glyph name="quotedbl" format="2">
  <advance width="600.0"/>
  <unicode hex="0022"/>
  <outline>
    <contour>
      <point x="392.2" y="430.0" type="line"/>
      <point x="459.0" y="430.0" type="line"/>
      <point x="502.46666666666664" y="640.0" type="line"/>
      <point x="517.4666666666667" y="730.0" type="line"/>
      <point x="428.73333333333335" y="730.0" type="line"/>
      <point x="413.73333333333335" y="640.0" type="line"/>
    </contour>
    <contour>
      <point x="190.0" y="430.0" type="line"/>
      <point x="256.8" y="430.0" type="line"/>
      <point x="300.26666666666665" y="640.0" type="line"/>
      <point x="315.26666666666665" y="730.0" type="line"/>
      <point x="226.53333333333333" y="730.0" type="line"/>
      <point x="211.53333333333333" y="640.0" type="line"/>
    </contour>
  </outline>
</glyph>
<glyph name="numbersign" format="2">
  <advance width="600.0"/>
  <unicode hex="0023"/>
  <outline>
    <contour>
      <point x="39.86666666666667" y="0.0" type="line"/>
      <point x="107.0" y="0.0" type="line"/>
      <point x="177.06666666666666" y="202.66666666666666" type="line"/>
      <point x="339.46666666666664" y="202.66666666666666" type="line"/>
      <point x="269.4" y="0.0" type="line"/>
      <point x="336.53333333333336" y="0.0" type="line"/>
      <point x="406.6" y="202.66666666666666" type="line"/>
      <point x="518.2666666666667" y="202.66666666666666" type="line"/>
      <point x="527.4666666666667" y="262.06666666666666" type="line"/>
      <point x="427.0" y="262.06666666666666" type="line"/>
      <point x="497.4" y="467.93333333333334" type="line"/>
      <point x="595.2666666666667" y="467.93333333333334" type="line"/>
      <point x="604.4666666666667" y="527.3333333333334" type="line"/>
      <point x="517.8" y="527.3333333333334" type="line"/>
      <point x="588.9333333333333" y="730.0" type="line"/>
      <point x="521.0" y="730.0" type="line"/>
      <point x="450.6666666666667" y="527.3333333333334" type="line"/>
      <point x="288.26666666666665" y="527.3333333333334" type="line"/>
      <point x="358.6" y="730.0" type="line"/>
      <point x="291.46666666666664" y="730.0" type="line"/>
      <point x="221.13333333333333" y="527.3333333333334" type="line"/>
      <point x="109.46666666666667" y="527.3333333333334" type="line"/>
      <point x="100.26666666666667" y="467.93333333333334" type="line"/>
      <point x="200.73333333333332" y="467.93333333333334" type="line"/>
      <point x="130.33333333333334" y="262.06666666666666" type="line"/>
      <point x="32.46666666666667" y="262.06666666666666" type="line"/>
      <point x="23.266666666666666" y="202.66666666666666" type="line"/>
      <point x="109.93333333333334" y="202.66666666666666" type="line"/>
    </contour>
    <contour>
      <point x="197.46666666666667" y="262.06666666666666" type="line"/>
      <point x="267.8666666666667" y="467.93333333333334" type="line"/>
      <point x="430.26666666666665" y="467.93333333333334" type="line"/>
      <point x="359.8666666666667" y="262.06666666666666" type="line"/>
    </contour>
  </outline>
</glyph>
<glyph name="dollar" format="2">
  <advance width="600.0"/>
  <unicode hex="0024"/>
  <outline>
    <contour>
      <point x="211.66666666666666" y="-140.0" type="line"/>
      <point x="266.3333333333333" y="-140.0" type="line"/>
      <point x="287.3333333333333" y="-9.0" type="line"/>
      <point x="405.06666666666666" y="1.6666666666666667"/>
      <point x="493.0" y="77.06666666666666"/>
      <point x="510.0" y="186.53333333333333" type="curve" smooth="yes"/>
      <point x="526.0" y="285.26666666666665"/>
      <point x="480.6666666666667" y="362.8"/>
      <point x="387.8666666666667" y="393.8" type="curve" smooth="yes"/>
      <point x="352.53333333333336" y="405.73333333333335" type="line"/>
      <point x="393.93333333333334" y="667.6" type="line"/>
      <point x="458.26666666666665" y="658.1333333333333"/>
      <point x="489.0" y="613.1333333333333"/>
      <point x="478.2" y="545.8" type="curve"/>
      <point x="557.5333333333333" y="545.8" type="line"/>
      <point x="574.0666666666667" y="655.6"/>
      <point x="514.6" y="729.0666666666667"/>
      <point x="405.3333333333333" y="739.0" type="curve"/>
      <point x="426.3333333333333" y="870.0" type="line"/>
      <point x="371.6666666666667" y="870.0" type="line"/>
      <point x="350.6666666666667" y="738.2666666666667" type="line"/>
      <point x="237.2" y="728.3333333333334"/>
      <point x="155.0" y="655.9333333333333"/>
      <point x="138.26666666666668" y="549.4666666666667" type="curve" smooth="yes"/>
      <point x="123.0" y="452.26666666666665"/>
      <point x="167.53333333333333" y="378.06666666666666"/>
      <point x="261.46666666666664" y="347.6" type="curve" smooth="yes"/>
      <point x="287.46666666666664" y="339.6" type="line"/>
      <point x="243.33333333333334" y="62.4" type="line"/>
      <point x="167.73333333333332" y="70.86666666666667"/>
      <point x="129.73333333333335" y="117.6"/>
      <point x="140.53333333333333" y="188.66666666666666" type="curve"/>
      <point x="61.2" y="188.66666666666666" type="line"/>
      <point x="44.666666666666664" y="74.2"/>
      <point x="108.46666666666667" y="0.19999999999999996"/>
      <point x="232.66666666666666" y="-9.0" type="curve"/>
    </contour>
    <contour>
      <point x="298.0" y="62.4" type="curve"/>
      <point x="339.4" y="322.46666666666664" type="line"/>
      <point x="352.0" y="318.2" type="line" smooth="yes"/>
      <point x="411.53333333333336" y="298.8666666666667"/>
      <point x="440.46666666666664" y="248.13333333333333"/>
      <point x="430.6666666666667" y="185.06666666666666" type="curve" smooth="yes"/>
      <point x="419.8666666666667" y="116.0"/>
      <point x="370.8666666666667" y="71.33333333333333"/>
    </contour>
    <contour>
      <point x="296.2" y="393.53333333333336" type="line"/>
      <point x="318.8666666666667" y="419.06666666666666" type="line"/>
      <point x="243.8" y="433.73333333333335"/>
      <point x="208.06666666666666" y="485.8666666666667"/>
      <point x="219.06666666666666" y="556.4" type="curve" smooth="yes"/>
      <point x="228.86666666666667" y="618.2"/>
      <point x="273.6666666666667" y="659.1333333333333"/>
      <point x="339.26666666666665" y="667.6" type="curve"/>
    </contour>
  </outline>
</glyph>
<glyph name="percent" format="2">
  <advance width="600.0"/>
  <unicode hex="0025"/>
  <outline>
    <contour>
      <point x="-28.4" y="0.0" type="line"/>
      <point x="40.4" y="0.0" type="line"/>
      <point x="656.4" y="730.0" type="line"/>
      <point x="587.6" y="730.0" type="line"/>
    </contour>
    <contour>
      <point x="398.6666666666667" y="-5.0" type="curve" smooth="yes"/>
      <point x="481.06666666666666" y="-5.0"/>
      <point x="542.9333333333333" y="45.733333333333334"/>
      <point x="555.9333333333333" y="128.66666666666666" type="curve" smooth="yes"/>
      <point x="566.4666666666667" y="196.33333333333334" type="line" smooth="yes"/>
      <point x="579.4666666666667" y="279.26666666666665"/>
      <point x="534.0666666666667" y="330.0"/>
      <point x="451.6666666666667" y="330.0" type="curve" smooth="yes"/>
      <point x="369.26666666666665" y="330.0"/>
      <point x="308.4" y="279.26666666666665"/>
      <point x="295.4" y="196.33333333333334" type="curve" smooth="yes"/>
      <point x="284.8666666666667" y="128.66666666666666" type="line" smooth="yes"/>
      <point x="271.8666666666667" y="45.733333333333334"/>
      <point x="316.26666666666665" y="-5.0"/>
    </contour>
    <contour>
      <point x="408.6" y="56.8" type="curve" smooth="yes"/>
      <point x="362.2" y="56.8"/>
      <point x="343.3333333333333" y="80.46666666666667"/>
      <point x="350.8666666666667" y="128.66666666666666" type="curve" smooth="yes"/>
      <point x="361.4" y="196.33333333333334" type="line" smooth="yes"/>
      <point x="368.93333333333334" y="244.53333333333333"/>
      <point x="395.6" y="268.93333333333334"/>
      <point x="442.0" y="268.93333333333334" type="curve" smooth="yes"/>
      <point x="488.4" y="268.93333333333334"/>
      <point x="508.0" y="244.53333333333333"/>
      <point x="500.46666666666664" y="196.33333333333334" type="curve" smooth="yes"/>
      <point x="489.93333333333334" y="128.66666666666666" type="line" smooth="yes"/>
      <point x="482.4" y="80.46666666666667"/>
      <point x="455.0" y="56.8"/>
    </contour>
    <contour>
      <point x="175.33333333333334" y="400.0" type="curve" smooth="yes"/>
      <point x="257.73333333333335" y="400.0"/>
      <point x="319.6" y="450.73333333333335"/>
      <point x="332.6" y="533.6666666666666" type="curve" smooth="yes"/>
      <point x="343.1333333333333" y="601.3333333333334" type="line" smooth="yes"/>
      <point x="356.1333333333333" y="684.2666666666667"/>
      <point x="310.73333333333335" y="735.0"/>
      <point x="228.33333333333334" y="735.0" type="curve" smooth="yes"/>
      <point x="146.2" y="735.0"/>
      <point x="85.06666666666666" y="684.2666666666667"/>
      <point x="72.06666666666666" y="601.3333333333334" type="curve" smooth="yes"/>
      <point x="61.53333333333333" y="533.6666666666666" type="line" smooth="yes"/>
      <point x="48.53333333333333" y="450.73333333333335"/>
      <point x="93.2" y="400.0"/>
    </contour>
    <contour>
      <point x="185.26666666666668" y="461.06666666666666" type="curve" smooth="yes"/>
      <point x="139.86666666666667" y="461.06666666666666"/>
      <point x="120.0" y="485.46666666666664"/>
      <point x="127.53333333333333" y="533.6666666666666" type="curve" smooth="yes"/>
      <point x="138.06666666666666" y="601.3333333333334" type="line" smooth="yes"/>
      <point x="145.6" y="649.5333333333333"/>
      <point x="174.0" y="673.9333333333333"/>
      <point x="219.4" y="673.9333333333333" type="curve" smooth="yes"/>
      <point x="265.06666666666666" y="673.9333333333333"/>
      <point x="284.6666666666667" y="649.5333333333333"/>
      <point x="277.1333333333333" y="601.3333333333334" type="curve" smooth="yes"/>
      <point x="266.6" y="533.6666666666666" type="line" smooth="yes"/>
      <point x="259.06666666666666" y="485.46666666666664"/>
      <point x="230.93333333333334" y="461.06666666666666"/>
    </contour>
  </outline>
</glyph>
<glyph name="ampersand" format="2">
  <advance width="600.0"/>
  <unicode hex="0026"/>
  <outline>
    <contour>
      <point x="181.33333333333334" y="-10.0" type="curve" smooth="yes"/>
      <point x="250.33333333333334" y="-10.0"/>
      <point x="319.2" y="26.4"/>
      <point x="378.8" y="95.26666666666667" type="curve"/>
      <point x="433.93333333333334" y="0.0" type="line"/>
      <point x="520.6666666666666" y="0.0" type="line"/>
      <point x="427.8666666666667" y="161.0" type="line"/>
      <point x="571.0" y="360.0" type="line"/>
      <point x="488.73333333333335" y="360.0" type="line"/>
      <point x="392.4" y="224.46666666666667" type="line"/>
      <point x="255.53333333333333" y="462.8" type="line" smooth="yes"/>
      <point x="233.6" y="501.3333333333333"/>
      <point x="222.73333333333332" y="544.1333333333333"/>
      <point x="229.0" y="579.2666666666667" type="curve" smooth="yes"/>
      <point x="237.53333333333333" y="632.9333333333333"/>
      <point x="281.8" y="670.8"/>
      <point x="340.0" y="670.8" type="curve" smooth="yes"/>
      <point x="403.4" y="670.8"/>
      <point x="437.8" y="629.6666666666666"/>
      <point x="428.26666666666665" y="569.2666666666667" type="curve"/>
      <point x="507.6" y="569.2666666666667" type="line"/>
      <point x="524.3333333333334" y="672.1333333333333"/>
      <point x="463.2" y="740.0"/>
      <point x="350.6666666666667" y="740.0" type="curve" smooth="yes"/>
      <point x="245.06666666666666" y="740.0"/>
      <point x="164.4" y="675.1333333333333"/>
      <point x="149.66666666666666" y="580.7333333333333" type="curve" smooth="yes"/>
      <point x="141.66666666666666" y="532.4666666666667"/>
      <point x="152.93333333333334" y="484.6"/>
      <point x="187.6" y="425.6666666666667" type="curve" smooth="yes"/>
      <point x="193.86666666666667" y="423.1333333333333" type="line"/>
      <point x="119.4" y="406.06666666666666"/>
      <point x="69.2" y="352.6666666666667"/>
      <point x="57.13333333333333" y="276.26666666666665" type="curve" smooth="yes"/>
      <point x="38.666666666666664" y="155.0" type="line" smooth="yes"/>
      <point x="21.666666666666668" y="52.0"/>
      <point x="75.8" y="-10.0"/>
    </contour>
    <contour>
      <point x="198.0" y="60.666666666666664" type="curve" smooth="yes"/>
      <point x="138.86666666666667" y="60.666666666666664"/>
      <point x="108.2" y="96.46666666666667"/>
      <point x="118.0" y="155.0" type="curve" smooth="yes"/>
      <point x="136.46666666666667" y="276.26666666666665" type="line" smooth="yes"/>
      <point x="144.53333333333333" y="327.2"/>
      <point x="175.86666666666667" y="359.26666666666665"/>
      <point x="222.66666666666666" y="365.46666666666664" type="curve"/>
      <point x="343.8" y="155.8" type="line"/>
      <point x="300.73333333333335" y="95.33333333333333"/>
      <point x="247.26666666666668" y="60.666666666666664"/>
    </contour>
  </outline>
</glyph>
<glyph name="quotesingle" format="2">
  <advance width="600.0"/>
  <unicode hex="0027"/>
  <outline>
    <contour>
      <point x="287.06666666666666" y="430.0" type="line"/>
      <point x="353.8666666666667" y="430.0" type="line"/>
      <point x="387.53333333333336" y="574.6666666666666" type="line"/>
      <point x="412.3333333333333" y="730.0" type="line"/>
      <point x="323.6" y="730.0" type="line"/>
      <point x="298.8" y="574.6666666666666" type="line"/>
    </contour>
  </outline>
</glyph>
<glyph name="parenleft" format="2">
  <advance width="600.0"/>
  <unicode hex="0028"/>
  <outline>
    <contour>
      <point x="421.26666666666665" y="-123.66666666666667" type="curve"/>
      <point x="433.4" y="-46.666666666666664" type="line"/>
      <point x="305.93333333333334" y="-15.066666666666666"/>
      <point x="242.93333333333334" y="103.06666666666666"/>
      <point x="268.73333333333335" y="263.6666666666667" type="curve" smooth="yes"/>
      <point x="299.26666666666665" y="456.3333333333333" type="line" smooth="yes"/>
      <point x="325.06666666666666" y="618.4"/>
      <point x="426.06666666666666" y="736.9333333333333"/>
      <point x="562.6" y="768.5333333333333" type="curve"/>
      <point x="574.7333333333333" y="843.6666666666666" type="line"/>
      <point x="385.4" y="798.4666666666667"/>
      <point x="251.2" y="652.1333333333333"/>
      <point x="219.93333333333334" y="456.3333333333333" type="curve" smooth="yes"/>
      <point x="189.4" y="263.6666666666667" type="line" smooth="yes"/>
      <point x="157.4" y="64.93333333333334"/>
      <point x="243.73333333333332" y="-77.46666666666667"/>
    </contour>
  </outline>
</glyph>
<glyph name="parenright" format="2">
  <advance width="600.0"/>
  <unicode hex="0029"/>
  <outline>
    <contour>
      <point x="51.53333333333333" y="-123.66666666666667" type="line"/>
      <point x="244.53333333333333" y="-77.46666666666667"/>
      <point x="374.3333333333333" y="64.93333333333334"/>
      <point x="406.3333333333333" y="263.6666666666667" type="curve" smooth="yes"/>
      <point x="436.8666666666667" y="456.3333333333333" type="line" smooth="yes"/>
      <point x="468.1333333333333" y="652.1333333333333"/>
      <point x="380.3333333333333" y="798.4666666666667"/>
      <point x="205.0" y="843.6666666666666" type="curve"/>
      <point x="192.86666666666667" y="769.6" type="line"/>
      <point x="320.3333333333333" y="738.0"/>
      <point x="383.3333333333333" y="618.4"/>
      <point x="357.53333333333336" y="456.3333333333333" type="curve" smooth="yes"/>
      <point x="327.0" y="263.6666666666667" type="line" smooth="yes"/>
      <point x="301.2" y="103.06666666666666"/>
      <point x="201.66666666666666" y="-14.0"/>
      <point x="63.666666666666664" y="-45.6" type="curve"/>
    </contour>
  </outline>
</glyph>
<glyph name="asterisk" format="2">
  <advance width="600.0"/>
  <unicode hex="002A"/>
  <outline>
    <contour>
      <point x="149.26666666666668" y="96.66666666666667" type="line"/>
      <point x="221.4" y="181.33333333333334" type="line" smooth="yes"/>
      <point x="256.1333333333333" y="222.6"/>
      <point x="282.26666666666665" y="270.1333333333333"/>
      <point x="300.46666666666664" y="302.6666666666667" type="curve"/>
      <point x="308.53333333333336" y="302.6666666666667" type="line"/>
      <point x="315.06666666666666" y="269.8666666666667"/>
      <point x="325.4" y="221.86666666666667"/>
      <point x="347.53333333333336" y="181.33333333333334" type="curve" smooth="yes"/>
      <point x="394.0" y="96.4" type="line"/>
      <point x="465.73333333333335" y="141.33333333333334" type="line"/>
      <point x="419.26666666666665" y="226.26666666666668" type="line" smooth="yes"/>
      <point x="397.1333333333333" y="266.26666666666665"/>
      <point x="364.4" y="299.8666666666667"/>
      <point x="341.3333333333333" y="322.26666666666665" type="curve"/>
      <point x="346.8666666666667" y="331.8666666666667" type="line"/>
      <point x="381.8666666666667" y="335.1333333333333"/>
      <point x="431.8666666666667" y="340.0"/>
      <point x="478.6" y="356.3333333333333" type="curve" smooth="yes"/>
      <point x="581.6666666666666" y="391.53333333333336" type="line"/>
      <point x="566.2666666666667" y="466.26666666666665" type="line"/>
      <point x="462.93333333333334" y="431.3333333333333" type="line" smooth="yes"/>
      <point x="416.0" y="415.53333333333336"/>
      <point x="369.26666666666665" y="386.53333333333336"/>
      <point x="337.73333333333335" y="366.2" type="curve"/>
      <point x="332.6666666666667" y="371.0" type="line"/>
      <point x="347.53333333333336" y="404.53333333333336"/>
      <point x="368.8" y="456.2"/>
      <point x="376.6" y="505.6666666666667" type="curve" smooth="yes"/>
      <point x="393.2" y="610.0" type="line"/>
      <point x="314.26666666666665" y="610.0" type="line"/>
      <point x="297.6666666666667" y="505.6666666666667" type="line" smooth="yes"/>
      <point x="289.8666666666667" y="456.2"/>
      <point x="295.1333333333333" y="404.53333333333336"/>
      <point x="298.06666666666666" y="371.0" type="curve"/>
      <point x="291.0" y="366.46666666666664" type="line"/>
      <point x="266.4" y="386.8"/>
      <point x="228.06666666666666" y="415.53333333333336"/>
      <point x="185.13333333333333" y="431.6" type="curve" smooth="yes"/>
      <point x="94.13333333333334" y="466.53333333333336" type="line"/>
      <point x="55.4" y="392.3333333333333" type="line"/>
      <point x="146.4" y="357.1333333333333" type="line" smooth="yes"/>
      <point x="188.6" y="340.8"/>
      <point x="237.86666666666667" y="335.4"/>
      <point x="271.1333333333333" y="332.4" type="curve"/>
      <point x="273.1333333333333" y="323.26666666666665" type="line"/>
      <point x="243.33333333333334" y="300.8666666666667"/>
      <point x="199.26666666666665" y="267.53333333333336"/>
      <point x="163.8" y="226.53333333333333" type="curve" smooth="yes"/>
      <point x="91.4" y="141.86666666666667" type="line"/>
    </contour>
  </outline>
</glyph>
<glyph name="plus" format="2">
  <advance width="600.0"/>
  <unicode hex="002B"/>
  <outline>
    <contour>
      <point x="232.33333333333334" y="96.33333333333333" type="line"/>
      <point x="310.2" y="96.33333333333333" type="line"/>
      <point x="341.73333333333335" y="295.3333333333333" type="line"/>
      <point x="535.1333333333333" y="295.3333333333333" type="line"/>
      <point x="546.5333333333333" y="366.0" type="line"/>
      <point x="353.1333333333333" y="366.0" type="line"/>
      <point x="383.93333333333334" y="565.0" type="line"/>
      <point x="306.06666666666666" y="565.0" type="line"/>
      <point x="275.26666666666665" y="366.0" type="line"/>
      <point x="81.86666666666666" y="366.0" type="line"/>
      <point x="70.46666666666667" y="295.3333333333333" type="line"/>
      <point x="263.8666666666667" y="295.3333333333333" type="line"/>
    </contour>
  </outline>
</glyph>
<glyph name="comma" format="2">
  <advance width="600.0"/>
  <unicode hex="002C"/>
  <outline>
    <contour>
      <point x="101.2" y="-160.0" type="line"/>
      <point x="174.26666666666668" y="-160.0" type="line"/>
      <point x="351.93333333333334" y="151.0" type="line"/>
      <point x="228.86666666666667" y="151.0" type="line"/>
    </contour>
  </outline>
</glyph>
<glyph name="hyphen" format="2">
  <advance width="600.0"/>
  <unicode hex="002D"/>
  <outline>
    <contour>
      <point x="142.8" y="294.8" type="line"/>
      <point x="462.8" y="294.8" type="line"/>
      <point x="474.2" y="365.46666666666664" type="line"/>
      <point x="154.2" y="365.46666666666664" type="line"/>
    </contour>
  </outline>
</glyph>
<glyph name="period" format="2">
  <advance width="600.0"/>
  <unicode hex="002E"/>
  <outline>
    <contour>
      <point x="254.0" y="-10.0" type="curve" smooth="yes"/>
      <point x="303.4" y="-10.0"/>
      <point x="339.3333333333333" y="20.466666666666665"/>
      <point x="347.06666666666666" y="69.4" type="curve" smooth="yes"/>
      <point x="354.8" y="119.53333333333333"/>
      <point x="329.6" y="151.2"/>
      <point x="280.2" y="151.2" type="curve" smooth="yes"/>
      <point x="230.8" y="151.2"/>
      <point x="194.13333333333333" y="119.53333333333333"/>
      <point x="186.4" y="69.4" type="curve" smooth="yes"/>
      <point x="178.66666666666666" y="20.466666666666665"/>
      <point x="204.6" y="-10.0"/>
    </contour>
  </outline>
</glyph>
<glyph name="slash" format="2">
  <advance width="600.0"/>
  <unicode hex="002F"/>
  <outline>
    <contour>
      <point x="19.333333333333332" y="-110.0" type="line"/>
      <point x="105.4" y="-110.0" type="line"/>
      <point x="606.6666666666666" y="830.0" type="line"/>
      <point x="520.6" y="830.0" type="line"/>
    </contour>
  </outline>
</glyph>
<glyph name="zero" format="2">
  <advance width="600.0"/>
  <unicode hex="0030"/>
  <outline>
    <contour>
      <point x="254.26666666666668" y="-10.0" type="curve" smooth="yes"/>
      <point x="386.6666666666667" y="-10.0"/>
      <point x="483.53333333333336" y="73.93333333333334"/>
      <point x="504.53333333333336" y="205.0" type="curve" smooth="yes"/>
      <point x="555.5333333333333" y="525.0" type="line" smooth="yes"/>
      <point x="576.5333333333333" y="656.8"/>
      <point x="506.4" y="740.0"/>
      <point x="373.26666666666665" y="740.0" type="curve" smooth="yes"/>
      <point x="239.86666666666667" y="740.0"/>
      <point x="143.46666666666667" y="656.5333333333333"/>
      <point x="122.46666666666667" y="525.0" type="curve" smooth="yes"/>
      <point x="71.46666666666667" y="205.0" type="line" smooth="yes"/>
      <point x="50.46666666666667" y="73.46666666666667"/>
      <point x="120.86666666666666" y="-10.0"/>
    </contour>
    <contour>
      <point x="265.93333333333334" y="59.8" type="curve" smooth="yes"/>
      <point x="181.93333333333334" y="59.8"/>
      <point x="136.13333333333333" y="118.4"/>
      <point x="149.93333333333334" y="205.0" type="curve" smooth="yes"/>
      <point x="200.93333333333334" y="525.0" type="line" smooth="yes"/>
      <point x="214.73333333333332" y="611.6"/>
      <point x="278.3333333333333" y="670.2"/>
      <point x="362.3333333333333" y="670.2" type="curve" smooth="yes"/>
      <point x="446.06666666666666" y="670.2"/>
      <point x="490.8666666666667" y="611.6"/>
      <point x="477.06666666666666" y="525.0" type="curve" smooth="yes"/>
      <point x="426.06666666666666" y="205.0" type="line" smooth="yes"/>
      <point x="412.26666666666665" y="118.13333333333334"/>
      <point x="349.6666666666667" y="59.8"/>
    </contour>
    <contour>
      <point x="314.8" y="309.2" type="curve" smooth="yes"/>
      <point x="349.2" y="309.2"/>
      <point x="372.1333333333333" y="332.8666666666667"/>
      <point x="372.1333333333333" y="368.0" type="curve" smooth="yes"/>
      <point x="372.1333333333333" y="402.4"/>
      <point x="349.2" y="425.3333333333333"/>
      <point x="314.8" y="425.3333333333333" type="curve" smooth="yes"/>
      <point x="280.4" y="425.3333333333333"/>
      <point x="257.46666666666664" y="402.4"/>
      <point x="257.46666666666664" y="368.0" type="curve" smooth="yes"/>
      <point x="257.46666666666664" y="332.8666666666667"/>
      <point x="280.4" y="309.2"/>
    </contour>
  </outline>
</glyph>
<glyph name="one" format="2">
  <advance width="600.0"/>
  <unicode hex="0031"/>
  <outline>
    <contour>
      <point x="48.666666666666664" y="0.0" type="line"/>
      <point x="493.3333333333333" y="0.0" type="line"/>
      <point x="504.73333333333335" y="72.13333333333333" type="line"/>
      <point x="339.8" y="72.13333333333333" type="line"/>
      <point x="444.4" y="730.0" type="line"/>
      <point x="336.6" y="730.0" type="line"/>
      <point x="146.26666666666668" y="603.8" type="line"/>
      <point x="132.13333333333333" y="515.5333333333333" type="line"/>
      <point x="354.1333333333333" y="663.0" type="line"/>
      <point x="260.46666666666664" y="72.13333333333333" type="line"/>
      <point x="60.06666666666667" y="72.13333333333333" type="line"/>
    </contour>
  </outline>
</glyph>
<glyph name="two" format="2">
  <advance width="600.0"/>
  <unicode hex="0032"/>
  <outline>
    <contour>
      <point x="49.06666666666667" y="0.0" type="line"/>
      <point x="483.06666666666666" y="0.0" type="line"/>
      <point x="494.46666666666664" y="72.13333333333333" type="line"/>
      <point x="153.46666666666667" y="72.13333333333333" type="line"/>
      <point x="383.73333333333335" y="280.0" type="line" smooth="yes"/>
      <point x="492.4" y="378.3333333333333"/>
      <point x="541.4" y="455.6"/>
      <point x="553.2" y="530.9333333333333" type="curve" smooth="yes"/>
      <point x="573.2" y="659.0666666666667"/>
      <point x="501.46666666666664" y="740.0"/>
      <point x="367.8" y="740.0" type="curve" smooth="yes"/>
      <point x="236.6" y="740.0"/>
      <point x="138.4" y="657.8"/>
      <point x="114.73333333333333" y="527.6666666666666" type="curve"/>
      <point x="194.06666666666666" y="527.6666666666666" type="line"/>
      <point x="207.6" y="614.9333333333333"/>
      <point x="271.06666666666666" y="669.6"/>
      <point x="357.1333333333333" y="669.6" type="curve" smooth="yes"/>
      <point x="442.46666666666664" y="669.6"/>
      <point x="486.6666666666667" y="615.6666666666666"/>
      <point x="473.8666666666667" y="530.8666666666667" type="curve" smooth="yes"/>
      <point x="463.8" y="468.73333333333335"/>
      <point x="421.06666666666666" y="408.4"/>
      <point x="333.6666666666667" y="328.6" type="curve" smooth="yes"/>
      <point x="61.46666666666667" y="78.6" type="line"/>
    </contour>
  </outline>
</glyph>
<glyph name="three" format="2">
  <advance width="600.0"/>
  <unicode hex="0033"/>
  <outline>
    <contour>
      <point x="243.53333333333333" y="-10.0" type="curve" smooth="yes"/>
      <point x="376.53333333333336" y="-10.0"/>
      <point x="472.6666666666667" y="70.2"/>
      <point x="492.4" y="197.33333333333334" type="curve" smooth="yes"/>
      <point x="501.2" y="252.93333333333334" type="line" smooth="yes"/>
      <point x="520.9333333333333" y="378.8"/>
      <point x="450.53333333333336" y="458.93333333333334"/>
      <point x="319.6666666666667" y="458.93333333333334" type="curve"/>
      <point x="316.46666666666664" y="436.46666666666664" type="line"/>
      <point x="544.7333333333333" y="655.6" type="line"/>
      <point x="557.1333333333333" y="730.0" type="line"/>
      <point x="176.26666666666668" y="730.0" type="line"/>
      <point x="164.6" y="657.8666666666667" type="line"/>
      <point x="456.26666666666665" y="657.8666666666667" type="line"/>
      <point x="247.46666666666667" y="456.93333333333334" type="line"/>
      <point x="236.06666666666666" y="388.26666666666665" type="line"/>
      <point x="307.6" y="388.26666666666665" type="line" smooth="yes"/>
      <point x="393.06666666666666" y="388.26666666666665"/>
      <point x="435.4" y="338.4"/>
      <point x="421.8666666666667" y="252.93333333333334" type="curve" smooth="yes"/>
      <point x="413.06666666666666" y="197.33333333333334" type="line" smooth="yes"/>
      <point x="399.53333333333336" y="114.53333333333333"/>
      <point x="340.8666666666667" y="60.666666666666664"/>
      <point x="255.93333333333334" y="60.666666666666664" type="curve" smooth="yes"/>
      <point x="171.73333333333332" y="60.666666666666664"/>
      <point x="128.86666666666667" y="112.06666666666666"/>
      <point x="142.4" y="197.33333333333334" type="curve"/>
      <point x="63.06666666666666" y="197.33333333333334" type="line"/>
      <point x="43.333333333333336" y="72.4"/>
      <point x="114.2" y="-10.0"/>
    </contour>
  </outline>
</glyph>
<glyph name="four" format="2">
  <advance width="600.0"/>
  <unicode hex="0034"/>
  <outline>
    <contour>
      <point x="361.3333333333333" y="0.0" type="line"/>
      <point x="440.6666666666667" y="0.0" type="line"/>
      <point x="507.6666666666667" y="420.0" type="line"/>
      <point x="428.3333333333333" y="420.0" type="line"/>
      <point x="398.26666666666665" y="234.8" type="line"/>
      <point x="146.26666666666668" y="234.8" type="line"/>
      <point x="152.53333333333333" y="273.3333333333333" type="line"/>
      <point x="504.8666666666667" y="729.7333333333333" type="line"/>
      <point x="417.3333333333333" y="729.7333333333333" type="line"/>
      <point x="76.66666666666667" y="292.73333333333335" type="line"/>
      <point x="55.53333333333333" y="162.66666666666666" type="line"/>
      <point x="386.8666666666667" y="162.66666666666666" type="line"/>
    </contour>
  </outline>
</glyph>
<glyph name="five" format="2">
  <advance width="600.0"/>
  <unicode hex="0035"/>
  <outline>
    <contour>
      <point x="252.53333333333333" y="-10.0" type="curve" smooth="yes"/>
      <point x="385.8" y="-10.0"/>
      <point x="479.0" y="71.53333333333333"/>
      <point x="499.0" y="201.06666666666666" type="curve" smooth="yes"/>
      <point x="510.0" y="270.73333333333335" type="line" smooth="yes"/>
      <point x="530.2666666666667" y="403.26666666666665"/>
      <point x="474.6" y="480.73333333333335"/>
      <point x="357.1333333333333" y="480.0" type="curve" smooth="yes"/>
      <point x="269.93333333333334" y="480.0"/>
      <point x="207.0" y="437.26666666666665"/>
      <point x="196.2" y="370.46666666666664" type="curve"/>
      <point x="227.66666666666666" y="398.3333333333333" type="line"/>
      <point x="201.53333333333333" y="398.3333333333333" type="line"/>
      <point x="245.93333333333334" y="657.8666666666667" type="line"/>
      <point x="546.9333333333333" y="657.8666666666667" type="line"/>
      <point x="558.6" y="730.0" type="line"/>
      <point x="181.0" y="730.0" type="line"/>
      <point x="112.0" y="326.0" type="line"/>
      <point x="191.33333333333334" y="326.0" type="line"/>
      <point x="216.4" y="377.4"/>
      <point x="264.53333333333336" y="410.06666666666666"/>
      <point x="321.3333333333333" y="410.06666666666666" type="curve" smooth="yes"/>
      <point x="407.8" y="410.06666666666666"/>
      <point x="444.46666666666664" y="359.3333333333333"/>
      <point x="430.6666666666667" y="270.73333333333335" type="curve" smooth="yes"/>
      <point x="419.6666666666667" y="201.06666666666666" type="line" smooth="yes"/>
      <point x="405.6" y="111.66666666666667"/>
      <point x="351.8666666666667" y="60.666666666666664"/>
      <point x="264.93333333333334" y="60.666666666666664" type="curve" smooth="yes"/>
      <point x="186.4" y="60.666666666666664"/>
      <point x="146.0" y="97.93333333333334"/>
      <point x="149.6" y="161.6" type="curve"/>
      <point x="70.26666666666667" y="161.6" type="line"/>
      <point x="65.66666666666667" y="56.266666666666666"/>
      <point x="134.06666666666666" y="-10.0"/>
    </contour>
  </outline>
</glyph>
<glyph name="six" format="2">
  <advance width="600.0"/>
  <unicode hex="0036"/>
  <outline>
    <contour>
      <point x="255.46666666666667" y="-10.0" type="curve" smooth="yes"/>
      <point x="394.06666666666666" y="-9.733333333333333"/>
      <point x="501.46666666666664" y="83.93333333333334"/>
      <point x="524.2" y="223.8" type="curve" smooth="yes"/>
      <point x="545.2" y="356.8"/>
      <point x="478.2" y="445.8"/>
      <point x="358.2" y="445.8" type="curve" smooth="yes"/>
      <point x="298.53333333333336" y="445.8"/>
      <point x="246.66666666666666" y="421.2"/>
      <point x="218.26666666666668" y="388.4" type="curve"/>
      <point x="215.26666666666668" y="391.4" type="line"/>
      <point x="468.4" y="730.0" type="line"/>
      <point x="380.8666666666667" y="730.0" type="line"/>
      <point x="154.13333333333333" y="421.4" type="line" smooth="yes"/>
      <point x="103.26666666666667" y="351.6"/>
      <point x="69.46666666666667" y="285.6666666666667"/>
      <point x="59.46666666666667" y="222.2" type="curve" smooth="yes"/>
      <point x="37.733333333333334" y="83.46666666666667"/>
      <point x="116.13333333333334" y="-10.0"/>
    </contour>
    <contour>
      <point x="266.1333333333333" y="60.666666666666664" type="curve" smooth="yes"/>
      <point x="174.33333333333334" y="60.666666666666664"/>
      <point x="122.2" y="124.53333333333333"/>
      <point x="138.8" y="222.33333333333334" type="curve" smooth="yes"/>
      <point x="154.33333333333334" y="318.53333333333336"/>
      <point x="226.53333333333333" y="384.0"/>
      <point x="317.26666666666665" y="384.0" type="curve" smooth="yes"/>
      <point x="408.26666666666665" y="384.0"/>
      <point x="459.4" y="318.53333333333336"/>
      <point x="444.1333333333333" y="222.33333333333334" type="curve" smooth="yes"/>
      <point x="428.3333333333333" y="124.53333333333333"/>
      <point x="357.1333333333333" y="60.666666666666664"/>
    </contour>
  </outline>
</glyph>
<glyph name="seven" format="2">
  <advance width="600.0"/>
  <unicode hex="0037"/>
  <outline>
    <contour>
      <point x="153.66666666666666" y="0.0" type="line"/>
      <point x="243.46666666666667" y="0.0" type="line"/>
      <point x="601.6666666666666" y="653.7333333333333" type="line"/>
      <point x="614.3333333333334" y="730.0" type="line"/>
      <point x="154.66666666666666" y="730.0" type="line"/>
      <point x="122.66666666666667" y="530.0" type="line"/>
      <point x="203.33333333333334" y="530.0" type="line"/>
      <point x="223.66666666666666" y="656.2666666666667" type="line"/>
      <point x="518.8666666666667" y="656.2666666666667" type="line"/>
    </contour>
  </outline>
</glyph>
<glyph name="eight" format="2">
  <advance width="600.0"/>
  <unicode hex="0038"/>
  <outline>
    <contour>
      <point x="254.26666666666668" y="-10.0" type="curve" smooth="yes"/>
      <point x="392.06666666666666" y="-10.0"/>
      <point x="495.6666666666667" y="66.86666666666666"/>
      <point x="513.6666666666666" y="181.13333333333333" type="curve" smooth="yes"/>
      <point x="527.6666666666666" y="269.06666666666666"/>
      <point x="478.1333333333333" y="344.1333333333333"/>
      <point x="381.46666666666664" y="386.46666666666664" type="curve" smooth="yes"/>
      <point x="292.1333333333333" y="424.8666666666667" type="line" smooth="yes"/>
      <point x="232.93333333333334" y="450.8666666666667"/>
      <point x="200.0" y="497.3333333333333"/>
      <point x="209.26666666666668" y="554.2" type="curve" smooth="yes"/>
      <point x="220.06666666666666" y="622.7333333333333"/>
      <point x="282.2" y="670.0666666666667"/>
      <point x="361.8666666666667" y="670.0666666666667" type="curve" smooth="yes"/>
      <point x="442.3333333333333" y="670.0666666666667"/>
      <point x="491.53333333333336" y="622.6666666666666"/>
      <point x="481.0" y="554.2" type="curve" smooth="yes"/>
      <point x="471.73333333333335" y="499.6"/>
      <point x="423.3333333333333" y="452.1333333333333"/>
      <point x="351.46666666666664" y="423.8666666666667" type="curve" smooth="yes"/>
      <point x="249.8" y="385.0" type="line" smooth="yes"/>
      <point x="141.26666666666668" y="343.46666666666664"/>
      <point x="69.8" y="268.3333333333333"/>
      <point x="55.8" y="181.13333333333333" type="curve" smooth="yes"/>
      <point x="37.8" y="66.86666666666666"/>
      <point x="116.46666666666667" y="-10.0"/>
    </contour>
    <contour>
      <point x="265.6666666666667" y="60.666666666666664" type="curve" smooth="yes"/>
      <point x="175.0" y="60.666666666666664"/>
      <point x="122.86666666666667" y="111.73333333333333"/>
      <point x="134.4" y="189.4" type="curve" smooth="yes"/>
      <point x="143.93333333333334" y="249.86666666666667"/>
      <point x="191.86666666666667" y="302.2"/>
      <point x="265.46666666666664" y="331.2" type="curve" smooth="yes"/>
      <point x="365.4" y="369.8" type="line" smooth="yes"/>
      <point x="480.6666666666667" y="413.6"/>
      <point x="547.1333333333333" y="481.73333333333335"/>
      <point x="558.8666666666667" y="557.2" type="curve" smooth="yes"/>
      <point x="576.3333333333334" y="663.2666666666667"/>
      <point x="495.8" y="740.7333333333333"/>
      <point x="373.26666666666665" y="740.7333333333333" type="curve" smooth="yes"/>
      <point x="251.26666666666668" y="740.7333333333333"/>
      <point x="148.86666666666667" y="663.8"/>
      <point x="131.4" y="557.2" type="curve" smooth="yes"/>
      <point x="119.4" y="480.46666666666664"/>
      <point x="162.86666666666667" y="413.6"/>
      <point x="261.53333333333336" y="370.8" type="curve" smooth="yes"/>
      <point x="349.4" y="331.93333333333334" type="line" smooth="yes"/>
      <point x="414.6666666666667" y="302.6666666666667"/>
      <point x="446.8" y="250.8"/>
      <point x="436.53333333333336" y="189.13333333333333" type="curve" smooth="yes"/>
      <point x="425.0" y="111.46666666666667"/>
      <point x="356.3333333333333" y="60.666666666666664"/>
    </contour>
  </outline>
</glyph>
<glyph name="nine" format="2">
  <advance width="600.0"/>
  <unicode hex="0039"/>
  <outline>
    <contour>
      <point x="158.26666666666668" y="0.0" type="line"/>
      <point x="249.46666666666667" y="0.0" type="line"/>
      <point x="474.6" y="308.6" type="line" smooth="yes"/>
      <point x="525.7333333333333" y="378.6666666666667"/>
      <point x="557.4" y="444.3333333333333"/>
      <point x="567.4" y="507.8" type="curve" smooth="yes"/>
      <point x="589.4" y="646.5333333333333"/>
      <point x="511.53333333333336" y="740.0"/>
      <point x="373.0" y="740.0" type="curve" smooth="yes"/>
      <point x="235.46666666666667" y="740.0"/>
      <point x="128.6" y="645.5333333333333"/>
      <point x="106.6" y="504.8666666666667" type="curve" smooth="yes"/>
      <point x="85.6" y="373.2"/>
      <point x="154.2" y="284.46666666666664"/>
      <point x="271.0" y="284.46666666666664" type="curve" smooth="yes"/>
      <point x="330.6666666666667" y="284.46666666666664"/>
      <point x="379.6" y="308.8"/>
      <point x="408.0" y="341.6" type="curve"/>
      <point x="411.0" y="338.6" type="line"/>
    </contour>
    <contour>
      <point x="311.2" y="345.73333333333335" type="curve" smooth="yes"/>
      <point x="221.0" y="345.73333333333335"/>
      <point x="170.4" y="410.1333333333333"/>
      <point x="185.93333333333334" y="506.3333333333333" type="curve" smooth="yes"/>
      <point x="201.73333333333332" y="604.4"/>
      <point x="272.8666666666667" y="669.3333333333334"/>
      <point x="363.06666666666666" y="669.3333333333334" type="curve" smooth="yes"/>
      <point x="454.06666666666666" y="669.3333333333334"/>
      <point x="504.6666666666667" y="604.4"/>
      <point x="488.3333333333333" y="506.6" type="curve" smooth="yes"/>
      <point x="472.26666666666665" y="409.8666666666667"/>
      <point x="401.1333333333333" y="345.73333333333335"/>
    </contour>
  </outline>
</glyph>
<glyph name="colon" format="2">
  <advance width="600.0"/>
  <unicode hex="003A"/>
  <outline>
    <contour>
      <point x="321.26666666666665" y="411.6" type="curve" smooth="yes"/>
      <point x="369.6666666666667" y="411.6"/>
      <point x="406.3333333333333" y="441.3333333333333"/>
      <point x="413.3333333333333" y="485.8" type="curve" smooth="yes"/>
      <point x="420.3333333333333" y="530.2666666666667"/>
      <point x="393.4" y="560.0"/>
      <point x="345.0" y="560.0" type="curve" smooth="yes"/>
      <point x="296.6" y="560.0"/>
      <point x="259.6666666666667" y="530.2666666666667"/>
      <point x="252.66666666666666" y="485.8" type="curve" smooth="yes"/>
      <point x="245.66666666666666" y="441.3333333333333"/>
      <point x="272.8666666666667" y="411.6"/>
    </contour>
    <contour>
      <point x="254.0" y="-10.0" type="curve" smooth="yes"/>
      <point x="302.4" y="-10.0"/>
      <point x="339.3333333333333" y="19.733333333333334"/>
      <point x="346.3333333333333" y="64.2" type="curve" smooth="yes"/>
      <point x="353.3333333333333" y="108.66666666666667"/>
      <point x="326.1333333333333" y="138.4"/>
      <point x="277.73333333333335" y="138.4" type="curve" smooth="yes"/>
      <point x="229.33333333333334" y="138.4"/>
      <point x="192.66666666666666" y="108.66666666666667"/>
      <point x="185.66666666666666" y="64.2" type="curve" smooth="yes"/>
      <point x="178.66666666666666" y="19.733333333333334"/>
      <point x="205.6" y="-10.0"/>
    </contour>
  </outline>
</glyph>
<glyph name="semicolon" format="2">
  <advance width="600.0"/>
  <unicode hex="003B"/>
  <outline>
    <contour>
      <point x="106.33333333333333" y="-160.0" type="line"/>
      <point x="176.46666666666667" y="-160.0" type="line"/>
      <point x="354.1333333333333" y="151.0" type="line"/>
      <point x="234.0" y="151.0" type="line"/>
    </contour>
    <contour>
      <point x="312.8666666666667" y="412.6666666666667" type="curve" smooth="yes"/>
      <point x="330.2" y="412.6666666666667" type="line" smooth="yes"/>
      <point x="373.6666666666667" y="412.6666666666667"/>
      <point x="408.6" y="442.8666666666667"/>
      <point x="415.6" y="486.3333333333333" type="curve" smooth="yes"/>
      <point x="422.3333333333333" y="529.0666666666667"/>
      <point x="396.4" y="560.0"/>
      <point x="353.6666666666667" y="560.0" type="curve" smooth="yes"/>
      <point x="336.3333333333333" y="560.0" type="line" smooth="yes"/>
      <point x="293.3333333333333" y="560.0"/>
      <point x="257.4" y="529.0666666666667"/>
      <point x="250.66666666666666" y="486.3333333333333" type="curve" smooth="yes"/>
      <point x="243.66666666666666" y="442.8666666666667"/>
      <point x="269.1333333333333" y="412.6666666666667"/>
    </contour>
  </outline>
</glyph>
<glyph name="less" format="2">
  <advance width="600.0"/>
  <unicode hex="003C"/>
  <outline>
    <contour>
      <point x="480.46666666666664" y="69.0" type="line"/>
      <point x="493.6" y="144.2" type="line"/>
      <point x="212.93333333333334" y="298.0" type="line" smooth="yes"/>
      <point x="190.6" y="310.8"/>
      <point x="164.46666666666667" y="322.2"/>
      <point x="151.6" y="326.8" type="curve"/>
      <point x="165.26666666666668" y="331.4"/>
      <point x="193.73333333333332" y="342.8"/>
      <point x="221.53333333333333" y="355.6" type="curve" smooth="yes"/>
      <point x="550.4666666666667" y="508.1333333333333" type="line"/>
      <point x="563.1333333333333" y="591.0" type="line"/>
      <point x="101.26666666666667" y="372.8" type="line"/>
      <point x="87.66666666666667" y="287.2" type="line"/>
    </contour>
  </outline>
</glyph>
<glyph name="equal" format="2">
  <advance width="600.0"/>
  <unicode hex="003D"/>
  <outline>
    <contour>
      <point x="109.2" y="412.93333333333334" type="line"/>
      <point x="533.8666666666667" y="412.93333333333334" type="line"/>
      <point x="545.2666666666667" y="483.6" type="line"/>
      <point x="120.6" y="483.6" type="line"/>
    </contour>
    <contour>
      <point x="71.73333333333333" y="176.66666666666666" type="line"/>
      <point x="496.4" y="176.66666666666666" type="line"/>
      <point x="507.8" y="247.33333333333334" type="line"/>
      <point x="83.13333333333334" y="247.33333333333334" type="line"/>
    </contour>
  </outline>
</glyph>
<glyph name="greater" format="2">
  <advance width="600.0"/>
  <unicode hex="003E"/>
  <outline>
    <contour>
      <point x="53.13333333333333" y="69.0" type="line"/>
      <point x="515.0" y="287.2" type="line"/>
      <point x="528.6" y="372.8" type="line"/>
      <point x="135.8" y="591.0" type="line"/>
      <point x="123.13333333333334" y="514.3333333333334" type="line"/>
      <point x="404.06666666666666" y="360.53333333333336" type="line" smooth="yes"/>
      <point x="426.1333333333333" y="347.73333333333335"/>
      <point x="451.8" y="336.3333333333333"/>
      <point x="465.1333333333333" y="331.73333333333335" type="curve"/>
      <point x="451.0" y="327.1333333333333"/>
      <point x="422.53333333333336" y="315.73333333333335"/>
      <point x="394.46666666666664" y="302.93333333333334" type="curve" smooth="yes"/>
      <point x="65.53333333333333" y="150.4" type="line"/>
    </contour>
  </outline>
</glyph>
<glyph name="question" format="2">
  <advance width="600.0"/>
  <unicode hex="003F"/>
  <outline>
    <contour>
      <point x="207.0" y="205.0" type="line"/>
      <point x="286.3333333333333" y="205.0" type="line"/>
      <point x="304.1333333333333" y="315.3333333333333" type="line"/>
      <point x="421.1333333333333" y="319.73333333333335"/>
      <point x="512.2" y="402.1333333333333"/>
      <point x="531.2" y="519.0" type="curve" smooth="yes"/>
      <point x="550.9333333333333" y="647.3333333333334"/>
      <point x="476.53333333333336" y="730.0"/>
      <point x="340.0" y="730.0" type="curve" smooth="yes"/>
      <point x="216.33333333333334" y="730.0" type="line"/>
      <point x="203.93333333333334" y="655.6666666666666" type="line"/>
      <point x="327.6" y="655.6666666666666" type="line" smooth="yes"/>
      <point x="416.53333333333336" y="655.6666666666666"/>
      <point x="464.6666666666667" y="602.0"/>
      <point x="451.8666666666667" y="519.0" type="curve" smooth="yes"/>
      <point x="438.3333333333333" y="436.0"/>
      <point x="373.6666666666667" y="382.3333333333333"/>
      <point x="285.46666666666664" y="382.3333333333333" type="curve" smooth="yes"/>
      <point x="235.46666666666667" y="382.3333333333333" type="line"/>
    </contour>
    <contour>
      <point x="200.6" y="-5.0" type="curve" smooth="yes"/>
      <point x="223.93333333333334" y="-5.0" type="line" smooth="yes"/>
      <point x="258.4" y="-5.0"/>
      <point x="286.6" y="19.933333333333334"/>
      <point x="292.3333333333333" y="54.4" type="curve" smooth="yes"/>
      <point x="297.3333333333333" y="88.13333333333334"/>
      <point x="279.3333333333333" y="112.33333333333333"/>
      <point x="242.66666666666666" y="112.33333333333333" type="curve" smooth="yes"/>
      <point x="219.33333333333334" y="112.33333333333333" type="line" smooth="yes"/>
      <point x="184.86666666666667" y="112.33333333333333"/>
      <point x="156.66666666666666" y="88.13333333333334"/>
      <point x="151.66666666666666" y="53.666666666666664" type="curve" smooth="yes"/>
      <point x="145.93333333333334" y="19.2"/>
      <point x="166.13333333333333" y="-5.0"/>
    </contour>
  </outline>
</glyph>
<glyph name="at" format="2">
  <advance width="600.0"/>
  <unicode hex="0040"/>
  <outline>
    <contour>
      <point x="252.26666666666668" y="-179.73333333333332" type="curve" smooth="yes"/>
      <point x="323.6" y="-179.73333333333332" type="line"/>
      <point x="334.26666666666665" y="-112.73333333333333" type="line"/>
      <point x="262.93333333333334" y="-112.73333333333333" type="line" smooth="yes"/>
      <point x="136.8" y="-112.73333333333333"/>
      <point x="73.8" y="-26.733333333333334"/>
      <point x="95.6" y="111.6" type="curve" smooth="yes"/>
      <point x="149.06666666666666" y="448.6666666666667" type="line" smooth="yes"/>
      <point x="172.13333333333333" y="592.7333333333333"/>
      <point x="255.66666666666666" y="676.9333333333333"/>
      <point x="378.06666666666666" y="676.9333333333333" type="curve" smooth="yes"/>
      <point x="486.4" y="676.9333333333333"/>
      <point x="536.5333333333333" y="610.1333333333333"/>
      <point x="517.7333333333333" y="492.3333333333333" type="curve" smooth="yes"/>
      <point x="517.4666666666667" y="487.3333333333333" type="line"/>
      <point x="508.53333333333336" y="410.0" type="line"/>
      <point x="488.8666666666667" y="410.0" type="line"/>
      <point x="502.73333333333335" y="396.6" type="line"/>
      <point x="511.0" y="451.0"/>
      <point x="474.73333333333335" y="485.0"/>
      <point x="408.06666666666666" y="485.0" type="curve" smooth="yes"/>
      <point x="321.3333333333333" y="485.0"/>
      <point x="265.6" y="431.8"/>
      <point x="249.86666666666667" y="332.6666666666667" type="curve" smooth="yes"/>
      <point x="230.33333333333334" y="210.0" type="line" smooth="yes"/>
      <point x="214.33333333333334" y="109.26666666666667"/>
      <point x="253.33333333333334" y="55.0"/>
      <point x="340.06666666666666" y="55.0" type="curve" smooth="yes"/>
      <point x="405.6666666666667" y="55.0"/>
      <point x="454.26666666666665" y="90.06666666666666"/>
      <point x="462.53333333333336" y="142.66666666666666" type="curve"/>
      <point x="442.0" y="130.0" type="line"/>
      <point x="463.8" y="130.0" type="line"/>
      <point x="452.8" y="65.0" type="line"/>
      <point x="522.0" y="65.0" type="line"/>
      <point x="589.7333333333333" y="492.3333333333333" type="line" smooth="yes"/>
      <point x="614.0" y="645.4"/>
      <point x="537.0666666666667" y="740.0"/>
      <point x="388.0" y="740.0" type="curve" smooth="yes"/>
      <point x="222.66666666666666" y="740.0"/>
      <point x="106.06666666666666" y="629.4666666666667"/>
      <point x="77.06666666666666" y="448.6666666666667" type="curve" smooth="yes"/>
      <point x="23.6" y="111.6" type="line" smooth="yes"/>
      <point x="-4.4" y="-66.2"/>
      <point x="83.66666666666667" y="-179.73333333333332"/>
    </contour>
    <contour>
      <point x="372.8666666666667" y="113.2" type="curve" smooth="yes"/>
      <point x="315.6666666666667" y="113.2"/>
      <point x="292.06666666666666" y="144.33333333333334"/>
      <point x="302.3333333333333" y="210.0" type="curve" smooth="yes"/>
      <point x="321.8666666666667" y="332.6666666666667" type="line" smooth="yes"/>
      <point x="331.8666666666667" y="396.46666666666664"/>
      <point x="365.26666666666665" y="426.8"/>
      <point x="422.46666666666664" y="426.8" type="curve" smooth="yes"/>
      <point x="479.8666666666667" y="426.8"/>
      <point x="502.53333333333336" y="396.6666666666667"/>
      <point x="492.53333333333336" y="333.4" type="curve" smooth="yes"/>
      <point x="474.46666666666664" y="217.33333333333334" type="line" smooth="yes"/>
      <point x="463.46666666666664" y="148.06666666666666"/>
      <point x="430.26666666666665" y="113.2"/>
    </contour>
  </outline>
</glyph>
<glyph name="A" format="2">
  <advance width="600.0"/>
  <unicode hex="0041"/>
  <anchor x="256.0" y="0.0" name="bottom"/>
  <anchor x="453.6666666666667" y="0.0" name="ogonek"/>
  <anchor x="372.0" y="730.0" name="top"/>
  <outline>
    <contour>
      <point x="10.8" y="0.0" type="line"/>
      <point x="94.33333333333333" y="0.0" type="line"/>
      <point x="176.0" y="198.26666666666668" type="line"/>
      <point x="404.73333333333335" y="198.26666666666668" type="line"/>
      <point x="423.3333333333333" y="0.0" type="line"/>
      <point x="501.2" y="0.0" type="line"/>
      <point x="425.0" y="730.0" type="line"/>
      <point x="319.73333333333335" y="730.0" type="line"/>
    </contour>
    <contour>
      <point x="203.06666666666666" y="266.0" type="line"/>
      <point x="304.4" y="510.4" type="line" smooth="yes"/>
      <point x="337.6" y="591.2"/>
      <point x="358.3333333333333" y="648.8"/>
      <point x="364.06666666666666" y="666.0" type="curve"/>
      <point x="364.3333333333333" y="648.8"/>
      <point x="366.3333333333333" y="591.2"/>
      <point x="374.3333333333333" y="509.6666666666667" type="curve" smooth="yes"/>
      <point x="398.26666666666665" y="266.0" type="line"/>
    </contour>
  </outline>
</glyph>
<glyph name="B" format="2">
  <advance width="600.0"/>
  <unicode hex="0042"/>
  <anchor x="256.0" y="0.0" name="bottom"/>
  <anchor x="372.0" y="730.0" name="top"/>
  <outline>
    <contour>
      <point x="53.53333333333333" y="0.0" type="line"/>
      <point x="267.26666666666665" y="0.0" type="line" smooth="yes"/>
      <point x="400.0" y="0.0"/>
      <point x="494.26666666666665" y="78.0"/>
      <point x="514.2666666666667" y="202.2" type="curve" smooth="yes"/>
      <point x="532.7333333333333" y="317.3333333333333"/>
      <point x="471.3333333333333" y="391.0"/>
      <point x="357.46666666666664" y="389.53333333333336" type="curve"/>
      <point x="355.73333333333335" y="375.8666666666667" type="line"/>
      <point x="460.06666666666666" y="374.4"/>
      <point x="535.0" y="439.73333333333335"/>
      <point x="551.0" y="541.2666666666667" type="curve" smooth="yes"/>
      <point x="569.0" y="658.2"/>
      <point x="501.26666666666665" y="730.0"/>
      <point x="371.46666666666664" y="730.0" type="curve" smooth="yes"/>
      <point x="169.53333333333333" y="730.0" type="line"/>
    </contour>
    <contour>
      <point x="142.8" y="71.66666666666667" type="line"/>
      <point x="185.93333333333334" y="344.2" type="line"/>
      <point x="314.46666666666664" y="344.2" type="line" smooth="yes"/>
      <point x="403.26666666666665" y="344.2"/>
      <point x="449.2" y="288.1333333333333"/>
      <point x="436.4" y="204.13333333333333" type="curve" smooth="yes"/>
      <point x="422.6" y="122.33333333333333"/>
      <point x="360.1333333333333" y="71.66666666666667"/>
      <point x="271.3333333333333" y="71.66666666666667" type="curve" smooth="yes"/>
    </contour>
    <contour>
      <point x="196.6" y="413.4" type="line"/>
      <point x="235.73333333333332" y="658.3333333333334" type="line"/>
      <point x="359.8" y="658.3333333333334" type="line" smooth="yes"/>
      <point x="441.06666666666666" y="658.3333333333334"/>
      <point x="483.46666666666664" y="611.6666666666666"/>
      <point x="471.6666666666667" y="535.8666666666667" type="curve" smooth="yes"/>
      <point x="459.1333333333333" y="460.06666666666666"/>
      <point x="401.46666666666664" y="413.4"/>
      <point x="319.93333333333334" y="413.4" type="curve" smooth="yes"/>
    </contour>
  </outline>
</glyph>
<glyph name="D" format="2">
  <advance width="600.0"/>
  <unicode hex="0044"/>
  <anchor x="256.0" y="0.0" name="bottom"/>
  <anchor x="314.0" y="365.0" name="center"/>
  <anchor x="372.0" y="730.0" name="top"/>
  <outline>
    <contour>
      <point x="52.8" y="0.0" type="line"/>
      <point x="234.06666666666666" y="0.0" type="line" smooth="yes"/>
      <point x="373.46666666666664" y="0.0"/>
      <point x="477.46666666666664" y="86.53333333333333"/>
      <point x="498.46666666666664" y="220.0" type="curve" smooth="yes"/>
      <point x="544.4666666666667" y="510.73333333333335" type="line" smooth="yes"/>
      <point x="565.4666666666667" y="643.4666666666667"/>
      <point x="489.46666666666664" y="730.0"/>
      <point x="350.06666666666666" y="730.0" type="curve" smooth="yes"/>
      <point x="168.8" y="730.0" type="line"/>
    </contour>
    <contour>
      <point x="143.53333333333333" y="70.93333333333334" type="line"/>
      <point x="236.46666666666667" y="659.0666666666667" type="line"/>
      <point x="338.4" y="659.0666666666667" type="line" smooth="yes"/>
      <point x="430.6666666666667" y="659.0666666666667"/>
      <point x="479.6666666666667" y="602.2666666666667"/>
      <point x="465.1333333333333" y="510.73333333333335" type="curve" smooth="yes"/>
      <point x="419.1333333333333" y="220.0" type="line" smooth="yes"/>
      <point x="404.3333333333333" y="127.46666666666667"/>
      <point x="338.0" y="70.93333333333334"/>
      <point x="245.46666666666667" y="70.93333333333334" type="curve" smooth="yes"/>
    </contour>
  </outline>
</glyph>
<glyph name="E" format="2">
  <advance width="600.0"/>
  <unicode hex="0045"/>
  <anchor x="320.0" y="0.0" name="bottom"/>
  <anchor x="392.6666666666667" y="0.0" name="ogonek"/>
  <anchor x="392.0" y="730.0" name="top"/>
  <anchor x="92.0" y="730.0" name="topleft"/>
  <outline>
    <contour>
      <point x="61.333333333333336" y="0.0" type="line"/>
      <point x="473.3333333333333" y="0.0" type="line"/>
      <point x="484.73333333333335" y="72.4" type="line"/>
      <point x="151.33333333333334" y="72.4" type="line"/>
      <point x="194.73333333333332" y="345.53333333333336" type="line"/>
      <point x="493.1333333333333" y="345.53333333333336" type="line"/>
      <point x="504.53333333333336" y="416.93333333333334" type="line"/>
      <point x="206.13333333333333" y="416.93333333333334" type="line"/>
      <point x="244.26666666666668" y="657.6" type="line"/>
      <point x="577.6666666666666" y="657.6" type="line"/>
      <point x="589.3333333333334" y="730.0" type="line"/>
      <point x="177.33333333333334" y="730.0" type="line"/>
    </contour>
  </outline>
</glyph>
<glyph name="F" format="2">
  <advance width="600.0"/>
  <unicode hex="0046"/>
  <anchor x="256.0" y="0.0" name="bottom"/>
  <anchor x="372.0" y="730.0" name="top"/>
  <outline>
    <contour>
      <point x="56.333333333333336" y="0.0" type="line"/>
      <point x="135.66666666666666" y="0.0" type="line"/>
      <point x="187.73333333333332" y="329.8666666666667" type="line"/>
      <point x="504.6666666666667" y="329.8666666666667" type="line"/>
      <point x="516.0666666666667" y="402.26666666666665" type="line"/>
      <point x="197.66666666666666" y="402.26666666666665" type="line"/>
      <point x="238.53333333333333" y="657.6" type="line"/>
      <point x="585.3333333333334" y="657.6" type="line"/>
      <point x="597.0" y="730.0" type="line"/>
      <point x="172.33333333333334" y="730.0" type="line"/>
    </contour>
  </outline>
</glyph>
<glyph name="G" format="2">
  <advance width="600.0"/>
  <unicode hex="0047"/>
  <anchor x="260.53333333333336" y="0.0" name="bottom"/>
  <anchor x="373.6" y="730.0" name="top"/>
  <outline>
    <contour>
      <point x="258.53333333333336" y="-10.0" type="curve" smooth="yes"/>
      <point x="387.6666666666667" y="-10.0"/>
      <point x="483.6" y="71.26666666666667"/>
      <point x="503.8666666666667" y="200.0" type="curve" smooth="yes"/>
      <point x="530.0666666666667" y="367.73333333333335" type="line"/>
      <point x="296.06666666666666" y="367.73333333333335" type="line"/>
      <point x="284.6666666666667" y="295.3333333333333" type="line"/>
      <point x="439.3333333333333" y="295.3333333333333" type="line"/>
      <point x="424.53333333333336" y="200.0" type="line" smooth="yes"/>
      <point x="410.73333333333335" y="111.93333333333334"/>
      <point x="353.0" y="60.666666666666664"/>
      <point x="270.2" y="60.666666666666664" type="curve" smooth="yes"/>
      <point x="187.2" y="60.666666666666664"/>
      <point x="145.8" y="110.86666666666667"/>
      <point x="159.33333333333334" y="197.33333333333334" type="curve" smooth="yes"/>
      <point x="212.4" y="533.4" type="line" smooth="yes"/>
      <point x="225.93333333333334" y="619.1333333333333"/>
      <point x="283.4" y="668.6"/>
      <point x="366.1333333333333" y="668.6" type="curve" smooth="yes"/>
      <point x="448.6666666666667" y="668.6"/>
      <point x="490.3333333333333" y="618.0666666666667"/>
      <point x="476.53333333333336" y="530.0" type="curve"/>
      <point x="555.8666666666667" y="530.0" type="line"/>
      <point x="575.8666666666667" y="658.7333333333333"/>
      <point x="506.6666666666667" y="740.0"/>
      <point x="377.53333333333336" y="740.0" type="curve" smooth="yes"/>
      <point x="247.46666666666667" y="740.0"/>
      <point x="153.53333333333333" y="661.2666666666667"/>
      <point x="133.06666666666666" y="532.6666666666666" type="curve" smooth="yes"/>
      <point x="80.0" y="197.33333333333334" type="line" smooth="yes"/>
      <point x="59.53333333333333" y="69.0"/>
      <point x="128.46666666666667" y="-10.0"/>
    </contour>
  </outline>
</glyph>
<glyph name="H" format="2">
  <advance width="600.0"/>
  <unicode hex="0048"/>
  <anchor x="256.0" y="0.0" name="bottom"/>
  <anchor x="314.0" y="365.0" name="center"/>
  <anchor x="372.0" y="730.0" name="top"/>
  <anchor x="92.0" y="730.0" name="topleft"/>
  <outline>
    <contour>
      <point x="53.53333333333333" y="0.0" type="line"/>
      <point x="132.86666666666667" y="0.0" type="line"/>
      <point x="186.66666666666666" y="341.3333333333333" type="line"/>
      <point x="432.93333333333334" y="341.3333333333333" type="line"/>
      <point x="379.1333333333333" y="0.0" type="line"/>
      <point x="458.46666666666664" y="0.0" type="line"/>
      <point x="574.4666666666667" y="730.0" type="line"/>
      <point x="495.1333333333333" y="730.0" type="line"/>
      <point x="444.6" y="413.73333333333335" type="line"/>
      <point x="198.33333333333334" y="413.73333333333335" type="line"/>
      <point x="248.86666666666667" y="730.0" type="line"/>
      <point x="169.53333333333333" y="730.0" type="line"/>
    </contour>
  </outline>
</glyph>
<glyph name="I" format="2">
  <advance width="600.0"/>
  <unicode hex="0049"/>
  <anchor x="256.0" y="0.0" name="bottom"/>
  <anchor x="280.0" y="0.0" name="ogonek"/>
  <anchor x="372.0" y="730.0" name="top"/>
  <anchor x="92.0" y="730.0" name="topleft"/>
  <outline>
    <contour>
      <point x="65.0" y="0.0" type="line"/>
      <point x="447.0" y="0.0" type="line"/>
      <point x="458.4" y="72.4" type="line"/>
      <point x="308.06666666666666" y="72.4" type="line"/>
      <point x="401.0" y="657.6" type="line"/>
      <point x="551.3333333333334" y="657.6" type="line"/>
      <point x="563.0" y="730.0" type="line"/>
      <point x="181.0" y="730.0" type="line"/>
      <point x="169.33333333333334" y="657.6" type="line"/>
      <point x="320.2" y="657.6" type="line"/>
      <point x="227.26666666666668" y="72.4" type="line"/>
      <point x="76.4" y="72.4" type="line"/>
    </contour>
  </outline>
</glyph>
<glyph name="J" format="2">
  <advance width="600.0"/>
  <unicode hex="004A"/>
  <anchor x="256.0" y="0.0" name="bottom"/>
  <anchor x="451.2" y="730.0" name="top"/>
  <outline>
    <contour>
      <point x="225.33333333333334" y="-10.0" type="curve" smooth="yes"/>
      <point x="365.6" y="-10.0"/>
      <point x="457.73333333333335" y="68.93333333333334"/>
      <point x="479.73333333333335" y="207.06666666666666" type="curve" smooth="yes"/>
      <point x="563.0" y="730.0" type="line"/>
      <point x="272.8" y="730.0" type="line"/>
      <point x="261.1333333333333" y="657.3333333333334" type="line"/>
      <point x="472.0" y="657.3333333333334" type="line"/>
      <point x="400.4" y="207.06666666666666" type="line" smooth="yes"/>
      <point x="385.8666666666667" y="114.86666666666667"/>
      <point x="324.93333333333334" y="60.666666666666664"/>
      <point x="237.0" y="60.666666666666664" type="curve" smooth="yes"/>
      <point x="149.06666666666666" y="60.666666666666664"/>
      <point x="104.93333333333334" y="114.6"/>
      <point x="119.73333333333333" y="207.33333333333334" type="curve"/>
      <point x="40.4" y="207.33333333333334" type="line"/>
      <point x="19.4" y="72.66666666666667"/>
      <point x="88.53333333333333" y="-10.0"/>
    </contour>
  </outline>
</glyph>
<glyph name="K" format="2">
  <advance width="600.0"/>
  <unicode hex="004B"/>
  <anchor x="256.0" y="0.0" name="bottom"/>
  <anchor x="372.0" y="730.0" name="top"/>
  <outline>
    <contour>
      <point x="52.8" y="0.0" type="line"/>
      <point x="132.13333333333333" y="0.0" type="line"/>
      <point x="186.66666666666666" y="342.8" type="line"/>
      <point x="307.2" y="342.8" type="line"/>
      <point x="422.4" y="0.0" type="line"/>
      <point x="510.6666666666667" y="0.0" type="line"/>
      <point x="382.3333333333333" y="376.26666666666665" type="line"/>
      <point x="616.6666666666666" y="730.0" type="line"/>
      <point x="527.8666666666667" y="730.0" type="line"/>
      <point x="315.8666666666667" y="412.73333333333335" type="line"/>
      <point x="197.6" y="412.73333333333335" type="line"/>
      <point x="248.13333333333333" y="730.0" type="line"/>
      <point x="168.8" y="730.0" type="line"/>
    </contour>
  </outline>
</glyph>
<glyph name="L" format="2">
  <advance width="600.0"/>
  <unicode hex="004C"/>
  <anchor x="296.0" y="0.0" name="bottom"/>
  <anchor x="314.0" y="365.0" name="center"/>
  <anchor x="249.0" y="730.0" name="top"/>
  <anchor x="652.0" y="730.0" name="topright"/>
  <outline>
    <contour>
      <point x="92.33333333333333" y="0.0" type="line"/>
      <point x="508.3333333333333" y="0.0" type="line"/>
      <point x="519.7333333333333" y="72.4" type="line"/>
      <point x="183.06666666666666" y="72.4" type="line"/>
      <point x="287.6666666666667" y="730.0" type="line"/>
      <point x="208.33333333333334" y="730.0" type="line"/>
    </contour>
  </outline>
</glyph>
<glyph name="M" format="2">
  <advance width="600.0"/>
  <unicode hex="004D"/>
  <anchor x="256.0" y="0.0" name="bottom"/>
  <anchor x="372.0" y="730.0" name="top"/>
  <outline>
    <contour>
      <point x="36.266666666666666" y="0.0" type="line"/>
      <point x="113.86666666666667" y="0.0" type="line"/>
      <point x="163.33333333333334" y="311.6666666666667" type="line" smooth="yes"/>
      <point x="183.0" y="434.93333333333334"/>
      <point x="195.53333333333333" y="600.4"/>
      <point x="200.06666666666666" y="690.3333333333334" type="curve"/>
      <point x="266.3333333333333" y="321.3333333333333" type="line"/>
      <point x="350.1333333333333" y="321.3333333333333" type="line"/>
      <point x="531.2666666666667" y="690.3333333333334" type="line"/>
      <point x="507.06666666666666" y="597.4666666666667"/>
      <point x="466.53333333333336" y="429.8"/>
      <point x="447.6" y="311.6666666666667" type="curve" smooth="yes"/>
      <point x="398.1333333333333" y="0.0" type="line"/>
      <point x="475.73333333333335" y="0.0" type="line"/>
      <point x="591.7333333333333" y="730.0" type="line"/>
      <point x="483.46666666666664" y="730.0" type="line"/>
      <point x="363.8666666666667" y="483.0" type="line" smooth="yes"/>
      <point x="345.2" y="442.73333333333335"/>
      <point x="325.6666666666667" y="398.6"/>
      <point x="316.4" y="375.8666666666667" type="curve"/>
      <point x="313.1333333333333" y="398.6"/>
      <point x="306.8666666666667" y="443.0"/>
      <point x="299.8666666666667" y="482.26666666666665" type="curve" smooth="yes"/>
      <point x="256.8" y="730.0" type="line"/>
      <point x="152.26666666666668" y="730.0" type="line"/>
    </contour>
  </outline>
</glyph>
<glyph name="N" format="2">
  <advance width="600.0"/>
  <unicode hex="004E"/>
  <anchor x="256.0" y="0.0" name="bottom"/>
  <anchor x="372.0" y="730.0" name="top"/>
  <outline>
    <contour>
      <point x="51.333333333333336" y="0.0" type="line"/>
      <point x="127.93333333333334" y="0.0" type="line"/>
      <point x="199.33333333333334" y="450.0" type="line" smooth="yes"/>
      <point x="210.26666666666668" y="517.1333333333333"/>
      <point x="218.46666666666667" y="597.3333333333334"/>
      <point x="221.93333333333334" y="638.3333333333334" type="curve"/>
      <point x="355.26666666666665" y="0.0" type="line"/>
      <point x="460.6666666666667" y="0.0" type="line"/>
      <point x="576.6666666666666" y="730.0" type="line"/>
      <point x="500.06666666666666" y="730.0" type="line"/>
      <point x="428.6666666666667" y="280.0" type="line" smooth="yes"/>
      <point x="419.3333333333333" y="222.46666666666667"/>
      <point x="410.6" y="138.26666666666668"/>
      <point x="407.3333333333333" y="91.66666666666667" type="curve"/>
      <point x="272.46666666666664" y="730.0" type="line"/>
      <point x="167.33333333333334" y="730.0" type="line"/>
    </contour>
  </outline>
</glyph>
<glyph name="O" format="2">
  <advance width="600.0"/>
  <unicode hex="004F"/>
  <anchor x="256.0" y="0.0" name="bottom"/>
  <anchor x="314.0" y="365.0" name="center"/>
  <anchor x="387.0" y="700.0" name="horn"/>
  <anchor x="305.0" y="0.0" name="ogonek"/>
  <anchor x="372.0" y="730.0" name="top"/>
  <anchor x="92.0" y="730.0" name="topleft"/>
  <anchor x="652.0" y="730.0" name="topright"/>
  <outline>
    <contour>
      <point x="254.0" y="-10.0" type="curve" smooth="yes"/>
      <point x="381.8" y="-10.0"/>
      <point x="474.46666666666664" y="68.73333333333333"/>
      <point x="494.93333333333334" y="197.33333333333334" type="curve" smooth="yes"/>
      <point x="548.0" y="533.4" type="line" smooth="yes"/>
      <point x="567.7333333333333" y="661.0"/>
      <point x="500.53333333333336" y="740.0"/>
      <point x="373.0" y="740.0" type="curve" smooth="yes"/>
      <point x="245.46666666666667" y="740.0"/>
      <point x="153.53333333333333" y="661.0"/>
      <point x="133.06666666666666" y="532.6666666666666" type="curve" smooth="yes"/>
      <point x="80.0" y="197.33333333333334" type="line" smooth="yes"/>
      <point x="59.53333333333333" y="68.73333333333333"/>
      <point x="126.46666666666667" y="-10.0"/>
    </contour>
    <contour>
      <point x="265.4" y="61.13333333333333" type="curve" smooth="yes"/>
      <point x="183.66666666666666" y="61.13333333333333"/>
      <point x="145.53333333333333" y="110.06666666666666"/>
      <point x="159.33333333333334" y="197.33333333333334" type="curve" smooth="yes"/>
      <point x="212.4" y="532.6666666666666" type="line" smooth="yes"/>
      <point x="225.93333333333334" y="619.6666666666666"/>
      <point x="280.1333333333333" y="668.8666666666667"/>
      <point x="361.6" y="668.8666666666667" type="curve" smooth="yes"/>
      <point x="443.06666666666666" y="668.8666666666667"/>
      <point x="482.2" y="619.6666666666666"/>
      <point x="468.6666666666667" y="532.6666666666666" type="curve" smooth="yes"/>
      <point x="415.6" y="197.33333333333334" type="line" smooth="yes"/>
      <point x="401.8" y="110.06666666666666"/>
      <point x="347.1333333333333" y="61.13333333333333"/>
    </contour>
  </outline>
</glyph>
<glyph name="P" format="2">
  <advance width="600.0"/>
  <unicode hex="0050"/>
  <anchor x="256.0" y="0.0" name="bottom"/>
  <anchor x="372.0" y="730.0" name="top"/>
  <outline>
    <contour>
      <point x="52.8" y="0.0" type="line"/>
      <point x="132.13333333333333" y="0.0" type="line"/>
      <point x="180.93333333333334" y="306.4" type="line"/>
      <point x="331.26666666666665" y="306.4" type="line" smooth="yes"/>
      <point x="464.8666666666667" y="306.4"/>
      <point x="563.8" y="389.3333333333333"/>
      <point x="584.2666666666667" y="518.2" type="curve" smooth="yes"/>
      <point x="604.2666666666667" y="647.0666666666667"/>
      <point x="532.3333333333334" y="730.0"/>
      <point x="398.46666666666664" y="730.0" type="curve" smooth="yes"/>
      <point x="168.8" y="730.0" type="line"/>
    </contour>
    <contour>
      <point x="191.86666666666667" y="378.06666666666666" type="line"/>
      <point x="236.46666666666667" y="658.3333333333334" type="line"/>
      <point x="386.8" y="658.3333333333334" type="line" smooth="yes"/>
      <point x="470.8666666666667" y="658.3333333333334"/>
      <point x="516.5333333333333" y="604.2"/>
      <point x="502.73333333333335" y="518.2" type="curve" smooth="yes"/>
      <point x="489.2" y="432.46666666666664"/>
      <point x="426.0" y="378.06666666666666"/>
      <point x="342.2" y="378.06666666666666" type="curve" smooth="yes"/>
    </contour>
  </outline>
</glyph>
<glyph name="Q" format="2">
  <advance width="600.0"/>
  <unicode hex="0051"/>
  <anchor x="256.0" y="0.0" name="bottom"/>
  <anchor x="372.0" y="730.0" name="top"/>
  <outline>
    <contour>
      <point x="360.0" y="-180.0" type="line"/>
      <point x="445.46666666666664" y="-180.0" type="line"/>
      <point x="345.8666666666667" y="44.93333333333334" type="line"/>
      <point x="341.2" y="4.266666666666667" type="line"/>
      <point x="426.0" y="31.0"/>
      <point x="485.3333333333333" y="103.93333333333334"/>
      <point x="500.8" y="201.0" type="curve" smooth="yes"/>
      <point x="553.1333333333333" y="529.0" type="line" smooth="yes"/>
      <point x="573.6" y="656.0"/>
      <point x="504.0" y="740.0"/>
      <point x="373.26666666666665" y="740.0" type="curve" smooth="yes"/>
      <point x="242.26666666666668" y="740.0"/>
      <point x="147.2" y="657.6"/>
      <point x="126.46666666666667" y="529.0" type="curve" smooth="yes"/>
      <point x="74.13333333333333" y="201.0" type="line" smooth="yes"/>
      <point x="53.666666666666664" y="72.66666666666667"/>
      <point x="123.53333333333333" y="-10.0"/>
      <point x="254.26666666666668" y="-10.0" type="curve" smooth="yes"/>
      <point x="266.93333333333334" y="-10.0"/>
      <point x="281.1333333333333" y="-8.466666666666667"/>
      <point x="292.1333333333333" y="-6.466666666666667" type="curve"/>
      <point x="281.2" y="-2.2" type="line"/>
    </contour>
    <contour>
      <point x="265.93333333333334" y="60.666666666666664" type="curve" smooth="yes"/>
      <point x="183.46666666666667" y="60.666666666666664"/>
      <point x="139.66666666666666" y="114.73333333333333"/>
      <point x="153.46666666666667" y="201.0" type="curve" smooth="yes"/>
      <point x="205.8" y="529.0" type="line" smooth="yes"/>
      <point x="219.6" y="615.2666666666667"/>
      <point x="280.1333333333333" y="669.3333333333334"/>
      <point x="362.6" y="669.3333333333334" type="curve" smooth="yes"/>
      <point x="444.53333333333336" y="669.3333333333334"/>
      <point x="487.6" y="615.0"/>
      <point x="473.8" y="529.0" type="curve" smooth="yes"/>
      <point x="421.46666666666664" y="201.0" type="line" smooth="yes"/>
      <point x="407.6666666666667" y="114.73333333333333"/>
      <point x="348.1333333333333" y="60.666666666666664"/>
    </contour>
  </outline>
</glyph>
<glyph name="R" format="2">
  <advance width="600.0"/>
  <unicode hex="0052"/>
  <anchor x="256.0" y="0.0" name="bottom"/>
  <anchor x="372.0" y="730.0" name="top"/>
  <outline>
    <contour>
      <point x="52.8" y="0.0" type="line"/>
      <point x="132.13333333333333" y="0.0" type="line"/>
      <point x="181.93333333333334" y="315.3333333333333" type="line"/>
      <point x="306.6666666666667" y="315.3333333333333" type="line"/>
      <point x="406.73333333333335" y="0.0" type="line"/>
      <point x="495.93333333333334" y="0.0" type="line"/>
      <point x="375.8" y="357.4" type="line"/>
      <point x="366.6666666666667" y="318.26666666666665" type="line"/>
      <point x="474.26666666666665" y="334.8666666666667"/>
      <point x="554.3333333333334" y="412.6"/>
      <point x="570.8666666666667" y="522.1333333333333" type="curve" smooth="yes"/>
      <point x="590.6" y="646.8666666666667"/>
      <point x="518.9333333333333" y="730.0"/>
      <point x="389.2" y="730.0" type="curve" smooth="yes"/>
      <point x="168.8" y="730.0" type="line"/>
    </contour>
    <contour>
      <point x="193.33333333333334" y="386.73333333333335" type="line"/>
      <point x="236.46666666666667" y="658.3333333333334" type="line"/>
      <point x="377.53333333333336" y="658.3333333333334" type="line" smooth="yes"/>
      <point x="457.6666666666667" y="658.3333333333334"/>
      <point x="502.8666666666667" y="604.9333333333333"/>
      <point x="489.3333333333333" y="522.6666666666666" type="curve" smooth="yes"/>
      <point x="476.53333333333336" y="440.4"/>
      <point x="415.26666666666665" y="386.73333333333335"/>
      <point x="334.4" y="386.73333333333335" type="curve" smooth="yes"/>
    </contour>
  </outline>
</glyph>
<glyph name="S" format="2">
  <advance width="600.0"/>
  <unicode hex="0053"/>
  <anchor x="256.0" y="0.0" name="bottom"/>
  <anchor x="372.0" y="730.0" name="top"/>
  <outline>
    <contour>
      <point x="258.26666666666665" y="-10.0" type="curve" smooth="yes"/>
      <point x="390.93333333333334" y="-10.0"/>
      <point x="491.26666666666665" y="68.4"/>
      <point x="510.26666666666665" y="187.33333333333334" type="curve" smooth="yes"/>
      <point x="525.2666666666667" y="283.26666666666665"/>
      <point x="478.93333333333334" y="360.8666666666667"/>
      <point x="386.4" y="391.3333333333333" type="curve" smooth="yes"/>
      <point x="295.1333333333333" y="421.46666666666664" type="line" smooth="yes"/>
      <point x="236.93333333333334" y="440.26666666666665"/>
      <point x="208.8" y="490.93333333333334"/>
      <point x="219.06666666666666" y="556.4" type="curve" smooth="yes"/>
      <point x="229.6" y="626.6666666666666"/>
      <point x="285.3333333333333" y="669.3333333333334"/>
      <point x="367.3333333333333" y="669.3333333333334" type="curve" smooth="yes"/>
      <point x="449.53333333333336" y="669.3333333333334"/>
      <point x="490.73333333333335" y="622.3333333333334"/>
      <point x="478.2" y="545.8" type="curve"/>
      <point x="557.5333333333333" y="545.8" type="line"/>
      <point x="574.8" y="663.8"/>
      <point x="505.4" y="740.7333333333333"/>
      <point x="379.0" y="740.7333333333333" type="curve" smooth="yes"/>
      <point x="250.86666666666667" y="740.7333333333333"/>
      <point x="156.73333333333332" y="664.8666666666667"/>
      <point x="138.26666666666668" y="549.4666666666667" type="curve" smooth="yes"/>
      <point x="124.0" y="454.26666666666665"/>
      <point x="170.46666666666667" y="379.53333333333336"/>
      <point x="262.93333333333334" y="350.06666666666666" type="curve" smooth="yes"/>
      <point x="353.46666666666664" y="320.6666666666667" type="line" smooth="yes"/>
      <point x="412.3333333333333" y="302.06666666666666"/>
      <point x="440.46666666666664" y="252.13333333333333"/>
      <point x="430.6666666666667" y="185.06666666666666" type="curve" smooth="yes"/>
      <point x="418.1333333333333" y="107.8"/>
      <point x="358.2" y="61.4"/>
      <point x="269.93333333333334" y="61.4" type="curve" smooth="yes"/>
      <point x="176.46666666666667" y="61.4"/>
      <point x="128.0" y="110.13333333333334"/>
      <point x="140.53333333333333" y="188.66666666666666" type="curve"/>
      <point x="61.2" y="188.66666666666666" type="line"/>
      <point x="42.93333333333333" y="66.0"/>
      <point x="117.4" y="-10.0"/>
    </contour>
  </outline>
</glyph>
<glyph name="T" format="2">
  <advance width="600.0"/>
  <unicode hex="0054"/>
  <anchor x="256.0" y="0.0" name="bottom"/>
  <anchor x="314.0" y="365.0" name="center"/>
  <anchor x="372.0" y="730.0" name="top"/>
  <outline>
    <contour>
      <point x="216.6" y="0.0" type="line"/>
      <point x="295.93333333333334" y="0.0" type="line"/>
      <point x="400.26666666666665" y="657.6" type="line"/>
      <point x="604.0" y="657.6" type="line"/>
      <point x="615.6666666666666" y="730.0" type="line"/>
      <point x="128.33333333333334" y="730.0" type="line"/>
      <point x="116.66666666666667" y="657.6" type="line"/>
      <point x="320.93333333333334" y="657.6" type="line"/>
    </contour>
  </outline>
</glyph>
<glyph name="U" format="2">
  <advance width="600.0"/>
  <unicode hex="0055"/>
  <anchor x="256.0" y="0.0" name="bottom"/>
  <anchor x="458.8666666666667" y="730.0" name="horn"/>
  <anchor x="305.0" y="0.0" name="ogonek"/>
  <anchor x="372.0" y="730.0" name="top"/>
  <anchor x="652.0" y="730.0" name="topright"/>
  <outline>
    <contour>
      <point x="254.26666666666668" y="-10.0" type="curve" smooth="yes"/>
      <point x="385.6666666666667" y="-10.0"/>
      <point x="472.2" y="69.0"/>
      <point x="492.6666666666667" y="197.33333333333334" type="curve" smooth="yes"/>
      <point x="577.2" y="730.0" type="line"/>
      <point x="497.8666666666667" y="730.0" type="line"/>
      <point x="413.3333333333333" y="197.33333333333334" type="line" smooth="yes"/>
      <point x="399.8" y="112.8"/>
      <point x="348.3333333333333" y="60.666666666666664"/>
      <point x="265.93333333333334" y="60.666666666666664" type="curve" smooth="yes"/>
      <point x="182.53333333333333" y="60.666666666666664"/>
      <point x="148.06666666666666" y="112.53333333333333"/>
      <point x="161.6" y="197.33333333333334" type="curve" smooth="yes"/>
      <point x="246.13333333333333" y="730.0" type="line"/>
      <point x="166.8" y="730.0" type="line"/>
      <point x="82.26666666666667" y="197.33333333333334" type="line" smooth="yes"/>
      <point x="61.8" y="69.73333333333333"/>
      <point x="123.33333333333333" y="-10.0"/>
    </contour>
  </outline>
</glyph>
<glyph name="V" format="2">
  <advance width="600.0"/>
  <unicode hex="0056"/>
  <anchor x="256.0" y="0.0" name="bottom"/>
  <anchor x="372.0" y="730.0" name="top"/>
  <outline>
    <contour>
      <point x="202.0" y="0.0" type="line"/>
      <point x="309.26666666666665" y="0.0" type="line"/>
      <point x="617.2" y="730.0" type="line"/>
      <point x="535.1333333333333" y="730.0" type="line"/>
      <point x="324.06666666666666" y="219.6" type="line" smooth="yes"/>
      <point x="296.8666666666667" y="153.53333333333333"/>
      <point x="275.4" y="90.93333333333334"/>
      <point x="266.4" y="62.0" type="curve"/>
      <point x="266.1333333333333" y="90.93333333333334"/>
      <point x="262.6666666666667" y="153.53333333333333"/>
      <point x="256.4" y="219.6" type="curve" smooth="yes"/>
      <point x="206.86666666666667" y="730.0" type="line"/>
      <point x="126.8" y="730.0" type="line"/>
    </contour>
  </outline>
</glyph>
<glyph name="W" format="2">
  <advance width="600.0"/>
  <unicode hex="0057"/>
  <anchor x="256.0" y="0.0" name="bottom"/>
  <anchor x="372.0" y="730.0" name="top"/>
  <outline>
    <contour>
      <point x="70.6" y="0.0" type="line"/>
      <point x="172.13333333333333" y="0.0" type="line"/>
      <point x="328.8" y="544.6666666666666" type="line" smooth="yes"/>
      <point x="342.6" y="591.5333333333333"/>
      <point x="356.73333333333335" y="645.4"/>
      <point x="365.06666666666666" y="673.1333333333333" type="curve"/>
      <point x="363.3333333333333" y="645.1333333333333"/>
      <point x="360.6" y="591.2666666666667"/>
      <point x="358.8666666666667" y="544.6666666666666" type="curve" smooth="yes"/>
      <point x="337.6" y="0.0" type="line"/>
      <point x="439.6666666666667" y="0.0" type="line"/>
      <point x="643.0" y="730.0" type="line"/>
      <point x="569.8" y="730.0" type="line"/>
      <point x="425.46666666666664" y="190.0" type="line" smooth="yes"/>
      <point x="414.0" y="148.13333333333333"/>
      <point x="399.3333333333333" y="89.53333333333333"/>
      <point x="390.73333333333335" y="57.0" type="curve"/>
      <point x="392.46666666666664" y="89.53333333333333"/>
      <point x="394.2" y="148.13333333333333"/>
      <point x="395.93333333333334" y="190.0" type="curve" smooth="yes"/>
      <point x="416.73333333333335" y="730.0" type="line"/>
      <point x="330.0" y="730.0" type="line"/>
      <point x="173.6" y="190.0" type="line" smooth="yes"/>
      <point x="161.13333333333333" y="148.13333333333333"/>
      <point x="146.46666666666667" y="89.53333333333333"/>
      <point x="137.13333333333333" y="57.0" type="curve"/>
      <point x="140.6" y="89.53333333333333"/>
      <point x="144.33333333333334" y="148.13333333333333"/>
      <point x="146.8" y="190.0" type="curve" smooth="yes"/>
      <point x="174.33333333333334" y="730.0" type="line"/>
      <point x="101.0" y="730.0" type="line"/>
    </contour>
  </outline>
</glyph>
<glyph name="X" format="2">
  <advance width="600.0"/>
  <unicode hex="0058"/>
  <anchor x="256.0" y="0.0" name="bottom"/>
  <anchor x="372.0" y="730.0" name="top"/>
  <outline>
    <contour>
      <point x="-0.5333333333333332" y="0.0" type="line"/>
      <point x="90.93333333333334" y="0.0" type="line"/>
      <point x="257.73333333333335" y="238.06666666666666" type="line" smooth="yes"/>
      <point x="272.73333333333335" y="259.8"/>
      <point x="294.2" y="292.53333333333336"/>
      <point x="307.1333333333333" y="311.73333333333335" type="curve"/>
      <point x="313.0" y="292.53333333333336"/>
      <point x="325.93333333333334" y="259.8"/>
      <point x="334.6666666666667" y="237.33333333333334" type="curve" smooth="yes"/>
      <point x="425.53333333333336" y="0.0" type="line"/>
      <point x="512.5333333333333" y="0.0" type="line"/>
      <point x="361.4" y="375.8666666666667" type="line"/>
      <point x="616.4666666666667" y="730.0" type="line"/>
      <point x="526.0" y="730.0" type="line"/>
      <point x="374.06666666666666" y="512.4" type="line" smooth="yes"/>
      <point x="358.06666666666666" y="489.4"/>
      <point x="337.06666666666666" y="456.6666666666667"/>
      <point x="325.4" y="438.73333333333335" type="curve"/>
      <point x="317.8" y="456.93333333333334"/>
      <point x="304.4" y="489.4"/>
      <point x="296.1333333333333" y="512.4" type="curve" smooth="yes"/>
      <point x="215.26666666666668" y="730.0" type="line"/>
      <point x="127.53333333333333" y="730.0" type="line"/>
      <point x="270.1333333333333" y="374.4" type="line"/>
    </contour>
  </outline>
</glyph>
<glyph name="Y" format="2">
  <advance width="600.0"/>
  <unicode hex="0059"/>
  <anchor x="256.0" y="0.0" name="bottom"/>
  <anchor x="372.0" y="730.0" name="top"/>
  <anchor x="92.0" y="730.0" name="topleft"/>
  <outline>
    <contour>
      <point x="216.33333333333334" y="0.0" type="line"/>
      <point x="295.6666666666667" y="0.0" type="line"/>
      <point x="338.93333333333334" y="274.8666666666667" type="line"/>
      <point x="633.0" y="730.0" type="line"/>
      <point x="548.9333333333333" y="730.0" type="line"/>
      <point x="351.73333333333335" y="422.0" type="line" smooth="yes"/>
      <point x="331.0" y="389.8"/>
      <point x="317.2" y="364.0"/>
      <point x="311.4" y="353.46666666666664" type="curve"/>
      <point x="309.6" y="364.26666666666665"/>
      <point x="302.8" y="390.06666666666666"/>
      <point x="292.06666666666666" y="422.0" type="curve" smooth="yes"/>
      <point x="191.06666666666666" y="730.0" type="line"/>
      <point x="111.0" y="730.0" type="line"/>
      <point x="259.6" y="274.8666666666667" type="line"/>
    </contour>
  </outline>
</glyph>
<glyph name="Z" format="2">
  <advance width="600.0"/>
  <unicode hex="005A"/>
  <anchor x="256.0" y="0.0" name="bottom"/>
  <anchor x="314.0" y="365.0" name="center"/>
  <anchor x="372.0" y="730.0" name="top"/>
  <outline>
    <contour>
      <point x="42.6" y="0.0" type="line"/>
      <point x="469.1333333333333" y="0.0" type="line"/>
      <point x="480.53333333333336" y="72.4" type="line"/>
      <point x="137.33333333333334" y="72.4" type="line"/>
      <point x="560.9333333333333" y="648.8" type="line"/>
      <point x="574.3333333333334" y="730.0" type="line"/>
      <point x="163.33333333333334" y="730.0" type="line"/>
      <point x="151.66666666666666" y="657.6" type="line"/>
      <point x="480.1333333333333" y="657.6" type="line"/>
      <point x="55.0" y="79.33333333333333" type="line"/>
    </contour>
  </outline>
</glyph>
<glyph name="bracketleft" format="2">
  <advance width="600.0"/>
  <unicode hex="005B"/>
  <outline>
    <contour>
      <point x="148.0" y="-110.0" type="line"/>
      <point x="387.6666666666667" y="-110.0" type="line"/>
      <point x="398.3333333333333" y="-39.333333333333336" type="line"/>
      <point x="238.0" y="-39.333333333333336" type="line"/>
      <point x="364.6666666666667" y="759.3333333333334" type="line"/>
      <point x="525.0" y="759.3333333333334" type="line"/>
      <point x="535.6666666666666" y="830.0" type="line"/>
      <point x="296.0" y="830.0" type="line"/>
    </contour>
  </outline>
</glyph>
<glyph name="backslash" format="2">
  <advance width="600.0"/>
  <unicode hex="005C"/>
  <outline>
    <contour>
      <point x="378.8" y="-110.0" type="line"/>
      <point x="458.6666666666667" y="-110.0" type="line"/>
      <point x="247.2" y="830.0" type="line"/>
      <point x="167.33333333333334" y="830.0" type="line"/>
    </contour>
  </outline>
</glyph>
<glyph name="bracketright" format="2">
  <advance width="600.0"/>
  <unicode hex="005D"/>
  <outline>
    <contour>
      <point x="90.33333333333333" y="-110.0" type="line"/>
      <point x="330.0" y="-110.0" type="line"/>
      <point x="478.0" y="830.0" type="line"/>
      <point x="238.33333333333334" y="830.0" type="line"/>
      <point x="227.66666666666666" y="759.3333333333334" type="line"/>
      <point x="388.0" y="759.3333333333334" type="line"/>
      <point x="261.3333333333333" y="-39.333333333333336" type="line"/>
      <point x="101.0" y="-39.333333333333336" type="line"/>
    </contour>
  </outline>
</glyph>
<glyph name="asciicircum" format="2">
  <advance width="600.0"/>
  <unicode hex="005E"/>
  <outline>
    <contour>
      <point x="95.33333333333333" y="340.0" type="line"/>
      <point x="172.93333333333334" y="340.0" type="line"/>
      <point x="328.6666666666667" y="598.5333333333333" type="line" smooth="yes"/>
      <point x="344.4" y="624.5333333333333"/>
      <point x="359.0" y="653.4"/>
      <point x="366.26666666666665" y="668.4666666666667" type="curve"/>
      <point x="368.8" y="653.4"/>
      <point x="375.06666666666666" y="624.5333333333333"/>
      <point x="382.06666666666666" y="598.5333333333333" type="curve" smooth="yes"/>
      <point x="452.8" y="340.0" type="line"/>
      <point x="524.6666666666666" y="340.0" type="line"/>
      <point x="411.26666666666665" y="730.0" type="line"/>
      <point x="335.53333333333336" y="730.0" type="line"/>
    </contour>
  </outline>
</glyph>
<glyph name="underscore" format="2">
  <advance width="600.0"/>
  <unicode hex="005F"/>
  <outline>
    <contour>
      <point x="1.3333333333333333" y="-92.0" type="line"/>
      <point x="481.3333333333333" y="-92.0" type="line"/>
      <point x="492.0" y="-25.0" type="line"/>
      <point x="12.0" y="-25.0" type="line"/>
    </contour>
  </outline>
</glyph>
<glyph name="a" format="2">
  <advance width="600.0"/>
  <unicode hex="0061"/>
  <anchor x="261.0" y="0.0" name="bottom"/>
  <anchor x="417.3333333333333" y="0.0" name="ogonek"/>
  <anchor x="348.0" y="550.0" name="top"/>
  <outline>
    <contour>
      <point x="227.8" y="-10.0" type="curve" smooth="yes"/>
      <point x="320.1333333333333" y="-10.0"/>
      <point x="390.53333333333336" y="43.86666666666667"/>
      <point x="403.8" y="129.73333333333332" type="curve"/>
      <point x="375.6" y="97.0" type="line"/>
      <point x="396.26666666666665" y="97.0" type="line"/>
      <point x="380.6" y="0.0" type="line"/>
      <point x="459.93333333333334" y="0.0" type="line"/>
      <point x="546.9333333333333" y="550.0" type="line"/>
      <point x="467.6" y="550.0" type="line"/>
      <point x="453.4" y="453.0" type="line"/>
      <point x="433.93333333333334" y="453.0" type="line"/>
      <point x="449.73333333333335" y="420.26666666666665" type="line"/>
      <point x="463.0" y="505.4"/>
      <point x="410.4" y="560.0"/>
      <point x="318.8" y="560.0" type="curve" smooth="yes"/>
      <point x="208.06666666666666" y="560.0"/>
      <point x="125.26666666666667" y="481.46666666666664"/>
      <point x="105.53333333333333" y="356.3333333333333" type="curve" smooth="yes"/>
      <point x="80.0" y="192.66666666666666" type="line" smooth="yes"/>
      <point x="60.266666666666666" y="68.26666666666667"/>
      <point x="117.8" y="-10.0"/>
    </contour>
    <contour>
      <point x="263.8666666666667" y="58.666666666666664" type="curve" smooth="yes"/>
      <point x="184.4" y="58.666666666666664"/>
      <point x="146.53333333333333" y="108.6"/>
      <point x="160.06666666666666" y="197.06666666666666" type="curve" smooth="yes"/>
      <point x="184.13333333333333" y="352.6666666666667" type="line" smooth="yes"/>
      <point x="197.66666666666666" y="441.1333333333333"/>
      <point x="252.6" y="491.3333333333333"/>
      <point x="332.06666666666666" y="491.3333333333333" type="curve" smooth="yes"/>
      <point x="410.6" y="491.3333333333333"/>
      <point x="449.6666666666667" y="439.6666666666667"/>
      <point x="436.1333333333333" y="352.6666666666667" type="curve" smooth="yes"/>
      <point x="412.06666666666666" y="197.06666666666666" type="line" smooth="yes"/>
      <point x="398.53333333333336" y="110.06666666666666"/>
      <point x="342.1333333333333" y="58.666666666666664"/>
    </contour>
  </outline>
</glyph>
<glyph name="b" format="2">
  <advance width="600.0"/>
  <unicode hex="0062"/>
  <anchor x="256.0" y="0.0" name="bottom"/>
  <anchor x="372.0" y="730.0" name="top"/>
  <outline>
    <contour>
      <point x="280.93333333333334" y="-10.0" type="curve" smooth="yes"/>
      <point x="390.93333333333334" y="-10.0"/>
      <point x="474.46666666666664" y="68.26666666666667"/>
      <point x="494.2" y="192.66666666666666" type="curve" smooth="yes"/>
      <point x="519.7333333333333" y="356.3333333333333" type="line" smooth="yes"/>
      <point x="539.4666666666667" y="481.46666666666664"/>
      <point x="482.6666666666667" y="560.0"/>
      <point x="371.93333333333334" y="560.0" type="curve" smooth="yes"/>
      <point x="280.3333333333333" y="560.0"/>
      <point x="209.2" y="505.4"/>
      <point x="195.93333333333334" y="420.26666666666665" type="curve"/>
      <point x="221.46666666666667" y="453.0" type="line"/>
      <point x="202.0" y="453.0" type="line"/>
      <point x="222.66666666666666" y="572.6666666666666" type="line"/>
      <point x="248.13333333333333" y="730.0" type="line"/>
      <point x="168.8" y="730.0" type="line"/>
      <point x="52.8" y="0.0" type="line"/>
      <point x="132.13333333333333" y="0.0" type="line"/>
      <point x="147.8" y="97.0" type="line"/>
      <point x="168.46666666666667" y="97.0" type="line"/>
      <point x="150.0" y="129.73333333333332" type="line"/>
      <point x="136.73333333333335" y="43.86666666666667"/>
      <point x="188.6" y="-10.0"/>
    </contour>
    <contour>
      <point x="267.6666666666667" y="58.666666666666664" type="curve" smooth="yes"/>
      <point x="189.4" y="58.666666666666664"/>
      <point x="149.8" y="110.06666666666666"/>
      <point x="163.6" y="197.06666666666666" type="curve" smooth="yes"/>
      <point x="187.66666666666666" y="352.6666666666667" type="line" smooth="yes"/>
      <point x="202.2" y="439.6666666666667"/>
      <point x="257.3333333333333" y="491.3333333333333"/>
      <point x="335.8666666666667" y="491.3333333333333" type="curve" smooth="yes"/>
      <point x="415.3333333333333" y="491.3333333333333"/>
      <point x="454.2" y="441.1333333333333"/>
      <point x="439.6666666666667" y="352.6666666666667" type="curve" smooth="yes"/>
      <point x="415.6" y="197.06666666666666" type="line" smooth="yes"/>
      <point x="401.06666666666666" y="108.6"/>
      <point x="347.1333333333333" y="58.666666666666664"/>
    </contour>
  </outline>
</glyph>
<glyph name="c" format="2">
  <advance width="600.0"/>
  <unicode hex="0063"/>
  <anchor x="259.46666666666664" y="0.0" name="bottom"/>
  <anchor x="346.46666666666664" y="550.0" name="top"/>
  <outline>
    <contour>
      <point x="257.46666666666664" y="-10.0" type="curve" smooth="yes"/>
      <point x="382.8666666666667" y="-10.0"/>
      <point x="476.26666666666665" y="63.266666666666666"/>
      <point x="498.2" y="180.0" type="curve"/>
      <point x="418.8666666666667" y="180.0" type="line"/>
      <point x="403.1333333333333" y="104.66666666666667"/>
      <point x="347.93333333333334" y="60.93333333333334"/>
      <point x="269.1333333333333" y="60.93333333333334" type="curve" smooth="yes"/>
      <point x="186.93333333333334" y="60.93333333333334"/>
      <point x="145.8" y="110.86666666666667"/>
      <point x="159.33333333333334" y="197.33333333333334" type="curve" smooth="yes"/>
      <point x="184.13333333333333" y="353.4" type="line" smooth="yes"/>
      <point x="197.66666666666666" y="439.4"/>
      <point x="254.6" y="489.06666666666666"/>
      <point x="336.8" y="489.06666666666666" type="curve" smooth="yes"/>
      <point x="415.6" y="489.06666666666666"/>
      <point x="457.73333333333335" y="445.3333333333333"/>
      <point x="448.8666666666667" y="370.0" type="curve"/>
      <point x="528.2" y="370.0" type="line"/>
      <point x="543.2666666666667" y="486.73333333333335"/>
      <point x="473.8666666666667" y="560.0"/>
      <point x="348.46666666666664" y="560.0" type="curve" smooth="yes"/>
      <point x="218.93333333333334" y="560.0"/>
      <point x="124.53333333333333" y="481.0"/>
      <point x="104.06666666666666" y="352.6666666666667" type="curve" smooth="yes"/>
      <point x="80.0" y="197.33333333333334" type="line" smooth="yes"/>
      <point x="59.53333333333333" y="68.73333333333333"/>
      <point x="127.66666666666667" y="-10.0"/>
    </contour>
  </outline>
</glyph>
<glyph name="e" format="2">
  <advance width="600.0"/>
  <unicode hex="0065"/>
  <anchor x="256.0" y="0.0" name="bottom"/>
  <anchor x="305.0" y="0.0" name="ogonek"/>
  <anchor x="343.0" y="550.0" name="top"/>
  <outline>
    <contour>
      <point x="254.26666666666668" y="-10.0" type="curve" smooth="yes"/>
      <point x="366.8" y="-10.0"/>
      <point x="455.3333333333333" y="47.46666666666667"/>
      <point x="483.46666666666664" y="138.66666666666666" type="curve"/>
      <point x="404.1333333333333" y="138.66666666666666" type="line"/>
      <point x="383.2" y="85.93333333333334"/>
      <point x="335.26666666666665" y="57.46666666666667"/>
      <point x="264.93333333333334" y="57.46666666666667" type="curve" smooth="yes"/>
      <point x="180.0" y="57.46666666666667"/>
      <point x="143.6" y="107.93333333333334"/>
      <point x="157.86666666666667" y="197.33333333333334" type="curve" smooth="yes"/>
      <point x="166.93333333333334" y="256.2" type="line"/>
      <point x="504.0" y="256.2" type="line"/>
      <point x="519.0" y="352.6666666666667" type="line" smooth="yes"/>
      <point x="539.4666666666667" y="478.06666666666666"/>
      <point x="472.8666666666667" y="560.0"/>
      <point x="345.26666666666665" y="560.0" type="curve" smooth="yes"/>
      <point x="217.4" y="560.0"/>
      <point x="124.53333333333333" y="478.06666666666666"/>
      <point x="104.06666666666666" y="352.6666666666667" type="curve" smooth="yes"/>
      <point x="80.0" y="197.33333333333334" type="line" smooth="yes"/>
      <point x="60.266666666666666" y="71.66666666666667"/>
      <point x="126.13333333333334" y="-10.0"/>
    </contour>
    <contour>
      <point x="434.8" y="309.26666666666665" type="line"/>
      <point x="444.1333333333333" y="317.53333333333336" type="line"/>
      <point x="176.86666666666667" y="317.53333333333336" type="line"/>
      <point x="181.93333333333334" y="352.6666666666667" type="line" smooth="yes"/>
      <point x="196.2" y="442.3333333333333"/>
      <point x="249.4" y="493.26666666666665"/>
      <point x="334.6" y="493.26666666666665" type="curve" smooth="yes"/>
      <point x="419.26666666666665" y="493.26666666666665"/>
      <point x="455.6666666666667" y="442.06666666666666"/>
      <point x="441.1333333333333" y="352.6666666666667" type="curve" smooth="yes"/>
    </contour>
  </outline>
</glyph>
<glyph name="f" format="2">
  <advance width="600.0"/>
  <unicode hex="0066"/>
  <anchor x="256.0" y="0.0" name="bottom"/>
  <anchor x="372.0" y="730.0" name="top"/>
  <outline>
    <contour>
      <point x="0.0" y="-180.0" type="line"/>
      <point x="79.66666666666667" y="-180.0" type="line" smooth="yes"/>
      <point x="180.46666666666667" y="-180.0"/>
      <point x="249.66666666666666" y="-122.73333333333333"/>
      <point x="264.8666666666667" y="-29.333333333333336" type="curve" smooth="yes"/>
      <point x="339.06666666666666" y="422.6" type="line"/>
      <point x="554.4" y="422.6" type="line"/>
      <point x="565.8" y="494.73333333333335" type="line"/>
      <point x="350.46666666666664" y="494.73333333333335" type="line"/>
      <point x="364.06666666666666" y="579.3333333333334" type="line" smooth="yes"/>
      <point x="372.06666666666666" y="631.8"/>
      <point x="402.8666666666667" y="657.8666666666667"/>
      <point x="457.53333333333336" y="657.8666666666667" type="curve" smooth="yes"/>
      <point x="587.0" y="657.8666666666667" type="line"/>
      <point x="598.6666666666666" y="730.0" type="line"/>
      <point x="469.93333333333334" y="730.0" type="line" smooth="yes"/>
      <point x="369.1333333333333" y="730.0"/>
      <point x="299.93333333333334" y="672.7333333333333"/>
      <point x="284.73333333333335" y="579.3333333333334" type="curve" smooth="yes"/>
      <point x="271.1333333333333" y="494.73333333333335" type="line"/>
      <point x="96.66666666666667" y="494.73333333333335" type="line"/>
      <point x="85.26666666666667" y="422.6" type="line"/>
      <point x="259.73333333333335" y="422.6" type="line"/>
      <point x="185.53333333333333" y="-29.333333333333336" type="line" smooth="yes"/>
      <point x="176.8" y="-81.8"/>
      <point x="146.73333333333332" y="-107.86666666666667"/>
      <point x="92.06666666666666" y="-107.86666666666667" type="curve" smooth="yes"/>
      <point x="11.666666666666666" y="-107.86666666666667" type="line"/>
    </contour>
  </outline>
</glyph>
<glyph name="g" format="2">
  <advance width="600.0"/>
  <unicode hex="0067"/>
  <anchor x="214.0" y="-270.0" name="bottom"/>
  <anchor x="340.0" y="550.0" name="top"/>
  <outline>
    <contour>
      <point x="92.93333333333334" y="-180.0" type="line"/>
      <point x="259.2" y="-180.0" type="line" smooth="yes"/>
      <point x="368.26666666666665" y="-180.0"/>
      <point x="440.93333333333334" y="-120.33333333333333"/>
      <point x="457.2" y="-18.666666666666668" type="curve" smooth="yes"/>
      <point x="546.9333333333333" y="550.0" type="line"/>
      <point x="468.3333333333333" y="550.0" type="line"/>
      <point x="451.8666666666667" y="447.6666666666667" type="line"/>
      <point x="435.93333333333334" y="447.6666666666667" type="line"/>
      <point x="450.4" y="424.6666666666667" type="line"/>
      <point x="463.6666666666667" y="507.6"/>
      <point x="412.6" y="560.0"/>
      <point x="321.73333333333335" y="560.0" type="curve" smooth="yes"/>
      <point x="209.53333333333333" y="560.0"/>
      <point x="126.0" y="480.73333333333335"/>
      <point x="106.26666666666667" y="357.06666666666666" type="curve" smooth="yes"/>
      <point x="88.0" y="239.73333333333332" type="line" smooth="yes"/>
      <point x="68.26666666666667" y="115.33333333333333"/>
      <point x="126.53333333333333" y="36.333333333333336"/>
      <point x="238.73333333333332" y="36.333333333333336" type="curve" smooth="yes"/>
      <point x="329.6" y="36.333333333333336"/>
      <point x="397.0" y="88.73333333333333"/>
      <point x="410.26666666666665" y="171.66666666666666" type="curve"/>
      <point x="387.8" y="148.66666666666666" type="line"/>
      <point x="405.8" y="148.66666666666666" type="line"/>
      <point x="387.8" y="44.666666666666664" type="line"/>
      <point x="377.8666666666667" y="-18.666666666666668" type="line" smooth="yes"/>
      <point x="368.06666666666666" y="-78.6"/>
      <point x="333.73333333333335" y="-107.86666666666667"/>
      <point x="271.6" y="-107.86666666666667" type="curve" smooth="yes"/>
      <point x="104.6" y="-107.86666666666667" type="line"/>
    </contour>
    <contour>
      <point x="271.8666666666667" y="105.0" type="curve" smooth="yes"/>
      <point x="192.4" y="105.0"/>
      <point x="153.8" y="154.93333333333334"/>
      <point x="168.06666666666666" y="243.4" type="curve" smooth="yes"/>
      <point x="184.86666666666667" y="352.6666666666667" type="line" smooth="yes"/>
      <point x="199.13333333333333" y="441.1333333333333"/>
      <point x="253.33333333333334" y="491.3333333333333"/>
      <point x="332.8" y="491.3333333333333" type="curve" smooth="yes"/>
      <point x="411.3333333333333" y="491.3333333333333"/>
      <point x="451.1333333333333" y="439.6666666666667"/>
      <point x="436.8666666666667" y="352.6666666666667" type="curve" smooth="yes"/>
      <point x="420.06666666666666" y="243.4" type="line" smooth="yes"/>
      <point x="406.53333333333336" y="156.4"/>
      <point x="350.1333333333333" y="105.0"/>
    </contour>
  </outline>
</glyph>
<glyph name="h" format="2">
  <advance width="600.0"/>
  <unicode hex="0068"/>
  <anchor x="256.0" y="0.0" name="bottom"/>
  <anchor x="314.0" y="365.0" name="center"/>
  <anchor x="372.0" y="730.0" name="top"/>
  <outline>
    <contour>
      <point x="52.8" y="0.0" type="line"/>
      <point x="132.13333333333333" y="0.0" type="line"/>
      <point x="187.66666666666666" y="352.6666666666667" type="line" smooth="yes"/>
      <point x="201.93333333333334" y="440.8666666666667"/>
      <point x="258.8666666666667" y="492.8"/>
      <point x="337.3333333333333" y="492.8" type="curve" smooth="yes"/>
      <point x="413.06666666666666" y="492.8"/>
      <point x="451.93333333333334" y="443.6"/>
      <point x="438.8666666666667" y="360.0" type="curve" smooth="yes"/>
      <point x="381.8666666666667" y="0.0" type="line"/>
      <point x="461.2" y="0.0" type="line"/>
      <point x="519.9333333333333" y="369.2" type="line" smooth="yes"/>
      <point x="538.2" y="486.46666666666664"/>
      <point x="479.2" y="560.0"/>
      <point x="369.73333333333335" y="560.0" type="curve" smooth="yes"/>
      <point x="276.6666666666667" y="560.0"/>
      <point x="210.73333333333335" y="507.6"/>
      <point x="196.73333333333335" y="420.26666666666665" type="curve"/>
      <point x="223.26666666666668" y="451.6666666666667" type="line"/>
      <point x="203.2" y="451.6666666666667" type="line"/>
      <point x="220.46666666666667" y="558.0" type="line"/>
      <point x="248.13333333333333" y="730.0" type="line"/>
      <point x="168.8" y="730.0" type="line"/>
    </contour>
  </outline>
</glyph>
<glyph name="k" format="2">
  <advance width="600.0"/>
  <unicode hex="006B"/>
  <anchor x="256.0" y="0.0" name="bottom"/>
  <anchor x="372.0" y="730.0" name="top"/>
  <outline>
    <contour>
      <point x="55.8" y="0.0" type="line"/>
      <point x="135.13333333333333" y="0.0" type="line"/>
      <point x="174.93333333333334" y="250.06666666666666" type="line"/>
      <point x="283.0" y="250.06666666666666" type="line"/>
      <point x="407.73333333333335" y="0.0" type="line"/>
      <point x="498.73333333333335" y="0.0" type="line"/>
      <point x="355.1333333333333" y="284.46666666666664" type="line"/>
      <point x="582.4666666666667" y="550.0" type="line"/>
      <point x="489.2" y="550.0" type="line"/>
      <point x="289.46666666666664" y="319.26666666666665" type="line"/>
      <point x="185.6" y="319.26666666666665" type="line"/>
      <point x="251.13333333333333" y="730.0" type="line"/>
      <point x="171.8" y="730.0" type="line"/>
    </contour>
  </outline>
</glyph>
<glyph name="l" format="2">
  <advance width="600.0"/>
  <unicode hex="006C"/>
  <anchor x="240.0" y="0.0" name="bottom"/>
  <anchor x="314.0" y="365.0" name="center"/>
  <anchor x="312.0" y="730.0" name="top"/>
  <anchor x="652.0" y="730.0" name="topright"/>
  <outline>
    <contour>
      <point x="321.0" y="0.0" type="curve" smooth="yes"/>
      <point x="503.3333333333333" y="0.0" type="line"/>
      <point x="514.7333333333333" y="72.13333333333333" type="line"/>
      <point x="332.4" y="72.13333333333333" type="line" smooth="yes"/>
      <point x="285.1333333333333" y="72.13333333333333"/>
      <point x="262.06666666666666" y="100.93333333333334"/>
      <point x="269.6" y="149.66666666666666" type="curve" smooth="yes"/>
      <point x="361.6666666666667" y="730.0" type="line"/>
      <point x="114.66666666666667" y="730.0" type="line"/>
      <point x="103.0" y="657.8666666666667" type="line"/>
      <point x="270.6666666666667" y="657.8666666666667" type="line"/>
      <point x="190.26666666666668" y="149.66666666666666" type="line" smooth="yes"/>
      <point x="175.53333333333333" y="57.53333333333333"/>
      <point x="225.86666666666667" y="0.0"/>
    </contour>
  </outline>
</glyph>
<glyph name="m" format="2">
  <advance width="600.0"/>
  <unicode hex="006D"/>
  <anchor x="256.0" y="0.0" name="bottom"/>
  <anchor x="344.0" y="550.0" name="top"/>
  <outline>
    <contour>
      <point x="25.46666666666667" y="0.0" type="line"/>
      <point x="99.4" y="0.0" type="line"/>
      <point x="165.66666666666666" y="421.3333333333333" type="line" smooth="yes"/>
      <point x="174.0" y="469.53333333333336"/>
      <point x="200.46666666666667" y="498.2"/>
      <point x="239.33333333333334" y="498.2" type="curve" smooth="yes"/>
      <point x="278.2" y="498.2"/>
      <point x="297.0" y="469.53333333333336"/>
      <point x="289.46666666666664" y="420.6" type="curve" smooth="yes"/>
      <point x="223.2" y="0.0" type="line"/>
      <point x="288.8" y="0.0" type="line"/>
      <point x="355.06666666666666" y="421.3333333333333" type="line" smooth="yes"/>
      <point x="362.6" y="469.26666666666665"/>
      <point x="391.26666666666665" y="498.2"/>
      <point x="430.2" y="498.2" type="curve" smooth="yes"/>
      <point x="469.06666666666666" y="498.2"/>
      <point x="486.4" y="468.8"/>
      <point x="478.8666666666667" y="420.6" type="curve" smooth="yes"/>
      <point x="412.6" y="0.0" type="line"/>
      <point x="486.53333333333336" y="0.0" type="line"/>
      <point x="553.0666666666667" y="421.46666666666664" type="line" smooth="yes"/>
      <point x="566.0666666666667" y="505.1333333333333"/>
      <point x="535.0666666666667" y="560.0"/>
      <point x="466.8666666666667" y="560.0" type="curve" smooth="yes"/>
      <point x="410.06666666666666" y="560.0"/>
      <point x="367.6" y="521.0"/>
      <point x="358.8666666666667" y="460.26666666666665" type="curve"/>
      <point x="376.06666666666666" y="481.6" type="line"/>
      <point x="343.1333333333333" y="481.6" type="line"/>
      <point x="357.6" y="438.26666666666665" type="line"/>
      <point x="367.6666666666667" y="515.9333333333333"/>
      <point x="338.8666666666667" y="560.0"/>
      <point x="278.93333333333334" y="560.0" type="curve" smooth="yes"/>
      <point x="222.13333333333333" y="560.0"/>
      <point x="180.86666666666667" y="521.0"/>
      <point x="172.13333333333333" y="460.26666666666665" type="curve"/>
      <point x="185.66666666666666" y="481.6" type="line"/>
      <point x="170.86666666666667" y="481.6" type="line"/>
      <point x="182.13333333333333" y="550.0" type="line"/>
      <point x="112.46666666666667" y="550.0" type="line"/>
    </contour>
  </outline>
</glyph>
<glyph name="o" format="2">
  <advance width="600.0"/>
  <unicode hex="006F"/>
  <anchor x="256.0" y="0.0" name="bottom"/>
  <anchor x="300.0" y="275.0" name="center"/>
  <anchor x="371.8" y="550.0" name="horn"/>
  <anchor x="305.0" y="0.0" name="ogonek"/>
  <anchor x="343.0" y="550.0" name="top"/>
  <anchor x="624.0" y="550.0" name="topright"/>
  <outline>
    <contour>
      <point x="254.0" y="-10.0" type="curve" smooth="yes"/>
      <point x="381.8" y="-10.0"/>
      <point x="474.46666666666664" y="68.73333333333333"/>
      <point x="494.93333333333334" y="197.33333333333334" type="curve" smooth="yes"/>
      <point x="519.7333333333333" y="353.4" type="line" smooth="yes"/>
      <point x="539.4666666666667" y="481.0"/>
      <point x="472.53333333333336" y="560.0"/>
      <point x="345.0" y="560.0" type="curve" smooth="yes"/>
      <point x="217.46666666666667" y="560.0"/>
      <point x="124.53333333333333" y="481.0"/>
      <point x="104.06666666666666" y="352.6666666666667" type="curve" smooth="yes"/>
      <point x="80.0" y="197.33333333333334" type="line" smooth="yes"/>
      <point x="59.53333333333333" y="68.73333333333333"/>
      <point x="126.46666666666667" y="-10.0"/>
    </contour>
    <contour>
      <point x="265.4" y="60.4" type="curve" smooth="yes"/>
      <point x="183.66666666666666" y="60.4"/>
      <point x="144.8" y="108.6"/>
      <point x="159.33333333333334" y="197.33333333333334" type="curve" smooth="yes"/>
      <point x="183.4" y="352.6666666666667" type="line" smooth="yes"/>
      <point x="197.93333333333334" y="441.1333333333333"/>
      <point x="252.13333333333333" y="489.6"/>
      <point x="333.6" y="489.6" type="curve" smooth="yes"/>
      <point x="415.06666666666666" y="489.6"/>
      <point x="454.2" y="441.1333333333333"/>
      <point x="439.6666666666667" y="352.6666666666667" type="curve" smooth="yes"/>
      <point x="415.6" y="197.33333333333334" type="line" smooth="yes"/>
      <point x="401.06666666666666" y="108.6"/>
      <point x="347.1333333333333" y="60.4"/>
    </contour>
  </outline>
</glyph>
<glyph name="p" format="2">
  <advance width="600.0"/>
  <unicode hex="0070"/>
  <anchor x="256.0" y="0.0" name="bottom"/>
  <anchor x="344.0" y="550.0" name="top"/>
  <outline>
    <contour>
      <point x="23.8" y="-180.0" type="line"/>
      <point x="103.13333333333334" y="-180.0" type="line"/>
      <point x="129.93333333333334" y="-14.666666666666668" type="line"/>
      <point x="146.33333333333334" y="97.0" type="line"/>
      <point x="165.8" y="97.0" type="line"/>
      <point x="150.0" y="129.73333333333332" type="line"/>
      <point x="136.73333333333335" y="44.86666666666667"/>
      <point x="189.8" y="-10.0"/>
      <point x="281.6666666666667" y="-10.0" type="curve" smooth="yes"/>
      <point x="392.1333333333333" y="-10.0"/>
      <point x="474.46666666666664" y="68.53333333333333"/>
      <point x="494.2" y="193.66666666666666" type="curve" smooth="yes"/>
      <point x="519.7333333333333" y="357.3333333333333" type="line" smooth="yes"/>
      <point x="539.4666666666667" y="481.73333333333335"/>
      <point x="482.6666666666667" y="560.0"/>
      <point x="372.6666666666667" y="560.0" type="curve" smooth="yes"/>
      <point x="279.8" y="560.0"/>
      <point x="209.2" y="505.8666666666667"/>
      <point x="195.93333333333334" y="420.26666666666665" type="curve"/>
      <point x="224.13333333333333" y="453.0" type="line"/>
      <point x="203.46666666666667" y="453.0" type="line"/>
      <point x="219.13333333333333" y="550.0" type="line"/>
      <point x="139.8" y="550.0" type="line"/>
    </contour>
    <contour>
      <point x="268.4" y="58.666666666666664" type="curve" smooth="yes"/>
      <point x="190.13333333333333" y="58.666666666666664"/>
      <point x="149.8" y="110.06666666666666"/>
      <point x="163.6" y="197.33333333333334" type="curve" smooth="yes"/>
      <point x="187.66666666666666" y="352.93333333333334" type="line" smooth="yes"/>
      <point x="202.2" y="439.93333333333334"/>
      <point x="258.3333333333333" y="491.3333333333333"/>
      <point x="336.6" y="491.3333333333333" type="curve" smooth="yes"/>
      <point x="416.06666666666666" y="491.3333333333333"/>
      <point x="454.2" y="441.4"/>
      <point x="439.6666666666667" y="352.93333333333334" type="curve" smooth="yes"/>
      <point x="415.6" y="197.33333333333334" type="line" smooth="yes"/>
      <point x="401.06666666666666" y="108.6"/>
      <point x="347.8666666666667" y="58.666666666666664"/>
    </contour>
  </outline>
</glyph>
<glyph name="q" format="2">
  <advance width="600.0"/>
  <unicode hex="0071"/>
  <anchor x="256.0" y="0.0" name="bottom"/>
  <anchor x="344.0" y="550.0" name="top"/>
  <outline>
    <contour>
      <point x="350.8666666666667" y="-180.0" type="line"/>
      <point x="430.2" y="-180.0" type="line"/>
      <point x="546.2" y="550.0" type="line"/>
      <point x="466.8666666666667" y="550.0" type="line"/>
      <point x="451.2" y="453.0" type="line"/>
      <point x="430.53333333333336" y="453.0" type="line"/>
      <point x="449.0" y="420.26666666666665" type="line"/>
      <point x="462.26666666666665" y="506.1333333333333"/>
      <point x="410.4" y="560.0"/>
      <point x="318.06666666666666" y="560.0" type="curve" smooth="yes"/>
      <point x="208.06666666666666" y="560.0"/>
      <point x="124.53333333333333" y="481.73333333333335"/>
      <point x="104.8" y="357.3333333333333" type="curve" smooth="yes"/>
      <point x="79.26666666666667" y="193.66666666666666" type="line" smooth="yes"/>
      <point x="59.53333333333333" y="68.53333333333333"/>
      <point x="116.33333333333333" y="-10.0"/>
      <point x="227.06666666666666" y="-10.0" type="curve" smooth="yes"/>
      <point x="318.6666666666667" y="-10.0"/>
      <point x="389.8" y="44.6"/>
      <point x="403.06666666666666" y="129.73333333333332" type="curve"/>
      <point x="377.53333333333336" y="97.0" type="line"/>
      <point x="397.0" y="97.0" type="line"/>
      <point x="376.3333333333333" y="-22.666666666666668" type="line"/>
    </contour>
    <contour>
      <point x="263.1333333333333" y="58.666666666666664" type="curve" smooth="yes"/>
      <point x="183.66666666666666" y="58.666666666666664"/>
      <point x="145.06666666666666" y="108.86666666666667"/>
      <point x="159.33333333333334" y="197.33333333333334" type="curve" smooth="yes"/>
      <point x="183.4" y="352.93333333333334" type="line" smooth="yes"/>
      <point x="197.93333333333334" y="441.4"/>
      <point x="251.86666666666667" y="491.3333333333333"/>
      <point x="331.3333333333333" y="491.3333333333333" type="curve" smooth="yes"/>
      <point x="409.6" y="491.3333333333333"/>
      <point x="449.93333333333334" y="439.93333333333334"/>
      <point x="435.4" y="352.93333333333334" type="curve" smooth="yes"/>
      <point x="411.3333333333333" y="197.33333333333334" type="line" smooth="yes"/>
      <point x="397.8" y="110.33333333333333"/>
      <point x="341.6666666666667" y="58.666666666666664"/>
    </contour>
  </outline>
</glyph>
<glyph name="r" format="2">
  <advance width="600.0"/>
  <unicode hex="0072"/>
  <anchor x="91.0" y="0.0" name="bottom"/>
  <anchor x="363.0" y="550.0" name="top"/>
  <outline>
    <contour>
      <point x="71.26666666666667" y="0.0" type="line"/>
      <point x="150.6" y="0.0" type="line"/>
      <point x="206.13333333333333" y="352.6666666666667" type="line" smooth="yes"/>
      <point x="220.66666666666666" y="441.4"/>
      <point x="276.8" y="492.8"/>
      <point x="356.53333333333336" y="492.8" type="curve" smooth="yes"/>
      <point x="437.0" y="492.8"/>
      <point x="475.1333333333333" y="442.1333333333333"/>
      <point x="460.6" y="352.6666666666667" type="curve" smooth="yes"/>
      <point x="456.3333333333333" y="326.3333333333333" type="line"/>
      <point x="537.0" y="326.3333333333333" type="line"/>
      <point x="542.7333333333333" y="358.53333333333336" type="line" smooth="yes"/>
      <point x="561.7333333333333" y="482.26666666666665"/>
      <point x="501.0" y="560.0"/>
      <point x="384.73333333333335" y="560.0" type="curve" smooth="yes"/>
      <point x="284.26666666666665" y="560.0"/>
      <point x="220.66666666666666" y="500.3333333333333"/>
      <point x="202.73333333333332" y="388.0" type="curve"/>
      <point x="241.73333333333332" y="453.0" type="line"/>
      <point x="220.46666666666667" y="453.0" type="line"/>
      <point x="236.13333333333333" y="550.0" type="line"/>
      <point x="158.26666666666668" y="550.0" type="line"/>
    </contour>
  </outline>
</glyph>
<glyph name="s" format="2">
  <advance width="600.0"/>
  <unicode hex="0073"/>
  <anchor x="258.06666666666666" y="0.0" name="bottom"/>
  <anchor x="344.8" y="550.0" name="top"/>
  <outline>
    <contour>
      <point x="230.4" y="-10.0" type="curve" smooth="yes"/>
      <point x="279.06666666666666" y="-10.0" type="line" smooth="yes"/>
      <point x="402.1333333333333" y="-10.0"/>
      <point x="477.1333333333333" y="51.666666666666664"/>
      <point x="493.6" y="151.0" type="curve" smooth="yes"/>
      <point x="508.06666666666666" y="243.8"/>
      <point x="462.6" y="293.06666666666666"/>
      <point x="355.8666666666667" y="310.2" type="curve" smooth="yes"/>
      <point x="275.8666666666667" y="323.0" type="line" smooth="yes"/>
      <point x="216.4" y="332.26666666666665"/>
      <point x="193.26666666666668" y="356.46666666666664"/>
      <point x="200.53333333333333" y="404.6666666666667" type="curve" smooth="yes"/>
      <point x="208.8" y="458.1333333333333"/>
      <point x="248.66666666666666" y="489.3333333333333"/>
      <point x="318.53333333333336" y="489.3333333333333" type="curve" smooth="yes"/>
      <point x="357.6" y="489.3333333333333" type="line" smooth="yes"/>
      <point x="415.8666666666667" y="489.3333333333333"/>
      <point x="448.6" y="461.6"/>
      <point x="450.53333333333336" y="422.06666666666666" type="curve"/>
      <point x="529.8666666666667" y="422.06666666666666" type="line"/>
      <point x="530.6666666666666" y="505.26666666666665"/>
      <point x="472.6666666666667" y="560.0"/>
      <point x="369.0" y="560.0" type="curve" smooth="yes"/>
      <point x="329.93333333333334" y="560.0" type="line" smooth="yes"/>
      <point x="210.0" y="560.0"/>
      <point x="135.93333333333334" y="501.26666666666665"/>
      <point x="120.93333333333334" y="405.1333333333333" type="curve" smooth="yes"/>
      <point x="106.46666666666667" y="315.3333333333333"/>
      <point x="152.73333333333332" y="268.46666666666664"/>
      <point x="254.0" y="252.53333333333333" type="curve" smooth="yes"/>
      <point x="334.53333333333336" y="239.73333333333332" type="line" smooth="yes"/>
      <point x="393.0" y="230.26666666666668"/>
      <point x="420.8" y="197.73333333333332"/>
      <point x="413.26666666666665" y="148.06666666666666" type="curve" smooth="yes"/>
      <point x="404.73333333333335" y="95.8"/>
      <point x="362.26666666666665" y="60.666666666666664"/>
      <point x="290.73333333333335" y="60.666666666666664" type="curve" smooth="yes"/>
      <point x="242.06666666666666" y="60.666666666666664" type="line" smooth="yes"/>
      <point x="180.4" y="60.666666666666664"/>
      <point x="145.2" y="90.93333333333334"/>
      <point x="143.46666666666667" y="135.0" type="curve"/>
      <point x="64.13333333333334" y="135.0" type="line"/>
      <point x="60.13333333333333" y="47.8"/>
      <point x="120.86666666666666" y="-10.0"/>
    </contour>
  </outline>
</glyph>
<glyph name="t" format="2">
  <advance width="600.0"/>
  <unicode hex="0074"/>
  <anchor x="316.0" y="0.0" name="bottom"/>
  <anchor x="300.0" y="275.0" name="center"/>
  <anchor x="375.0" y="700.0" name="top"/>
  <anchor x="624.0" y="550.0" name="topright"/>
  <outline>
    <contour>
      <point x="316.0" y="0.0" type="curve" smooth="yes"/>
      <point x="462.0" y="0.0" type="line"/>
      <point x="473.4" y="72.13333333333333" type="line"/>
      <point x="327.4" y="72.13333333333333" type="line" smooth="yes"/>
      <point x="283.46666666666664" y="72.13333333333333"/>
      <point x="265.6" y="94.26666666666667"/>
      <point x="272.8666666666667" y="139.66666666666666" type="curve" smooth="yes"/>
      <point x="326.26666666666665" y="477.8666666666667" type="line"/>
      <point x="547.6" y="477.8666666666667" type="line"/>
      <point x="559.0" y="550.0" type="line"/>
      <point x="337.6666666666667" y="550.0" type="line"/>
      <point x="361.6666666666667" y="700.0" type="line"/>
      <point x="282.3333333333333" y="700.0" type="line"/>
      <point x="258.3333333333333" y="550.0" type="line"/>
      <point x="102.0" y="550.0" type="line"/>
      <point x="90.6" y="477.8666666666667" type="line"/>
      <point x="246.93333333333334" y="477.8666666666667" type="line"/>
      <point x="193.53333333333333" y="139.66666666666666" type="line" smooth="yes"/>
      <point x="179.06666666666666" y="50.6"/>
      <point x="223.93333333333334" y="0.0"/>
    </contour>
  </outline>
</glyph>
<glyph name="u" format="2">
  <advance width="600.0"/>
  <unicode hex="0075"/>
  <anchor x="256.0" y="0.0" name="bottom"/>
  <anchor x="460.3333333333333" y="550.0" name="horn"/>
  <anchor x="305.0" y="0.0" name="ogonek"/>
  <anchor x="343.0" y="550.0" name="top"/>
  <anchor x="624.0" y="550.0" name="topright"/>
  <outline>
    <contour>
      <point x="253.0" y="-10.0" type="curve" smooth="yes"/>
      <point x="378.1333333333333" y="-10.0"/>
      <point x="472.93333333333334" y="70.2"/>
      <point x="492.93333333333334" y="198.4" type="curve" smooth="yes"/>
      <point x="548.2" y="550.0" type="line"/>
      <point x="468.8666666666667" y="550.0" type="line"/>
      <point x="413.6" y="198.4" type="line" smooth="yes"/>
      <point x="399.8" y="110.86666666666667"/>
      <point x="343.4" y="59.93333333333334"/>
      <point x="264.6666666666667" y="59.93333333333334" type="curve" smooth="yes"/>
      <point x="186.93333333333334" y="59.93333333333334"/>
      <point x="148.06666666666666" y="110.86666666666667"/>
      <point x="161.86666666666667" y="198.4" type="curve" smooth="yes"/>
      <point x="217.13333333333333" y="550.0" type="line"/>
      <point x="137.8" y="550.0" type="line"/>
      <point x="82.53333333333333" y="198.4" type="line" smooth="yes"/>
      <point x="62.53333333333333" y="69.93333333333334"/>
      <point x="128.13333333333333" y="-10.0"/>
    </contour>
  </outline>
</glyph>
<glyph name="v" format="2">
  <advance width="600.0"/>
  <unicode hex="0076"/>
  <anchor x="256.0" y="0.0" name="bottom"/>
  <anchor x="344.0" y="550.0" name="top"/>
  <outline>
    <contour>
      <point x="203.0" y="0.0" type="line"/>
      <point x="309.0" y="0.0" type="line"/>
      <point x="578.7333333333333" y="550.0" type="line"/>
      <point x="495.4" y="550.0" type="line"/>
      <point x="314.8666666666667" y="169.33333333333334" type="line" smooth="yes"/>
      <point x="294.4" y="127.46666666666667"/>
      <point x="273.6666666666667" y="82.73333333333333"/>
      <point x="264.4" y="60.46666666666667" type="curve"/>
      <point x="261.4" y="82.73333333333333"/>
      <point x="255.6" y="127.46666666666667"/>
      <point x="248.86666666666667" y="169.33333333333334" type="curve" smooth="yes"/>
      <point x="185.6" y="550.0" type="line"/>
      <point x="107.26666666666667" y="550.0" type="line"/>
    </contour>
  </outline>
</glyph>
<glyph name="w" format="2">
  <advance width="600.0"/>
  <unicode hex="0077"/>
  <anchor x="256.0" y="0.0" name="bottom"/>
  <anchor x="343.0" y="550.0" name="top"/>
  <outline>
    <contour>
      <point x="84.33333333333333" y="0.0" type="line"/>
      <point x="174.53333333333333" y="0.0" type="line"/>
      <point x="299.73333333333335" y="382.93333333333334" type="line" smooth="yes"/>
      <point x="311.73333333333335" y="419.6666666666667"/>
      <point x="325.8" y="464.06666666666666"/>
      <point x="332.6" y="487.2" type="curve"/>
      <point x="332.8666666666667" y="464.06666666666666"/>
      <point x="332.8666666666667" y="419.6666666666667"/>
      <point x="333.1333333333333" y="382.93333333333334" type="curve" smooth="yes"/>
      <point x="334.26666666666665" y="0.0" type="line"/>
      <point x="424.46666666666664" y="0.0" type="line"/>
      <point x="604.0" y="550.0" type="line"/>
      <point x="535.4666666666667" y="550.0" type="line"/>
      <point x="412.73333333333335" y="154.93333333333334" type="line" smooth="yes"/>
      <point x="403.46666666666664" y="125.66666666666667"/>
      <point x="391.46666666666664" y="84.26666666666667"/>
      <point x="384.46666666666664" y="60.666666666666664" type="curve"/>
      <point x="385.46666666666664" y="84.26666666666667"/>
      <point x="384.73333333333335" y="125.66666666666667"/>
      <point x="384.46666666666664" y="154.66666666666666" type="curve" smooth="yes"/>
      <point x="381.2" y="550.0" type="line"/>
      <point x="303.06666666666666" y="550.0" type="line"/>
      <point x="173.46666666666667" y="154.66666666666666" type="line" smooth="yes"/>
      <point x="164.2" y="125.66666666666667"/>
      <point x="151.4" y="84.26666666666667"/>
      <point x="144.4" y="60.666666666666664" type="curve"/>
      <point x="145.4" y="84.26666666666667"/>
      <point x="145.66666666666666" y="125.66666666666667"/>
      <point x="146.4" y="154.93333333333334" type="curve" smooth="yes"/>
      <point x="150.73333333333332" y="550.0" type="line"/>
      <point x="82.0" y="550.0" type="line"/>
    </contour>
  </outline>
</glyph>
<glyph name="x" format="2">
  <advance width="600.0"/>
  <unicode hex="0078"/>
  <anchor x="256.0" y="0.0" name="bottom"/>
  <anchor x="344.0" y="550.0" name="top"/>
  <outline>
    <contour>
      <point x="16.333333333333332" y="0.0" type="line"/>
      <point x="110.8" y="0.0" type="line"/>
      <point x="261.3333333333333" y="188.0" type="line" smooth="yes"/>
      <point x="272.8" y="202.2"/>
      <point x="286.06666666666666" y="222.86666666666667"/>
      <point x="293.8" y="234.06666666666666" type="curve"/>
      <point x="298.06666666666666" y="222.86666666666667"/>
      <point x="306.6" y="202.2"/>
      <point x="313.3333333333333" y="188.0" type="curve" smooth="yes"/>
      <point x="404.73333333333335" y="0.0" type="line"/>
      <point x="495.6666666666667" y="0.0" type="line"/>
      <point x="349.8" y="279.53333333333336" type="line"/>
      <point x="571.6666666666666" y="550.0" type="line"/>
      <point x="476.93333333333334" y="550.0" type="line"/>
      <point x="337.4" y="372.0" type="line" smooth="yes"/>
      <point x="327.2" y="358.3333333333333"/>
      <point x="315.2" y="340.1333333333333"/>
      <point x="308.93333333333334" y="329.6666666666667" type="curve"/>
      <point x="305.4" y="340.1333333333333"/>
      <point x="297.6666666666667" y="358.06666666666666"/>
      <point x="290.93333333333334" y="372.0" type="curve" smooth="yes"/>
      <point x="206.53333333333333" y="550.0" type="line"/>
      <point x="115.33333333333333" y="550.0" type="line"/>
      <point x="253.2" y="285.2" type="line"/>
    </contour>
  </outline>
</glyph>
<glyph name="y" format="2">
  <advance width="600.0"/>
  <unicode hex="0079"/>
  <anchor x="256.0" y="0.0" name="bottom"/>
  <anchor x="343.0" y="550.0" name="top"/>
  <outline>
    <contour>
      <point x="91.06666666666666" y="-180.0" type="line"/>
      <point x="257.3333333333333" y="-180.0" type="line" smooth="yes"/>
      <point x="366.4" y="-180.0"/>
      <point x="439.53333333333336" y="-120.33333333333333"/>
      <point x="455.3333333333333" y="-18.666666666666668" type="curve" smooth="yes"/>
      <point x="545.8" y="550.0" type="line"/>
      <point x="466.46666666666664" y="550.0" type="line"/>
      <point x="418.93333333333334" y="247.33333333333334" type="line" smooth="yes"/>
      <point x="405.4" y="159.13333333333333"/>
      <point x="347.73333333333335" y="107.2"/>
      <point x="269.26666666666665" y="107.2" type="curve" smooth="yes"/>
      <point x="193.53333333333333" y="107.2"/>
      <point x="153.93333333333334" y="156.4"/>
      <point x="167.73333333333335" y="240.0" type="curve" smooth="yes"/>
      <point x="216.73333333333335" y="550.0" type="line"/>
      <point x="137.4" y="550.0" type="line"/>
      <point x="86.66666666666667" y="230.8" type="line" smooth="yes"/>
      <point x="67.66666666666667" y="113.53333333333333"/>
      <point x="127.4" y="40.0"/>
      <point x="236.86666666666667" y="40.0" type="curve" smooth="yes"/>
      <point x="330.46666666666664" y="40.0"/>
      <point x="395.8666666666667" y="92.93333333333334"/>
      <point x="410.1333333333333" y="181.33333333333334" type="curve"/>
      <point x="383.8666666666667" y="152.33333333333334" type="line"/>
      <point x="403.93333333333334" y="152.33333333333334" type="line"/>
      <point x="387.46666666666664" y="53.666666666666664" type="line"/>
      <point x="376.0" y="-18.666666666666668" type="line" smooth="yes"/>
      <point x="366.6666666666667" y="-79.33333333333333"/>
      <point x="331.8666666666667" y="-107.86666666666667"/>
      <point x="269.73333333333335" y="-107.86666666666667" type="curve" smooth="yes"/>
      <point x="102.73333333333333" y="-107.86666666666667" type="line"/>
    </contour>
  </outline>
</glyph>
<glyph name="z" format="2">
  <advance width="600.0"/>
  <unicode hex="007A"/>
  <anchor x="256.0" y="0.0" name="bottom"/>
  <anchor x="300.0" y="275.0" name="center"/>
  <anchor x="343.0" y="550.0" name="top"/>
  <outline>
    <contour>
      <point x="49.46666666666667" y="0.0" type="line"/>
      <point x="462.53333333333336" y="0.0" type="line"/>
      <point x="473.93333333333334" y="72.13333333333333" type="line"/>
      <point x="148.93333333333334" y="72.13333333333333" type="line"/>
      <point x="525.8666666666667" y="471.46666666666664" type="line"/>
      <point x="538.0" y="550.0" type="line"/>
      <point x="144.73333333333332" y="550.0" type="line"/>
      <point x="133.33333333333334" y="477.8666666666667" type="line"/>
      <point x="433.8666666666667" y="477.8666666666667" type="line"/>
      <point x="61.6" y="78.26666666666667" type="line"/>
    </contour>
  </outline>
</glyph>
<glyph name="braceleft" format="2">
  <advance width="600.0"/>
  <unicode hex="007B"/>
  <outline>
    <contour>
      <point x="402.3333333333333" y="-110.0" type="curve" smooth="yes"/>
      <point x="450.0" y="-110.0" type="line"/>
      <point x="460.6666666666667" y="-39.333333333333336" type="line"/>
      <point x="413.0" y="-39.333333333333336" type="line" smooth="yes"/>
      <point x="350.26666666666665" y="-39.333333333333336"/>
      <point x="318.4" y="-7.4"/>
      <point x="331.2" y="51.733333333333334" type="curve" smooth="yes"/>
      <point x="370.1333333333333" y="224.53333333333333" type="line" smooth="yes"/>
      <point x="388.1333333333333" y="307.8666666666667"/>
      <point x="347.73333333333335" y="363.26666666666665"/>
      <point x="268.26666666666665" y="363.26666666666665" type="curve"/>
      <point x="268.0" y="357.73333333333335" type="line"/>
      <point x="348.2" y="357.73333333333335"/>
      <point x="404.3333333333333" y="411.4"/>
      <point x="412.53333333333336" y="495.2" type="curve" smooth="yes"/>
      <point x="428.8" y="668.2666666666667" type="line" smooth="yes"/>
      <point x="434.53333333333336" y="727.4"/>
      <point x="476.93333333333334" y="759.3333333333334"/>
      <point x="539.6666666666666" y="759.3333333333334" type="curve" smooth="yes"/>
      <point x="587.3333333333334" y="759.3333333333334" type="line"/>
      <point x="598.0" y="830.0" type="line"/>
      <point x="550.3333333333334" y="830.0" type="line" smooth="yes"/>
      <point x="438.2" y="830.0"/>
      <point x="359.6666666666667" y="770.6"/>
      <point x="349.46666666666664" y="668.2666666666667" type="curve" smooth="yes"/>
      <point x="333.2" y="495.2" type="line" smooth="yes"/>
      <point x="326.73333333333335" y="423.4"/>
      <point x="303.1333333333333" y="395.2"/>
      <point x="217.46666666666667" y="395.2" type="curve" smooth="yes"/>
      <point x="107.46666666666667" y="395.2" type="line"/>
      <point x="96.53333333333333" y="324.26666666666665" type="line"/>
      <point x="206.53333333333333" y="324.26666666666665" type="line" smooth="yes"/>
      <point x="292.53333333333336" y="324.26666666666665"/>
      <point x="306.06666666666666" y="295.53333333333336"/>
      <point x="290.8" y="224.53333333333333" type="curve" smooth="yes"/>
      <point x="251.86666666666667" y="51.733333333333334" type="line" smooth="yes"/>
      <point x="229.13333333333333" y="-50.6"/>
      <point x="290.2" y="-110.0"/>
    </contour>
  </outline>
</glyph>
<glyph name="bar" format="2">
  <advance width="600.0"/>
  <unicode hex="007C"/>
  <outline>
    <contour>
      <point x="199.33333333333334" y="-110.0" type="line"/>
      <point x="278.6666666666667" y="-110.0" type="line"/>
      <point x="426.6666666666667" y="830.0" type="line"/>
      <point x="347.3333333333333" y="830.0" type="line"/>
    </contour>
  </outline>
</glyph>
<glyph name="braceright" format="2">
  <advance width="600.0"/>
  <unicode hex="007D"/>
  <outline>
    <contour>
      <point x="28.0" y="-110.0" type="line"/>
      <point x="75.4" y="-110.0" type="line" smooth="yes"/>
      <point x="187.53333333333333" y="-110.0"/>
      <point x="266.06666666666666" y="-50.6"/>
      <point x="276.26666666666665" y="51.733333333333334" type="curve" smooth="yes"/>
      <point x="292.8" y="224.53333333333333" type="line" smooth="yes"/>
      <point x="299.53333333333336" y="295.53333333333336"/>
      <point x="322.53333333333336" y="324.26666666666665"/>
      <point x="408.53333333333336" y="324.26666666666665" type="curve" smooth="yes"/>
      <point x="518.5333333333333" y="324.26666666666665" type="line"/>
      <point x="529.4666666666667" y="395.2" type="line"/>
      <point x="419.46666666666664" y="395.2" type="line" smooth="yes"/>
      <point x="333.8" y="395.2"/>
      <point x="319.93333333333334" y="423.4"/>
      <point x="335.2" y="495.2" type="curve" smooth="yes"/>
      <point x="373.8666666666667" y="668.2666666666667" type="line" smooth="yes"/>
      <point x="396.6" y="770.6"/>
      <point x="335.53333333333336" y="830.0"/>
      <point x="223.4" y="830.0" type="curve" smooth="yes"/>
      <point x="176.0" y="830.0" type="line"/>
      <point x="165.33333333333334" y="759.3333333333334" type="line"/>
      <point x="212.73333333333332" y="759.3333333333334" type="line" smooth="yes"/>
      <point x="275.46666666666664" y="759.3333333333334"/>
      <point x="307.3333333333333" y="727.4"/>
      <point x="294.53333333333336" y="668.2666666666667" type="curve" smooth="yes"/>
      <point x="255.86666666666667" y="495.2" type="line" smooth="yes"/>
      <point x="237.4" y="411.4"/>
      <point x="277.8" y="357.73333333333335"/>
      <point x="358.0" y="357.73333333333335" type="curve"/>
      <point x="358.26666666666665" y="363.26666666666665" type="line"/>
      <point x="278.8" y="363.26666666666665"/>
      <point x="221.2" y="307.8666666666667"/>
      <point x="213.46666666666667" y="224.53333333333333" type="curve" smooth="yes"/>
      <point x="196.93333333333334" y="51.733333333333334" type="line" smooth="yes"/>
      <point x="191.2" y="-7.4"/>
      <point x="148.8" y="-39.333333333333336"/>
      <point x="86.06666666666666" y="-39.333333333333336" type="curve" smooth="yes"/>
      <point x="38.666666666666664" y="-39.333333333333336" type="line"/>
    </contour>
  </outline>
</glyph>
<glyph name="asciitilde" format="2">
  <advance width="600.0"/>
  <unicode hex="007E"/>
  <outline>
    <contour>
      <point x="71.6" y="256.3333333333333" type="line"/>
      <point x="145.93333333333334" y="256.3333333333333" type="line"/>
      <point x="157.2" y="327.6666666666667" type="line" smooth="yes"/>
      <point x="163.46666666666667" y="365.53333333333336"/>
      <point x="185.06666666666666" y="386.1333333333333"/>
      <point x="217.2" y="386.1333333333333" type="curve" smooth="yes"/>
      <point x="289.73333333333335" y="386.1333333333333"/>
      <point x="275.26666666666665" y="252.66666666666666"/>
      <point x="398.93333333333334" y="252.66666666666666" type="curve" smooth="yes"/>
      <point x="472.93333333333334" y="252.66666666666666"/>
      <point x="528.6666666666666" y="302.46666666666664"/>
      <point x="540.4" y="377.3333333333333" type="curve" smooth="yes"/>
      <point x="551.4" y="448.6666666666667" type="line"/>
      <point x="477.06666666666666" y="448.6666666666667" type="line"/>
      <point x="466.06666666666666" y="377.3333333333333" type="line" smooth="yes"/>
      <point x="459.8" y="339.46666666666664"/>
      <point x="438.73333333333335" y="318.8666666666667"/>
      <point x="407.4" y="318.8666666666667" type="curve" smooth="yes"/>
      <point x="333.8" y="318.8666666666667"/>
      <point x="348.46666666666664" y="452.3333333333333"/>
      <point x="226.13333333333333" y="452.3333333333333" type="curve" smooth="yes"/>
      <point x="151.6" y="452.3333333333333"/>
      <point x="95.33333333333333" y="403.0"/>
      <point x="82.86666666666666" y="327.6666666666667" type="curve" smooth="yes"/>
    </contour>
  </outline>
</glyph>
<glyph name="exclamdown" format="2">
  <advance width="600.0"/>
  <unicode hex="00A1"/>
  <outline>
    <contour>
      <point x="180.66666666666666" y="-180.0" type="line"/>
      <point x="274.93333333333334" y="-180.0" type="line"/>
      <point x="296.53333333333336" y="-45.666666666666664" type="line"/>
      <point x="337.8" y="338.4" type="line"/>
      <point x="282.8666666666667" y="338.4" type="line"/>
      <point x="202.26666666666665" y="-45.666666666666664" type="line"/>
    </contour>
    <contour>
      <point x="317.1333333333333" y="438.4" type="curve" smooth="yes"/>
      <point x="333.1333333333333" y="438.4" type="line" smooth="yes"/>
      <point x="370.53333333333336" y="438.4"/>
      <point x="399.46666666666664" y="462.6"/>
      <point x="405.2" y="498.53333333333336" type="curve" smooth="yes"/>
      <point x="410.93333333333334" y="533.7333333333333"/>
      <point x="389.26666666666665" y="555.7333333333333"/>
      <point x="351.8666666666667" y="555.7333333333333" type="curve" smooth="yes"/>
      <point x="335.8666666666667" y="555.7333333333333" type="line" smooth="yes"/>
      <point x="298.46666666666664" y="555.7333333333333"/>
      <point x="269.53333333333336" y="533.0"/>
      <point x="264.53333333333336" y="497.8" type="curve" smooth="yes"/>
      <point x="258.8" y="462.6"/>
      <point x="279.73333333333335" y="438.4"/>
    </contour>
  </outline>
</glyph>
<glyph name="cent" format="2">
  <advance width="600.0"/>
  <unicode hex="00A2"/>
  <anchor x="259.46666666666664" y="0.0" name="bottom"/>
  <anchor x="346.46666666666664" y="550.0" name="top"/>
  <outline>
    <contour>
      <point x="215.6" y="-140.0" type="line"/>
      <point x="270.26666666666665" y="-140.0" type="line"/>
      <point x="401.26666666666665" y="690.0" type="line"/>
      <point x="346.6" y="690.0" type="line"/>
    </contour>
    <component base="c"/>
  </outline>
</glyph>
<glyph name="sterling" format="2">
  <advance width="600.0"/>
  <unicode hex="00A3"/>
  <outline>
    <contour>
      <point x="31.0" y="0.0" type="line"/>
      <point x="491.0" y="0.0" type="line"/>
      <point x="502.4" y="70.66666666666667" type="line"/>
      <point x="123.06666666666666" y="70.66666666666667" type="line"/>
      <point x="175.93333333333334" y="100.0"/>
      <point x="252.33333333333334" y="169.86666666666667"/>
      <point x="266.06666666666666" y="255.53333333333333" type="curve" smooth="yes"/>
      <point x="290.0" y="406.53333333333336"/>
      <point x="197.33333333333334" y="439.6"/>
      <point x="214.13333333333333" y="548.6666666666666" type="curve" smooth="yes"/>
      <point x="226.2" y="624.8"/>
      <point x="280.6666666666667" y="669.3333333333334"/>
      <point x="361.3333333333333" y="669.3333333333334" type="curve" smooth="yes"/>
      <point x="442.3333333333333" y="669.3333333333334"/>
      <point x="487.06666666666666" y="623.1333333333333"/>
      <point x="475.26666666666665" y="550.0" type="curve"/>
      <point x="558.2666666666667" y="550.0" type="line"/>
      <point x="575.2666666666667" y="668.4666666666667"/>
      <point x="504.73333333333335" y="740.0"/>
      <point x="373.0" y="740.0" type="curve" smooth="yes"/>
      <point x="244.93333333333334" y="740.0"/>
      <point x="153.06666666666666" y="667.4666666666667"/>
      <point x="134.8" y="552.6" type="curve" smooth="yes"/>
      <point x="114.8" y="425.53333333333336"/>
      <point x="207.26666666666668" y="391.06666666666666"/>
      <point x="184.53333333333333" y="248.93333333333334" type="curve" smooth="yes"/>
      <point x="175.46666666666667" y="190.93333333333334"/>
      <point x="99.73333333333333" y="122.33333333333333"/>
      <point x="44.86666666666667" y="86.66666666666667" type="curve"/>
    </contour>
    <contour>
      <point x="79.8" y="309.0" type="line"/>
      <point x="439.8" y="309.0" type="line"/>
      <point x="451.2" y="379.6666666666667" type="line"/>
      <point x="91.2" y="379.6666666666667" type="line"/>
    </contour>
  </outline>
</glyph>
<glyph name="currency" format="2">
  <advance width="600.0"/>
  <unicode hex="00A4"/>
  <outline>
    <contour>
      <point x="474.73333333333335" y="117.53333333333333" type="line"/>
      <point x="537.2" y="171.6" type="line"/>
      <point x="442.6666666666667" y="283.3333333333333" type="line"/>
      <point x="450.3333333333333" y="240.2" type="line"/>
      <point x="485.4" y="276.2"/>
      <point x="509.93333333333334" y="321.46666666666664"/>
      <point x="518.9333333333333" y="373.0" type="curve" smooth="yes"/>
      <point x="527.9333333333333" y="424.8"/>
      <point x="516.8666666666667" y="471.06666666666666"/>
      <point x="492.3333333333333" y="506.53333333333336" type="curve"/>
      <point x="476.0" y="462.6666666666667" type="line"/>
      <point x="599.8" y="569.2666666666667" type="line"/>
      <point x="552.4666666666667" y="624.8" type="line"/>
      <point x="427.6666666666667" y="516.7333333333333" type="line"/>
      <point x="473.26666666666665" y="526.4" type="line"/>
      <point x="443.0" y="556.4"/>
      <point x="400.0" y="573.6666666666666"/>
      <point x="347.73333333333335" y="573.6666666666666" type="curve" smooth="yes"/>
      <point x="297.93333333333334" y="573.6666666666666"/>
      <point x="250.13333333333333" y="557.8666666666667"/>
      <point x="212.6" y="529.8" type="curve"/>
      <point x="253.26666666666668" y="514.9333333333333" type="line"/>
      <point x="156.73333333333332" y="629.9333333333333" type="line"/>
      <point x="94.0" y="575.8666666666667" type="line"/>
      <point x="188.8" y="462.6" type="line"/>
      <point x="182.33333333333334" y="505.73333333333335" type="line"/>
      <point x="144.86666666666667" y="470.26666666666665"/>
      <point x="120.6" y="425.0"/>
      <point x="111.6" y="373.0" type="curve" smooth="yes"/>
      <point x="102.6" y="320.46666666666664"/>
      <point x="115.13333333333334" y="273.73333333333335"/>
      <point x="139.86666666666667" y="239.93333333333334" type="curve"/>
      <point x="155.0" y="283.3333333333333" type="line"/>
      <point x="31.933333333333334" y="175.53333333333333" type="line"/>
      <point x="78.8" y="118.53333333333333" type="line"/>
      <point x="205.06666666666666" y="226.6" type="line"/>
      <point x="160.2" y="218.4" type="line"/>
      <point x="189.93333333333334" y="189.13333333333333"/>
      <point x="232.73333333333332" y="172.33333333333334"/>
      <point x="284.26666666666665" y="172.33333333333334" type="curve" smooth="yes"/>
      <point x="333.8" y="172.33333333333334"/>
      <point x="382.06666666666666" y="187.86666666666667"/>
      <point x="419.8666666666667" y="216.86666666666667" type="curve"/>
      <point x="379.2" y="231.0" type="line"/>
    </contour>
    <contour>
      <point x="294.2" y="235.73333333333332" type="curve" smooth="yes"/>
      <point x="216.8" y="235.73333333333332"/>
      <point x="167.46666666666667" y="294.6"/>
      <point x="179.73333333333332" y="373.0" type="curve" smooth="yes"/>
      <point x="192.26666666666668" y="451.4"/>
      <point x="260.4" y="510.26666666666665"/>
      <point x="337.8" y="510.26666666666665" type="curve" smooth="yes"/>
      <point x="414.46666666666664" y="510.26666666666665"/>
      <point x="463.3333333333333" y="451.4"/>
      <point x="450.8" y="373.0" type="curve" smooth="yes"/>
      <point x="438.53333333333336" y="294.6"/>
      <point x="370.8666666666667" y="235.73333333333332"/>
    </contour>
  </outline>
</glyph>
<glyph name="yen" format="2">
  <advance width="600.0"/>
  <unicode hex="00A5"/>
  <anchor x="256.0" y="0.0" name="bottom"/>
  <anchor x="372.0" y="730.0" name="top"/>
  <anchor x="92.0" y="730.0" name="topleft"/>
  <outline>
    <contour>
      <point x="59.0" y="270.0" type="line"/>
      <point x="539.0" y="270.0" type="line"/>
      <point x="549.9333333333333" y="338.3333333333333" type="line"/>
      <point x="69.93333333333334" y="338.3333333333333" type="line"/>
    </contour>
    <contour>
      <point x="36.06666666666667" y="126.66666666666667" type="line"/>
      <point x="516.0666666666667" y="126.66666666666667" type="line"/>
      <point x="527.0" y="195.0" type="line"/>
      <point x="47.0" y="195.0" type="line"/>
    </contour>
    <component base="Y"/>
  </outline>
</glyph>
<glyph name="brokenbar" format="2">
  <advance width="600.0"/>
  <unicode hex="00A6"/>
  <outline>
    <contour>
      <point x="287.3333333333333" y="450.0" type="line"/>
      <point x="366.6666666666667" y="450.0" type="line"/>
      <point x="426.6666666666667" y="830.0" type="line"/>
      <point x="347.3333333333333" y="830.0" type="line"/>
    </contour>
    <contour>
      <point x="199.33333333333334" y="-110.0" type="line"/>
      <point x="278.6666666666667" y="-110.0" type="line"/>
      <point x="338.6666666666667" y="270.0" type="line"/>
      <point x="259.3333333333333" y="270.0" type="line"/>
    </contour>
  </outline>
</glyph>
<glyph name="section" format="2">
  <advance width="600.0"/>
  <unicode hex="00A7"/>
  <outline>
    <contour>
      <point x="213.26666666666668" y="-154.26666666666668" type="curve" smooth="yes"/>
      <point x="253.13333333333333" y="-154.26666666666668" type="line" smooth="yes"/>
      <point x="376.4" y="-154.26666666666668"/>
      <point x="460.46666666666664" y="-90.06666666666666"/>
      <point x="476.2" y="11.533333333333333" type="curve" smooth="yes"/>
      <point x="492.4" y="109.26666666666667"/>
      <point x="426.2" y="153.33333333333334"/>
      <point x="372.6666666666667" y="158.73333333333332" type="curve"/>
      <point x="373.6666666666667" y="164.93333333333334" type="line"/>
      <point x="449.6666666666667" y="168.66666666666666"/>
      <point x="510.0" y="229.4"/>
      <point x="521.7333333333333" y="305.06666666666666" type="curve" smooth="yes"/>
      <point x="534.7333333333333" y="386.06666666666666"/>
      <point x="486.53333333333336" y="446.8"/>
      <point x="398.0" y="466.8" type="curve" smooth="yes"/>
      <point x="307.0" y="487.4" type="line" smooth="yes"/>
      <point x="247.4" y="501.2"/>
      <point x="216.13333333333333" y="535.5333333333333"/>
      <point x="223.66666666666666" y="581.7333333333333" type="curve" smooth="yes"/>
      <point x="231.46666666666667" y="635.2"/>
      <point x="279.6" y="669.3333333333334"/>
      <point x="349.46666666666664" y="669.3333333333334" type="curve" smooth="yes"/>
      <point x="382.6666666666667" y="669.3333333333334" type="line" smooth="yes"/>
      <point x="439.46666666666664" y="669.3333333333334"/>
      <point x="477.3333333333333" y="640.1333333333333"/>
      <point x="480.26666666666665" y="597.6666666666666" type="curve"/>
      <point x="563.2666666666667" y="597.6666666666666" type="line"/>
      <point x="564.0666666666667" y="683.0666666666667"/>
      <point x="497.0" y="740.0"/>
      <point x="393.3333333333333" y="740.0" type="curve" smooth="yes"/>
      <point x="360.1333333333333" y="740.0" type="line" smooth="yes"/>
      <point x="240.2" y="740.0"/>
      <point x="158.06666666666666" y="678.3333333333334"/>
      <point x="143.33333333333334" y="582.2" type="curve" smooth="yes"/>
      <point x="127.13333333333333" y="482.3333333333333"/>
      <point x="189.73333333333332" y="442.46666666666664"/>
      <point x="241.86666666666667" y="440.53333333333336" type="curve"/>
      <point x="240.86666666666667" y="434.3333333333333" type="line"/>
      <point x="167.2" y="424.1333333333333"/>
      <point x="105.4" y="364.2"/>
      <point x="93.66666666666667" y="289.53333333333336" type="curve" smooth="yes"/>
      <point x="81.4" y="210.46666666666667"/>
      <point x="130.33333333333334" y="147.06666666666666"/>
      <point x="220.06666666666666" y="128.0" type="curve" smooth="yes"/>
      <point x="312.8" y="107.4" type="line" smooth="yes"/>
      <point x="374.4" y="93.66666666666667"/>
      <point x="404.4" y="57.86666666666667"/>
      <point x="396.1333333333333" y="7.2" type="curve" smooth="yes"/>
      <point x="387.6" y="-47.733333333333334"/>
      <point x="339.26666666666665" y="-83.6"/>
      <point x="264.06666666666666" y="-83.6" type="curve" smooth="yes"/>
      <point x="224.2" y="-83.6" type="line" smooth="yes"/>
      <point x="164.73333333333335" y="-83.6"/>
      <point x="123.66666666666667" y="-50.4"/>
      <point x="119.73333333333333" y="-2.6666666666666665" type="curve"/>
      <point x="36.733333333333334" y="-2.6666666666666665" type="line"/>
      <point x="35.666666666666664" y="-92.8"/>
      <point x="106.66666666666667" y="-154.26666666666668"/>
    </contour>
    <contour>
      <point x="315.8" y="181.26666666666668" type="curve" smooth="yes"/>
      <point x="244.13333333333333" y="196.8" type="line" smooth="yes"/>
      <point x="193.8" y="207.66666666666666"/>
      <point x="167.2" y="248.73333333333332"/>
      <point x="176.2" y="300.8" type="curve" smooth="yes"/>
      <point x="186.73333333333332" y="370.6666666666667"/>
      <point x="244.2" y="426.3333333333333"/>
      <point x="302.0" y="413.53333333333336" type="curve" smooth="yes"/>
      <point x="373.0" y="398.0" type="line" smooth="yes"/>
      <point x="421.4" y="387.2"/>
      <point x="448.46666666666664" y="346.26666666666665"/>
      <point x="440.2" y="296.3333333333333" type="curve" smooth="yes"/>
      <point x="428.93333333333334" y="224.53333333333333"/>
      <point x="373.6" y="168.46666666666667"/>
    </contour>
  </outline>
</glyph>
<glyph name="copyright" format="2">
  <advance width="600.0"/>
  <unicode hex="00A9"/>
  <outline>
    <contour>
      <point x="273.0" y="110.0" type="curve" smooth="yes"/>
      <point x="424.93333333333334" y="110.0"/>
      <point x="541.8666666666667" y="205.73333333333332"/>
      <point x="564.1333333333333" y="350.0" type="curve" smooth="yes"/>
      <point x="588.1333333333333" y="500.0" type="line" smooth="yes"/>
      <point x="611.1333333333333" y="644.2666666666667"/>
      <point x="524.9333333333333" y="740.0"/>
      <point x="373.0" y="740.0" type="curve" smooth="yes"/>
      <point x="221.06666666666666" y="740.0"/>
      <point x="104.86666666666666" y="644.2666666666667"/>
      <point x="81.86666666666666" y="500.0" type="curve" smooth="yes"/>
      <point x="57.86666666666667" y="350.0" type="line" smooth="yes"/>
      <point x="35.6" y="205.73333333333332"/>
      <point x="121.06666666666666" y="110.0"/>
    </contour>
    <contour>
      <point x="280.46666666666664" y="156.8" type="curve" smooth="yes"/>
      <point x="160.66666666666666" y="156.8"/>
      <point x="91.4" y="234.13333333333333"/>
      <point x="109.66666666666667" y="350.0" type="curve" smooth="yes"/>
      <point x="133.66666666666666" y="500.0" type="line" smooth="yes"/>
      <point x="151.93333333333334" y="615.8666666666667"/>
      <point x="245.73333333333332" y="693.2"/>
      <point x="365.53333333333336" y="693.2" type="curve" smooth="yes"/>
      <point x="486.06666666666666" y="693.2"/>
      <point x="554.6" y="615.8666666666667"/>
      <point x="536.3333333333334" y="500.0" type="curve" smooth="yes"/>
      <point x="512.3333333333334" y="350.0" type="line" smooth="yes"/>
      <point x="494.06666666666666" y="234.13333333333333"/>
      <point x="401.0" y="156.8"/>
    </contour>
    <contour>
      <point x="300.0" y="245.0" type="curve" smooth="yes"/>
      <point x="372.4" y="245.0"/>
      <point x="428.3333333333333" y="291.0"/>
      <point x="439.3333333333333" y="360.0" type="curve"/>
      <point x="379.6666666666667" y="360.0" type="line"/>
      <point x="373.4" y="321.6"/>
      <point x="344.8" y="296.0"/>
      <point x="308.2" y="296.0" type="curve" smooth="yes"/>
      <point x="270.6" y="296.0"/>
      <point x="249.06666666666666" y="321.6"/>
      <point x="255.33333333333334" y="360.0" type="curve" smooth="yes"/>
      <point x="276.3333333333333" y="490.0" type="line" smooth="yes"/>
      <point x="281.8666666666667" y="528.4"/>
      <point x="310.93333333333334" y="554.0"/>
      <point x="348.53333333333336" y="554.0" type="curve" smooth="yes"/>
      <point x="385.1333333333333" y="554.0"/>
      <point x="406.2" y="528.4"/>
      <point x="400.6666666666667" y="490.0" type="curve"/>
      <point x="460.3333333333333" y="490.0" type="line"/>
      <point x="471.3333333333333" y="559.0"/>
      <point x="429.4" y="605.0"/>
      <point x="357.0" y="605.0" type="curve" smooth="yes"/>
      <point x="283.6" y="605.0"/>
      <point x="227.66666666666666" y="559.0"/>
      <point x="216.66666666666666" y="490.0" type="curve" smooth="yes"/>
      <point x="195.66666666666666" y="360.0" type="line" smooth="yes"/>
      <point x="184.66666666666666" y="291.0"/>
      <point x="226.6" y="245.0"/>
    </contour>
  </outline>
</glyph>
<glyph name="ordfeminine" format="2">
  <advance width="600.0"/>
  <unicode hex="00AA"/>
  <outline>
    <contour>
      <point x="403.6666666666667" y="455.0" type="line"/>
      <point x="446.6666666666667" y="455.0" type="line"/>
      <point x="477.6666666666667" y="650.0" type="line" smooth="yes"/>
      <point x="486.6666666666667" y="705.4666666666667"/>
      <point x="447.6666666666667" y="740.0"/>
      <point x="378.0" y="740.0" type="curve" smooth="yes"/>
      <point x="314.4" y="740.0"/>
      <point x="267.6" y="710.2"/>
      <point x="252.33333333333334" y="660.0" type="curve"/>
      <point x="298.3333333333333" y="660.0" type="line"/>
      <point x="306.1333333333333" y="685.6"/>
      <point x="336.2" y="702.6666666666666"/>
      <point x="372.26666666666665" y="702.6666666666666" type="curve" smooth="yes"/>
      <point x="413.6" y="702.6666666666666"/>
      <point x="436.93333333333334" y="682.3333333333334"/>
      <point x="431.6666666666667" y="650.0" type="curve" smooth="yes"/>
      <point x="409.6666666666667" y="510.0" type="line"/>
      <point x="412.6666666666667" y="510.0" type="line"/>
    </contour>
    <contour>
      <point x="301.0" y="450.0" type="curve" smooth="yes"/>
      <point x="348.06666666666666" y="450.0"/>
      <point x="389.93333333333334" y="473.26666666666665"/>
      <point x="409.6666666666667" y="510.0" type="curve"/>
      <point x="420.6666666666667" y="510.0" type="line"/>
      <point x="427.6666666666667" y="555.0" type="line"/>
      <point x="416.6666666666667" y="555.0" type="line"/>
      <point x="409.4" y="511.6666666666667"/>
      <point x="372.8" y="485.3333333333333"/>
      <point x="319.73333333333335" y="485.3333333333333" type="curve" smooth="yes"/>
      <point x="280.1333333333333" y="485.3333333333333"/>
      <point x="258.06666666666666" y="504.4"/>
      <point x="263.3333333333333" y="535.7333333333333" type="curve" smooth="yes"/>
      <point x="267.6" y="565.0666666666667"/>
      <point x="291.6666666666667" y="583.4"/>
      <point x="326.93333333333334" y="583.4" type="curve" smooth="yes"/>
      <point x="431.93333333333334" y="583.4" type="line"/>
      <point x="437.6666666666667" y="620.7333333333333" type="line"/>
      <point x="332.6666666666667" y="620.7333333333333" type="line" smooth="yes"/>
      <point x="269.8" y="620.7333333333333"/>
      <point x="225.33333333333334" y="587.4666666666667"/>
      <point x="217.33333333333334" y="535.7333333333333" type="curve" smooth="yes"/>
      <point x="209.06666666666666" y="483.73333333333335"/>
      <point x="241.53333333333333" y="450.0"/>
    </contour>
  </outline>
</glyph>
<glyph name="guillemetleft" format="2">
  <advance width="600.0"/>
  <unicode hex="00AB"/>
  <outline>
    <contour>
      <point x="433.93333333333334" y="40.0" type="line"/>
      <point x="523.7333333333333" y="40.0" type="line"/>
      <point x="358.6" y="277.53333333333336" type="line"/>
      <point x="605.6" y="520.0" type="line"/>
      <point x="508.4" y="520.0" type="line"/>
      <point x="267.53333333333336" y="280.0" type="line"/>
    </contour>
    <contour>
      <point x="201.73333333333332" y="40.0" type="line"/>
      <point x="291.53333333333336" y="40.0" type="line"/>
      <point x="126.4" y="277.53333333333336" type="line"/>
      <point x="373.4" y="520.0" type="line"/>
      <point x="276.2" y="520.0" type="line"/>
      <point x="35.333333333333336" y="280.0" type="line"/>
    </contour>
  </outline>
</glyph>
<glyph name="logicalnot" format="2">
  <advance width="600.0"/>
  <unicode hex="00AC"/>
  <outline>
    <contour>
      <point x="442.8666666666667" y="207.66666666666666" type="line"/>
      <point x="518.5333333333333" y="207.66666666666666" type="line"/>
      <point x="551.2" y="411.0" type="line"/>
      <point x="91.2" y="411.0" type="line"/>
      <point x="79.8" y="340.3333333333333" type="line"/>
      <point x="464.1333333333333" y="340.3333333333333" type="line"/>
    </contour>
  </outline>
</glyph>
<glyph name="registered" format="2">
  <advance width="600.0"/>
  <unicode hex="00AE"/>
  <outline>
    <contour>
      <point x="273.0" y="110.0" type="curve" smooth="yes"/>
      <point x="424.93333333333334" y="110.0"/>
      <point x="541.1333333333333" y="205.73333333333332"/>
      <point x="564.1333333333333" y="350.0" type="curve" smooth="yes"/>
      <point x="588.1333333333333" y="500.0" type="line" smooth="yes"/>
      <point x="611.1333333333333" y="644.2666666666667"/>
      <point x="524.9333333333333" y="740.0"/>
      <point x="373.0" y="740.0" type="curve" smooth="yes"/>
      <point x="221.06666666666666" y="740.0"/>
      <point x="104.86666666666666" y="644.2666666666667"/>
      <point x="81.86666666666666" y="500.0" type="curve" smooth="yes"/>
      <point x="57.86666666666667" y="350.0" type="line" smooth="yes"/>
      <point x="34.86666666666667" y="205.73333333333332"/>
      <point x="121.06666666666666" y="110.0"/>
    </contour>
    <contour>
      <point x="280.46666666666664" y="156.8" type="curve" smooth="yes"/>
      <point x="160.66666666666666" y="156.8"/>
      <point x="91.4" y="234.13333333333333"/>
      <point x="109.66666666666667" y="350.0" type="curve" smooth="yes"/>
      <point x="133.66666666666666" y="500.0" type="line" smooth="yes"/>
      <point x="151.93333333333334" y="615.8666666666667"/>
      <point x="245.73333333333332" y="693.2"/>
      <point x="365.53333333333336" y="693.2" type="curve" smooth="yes"/>
      <point x="486.06666666666666" y="693.2"/>
      <point x="554.6" y="615.8666666666667"/>
      <point x="536.3333333333334" y="500.0" type="curve" smooth="yes"/>
      <point x="512.3333333333334" y="350.0" type="line" smooth="yes"/>
      <point x="494.06666666666666" y="234.13333333333333"/>
      <point x="401.0" y="156.8"/>
    </contour>
    <contour>
      <point x="188.66666666666666" y="250.0" type="line"/>
      <point x="244.66666666666666" y="250.0" type="line"/>
      <point x="266.93333333333334" y="391.3333333333333" type="line"/>
      <point x="322.26666666666665" y="391.3333333333333" type="line"/>
      <point x="361.06666666666666" y="250.0" type="line"/>
      <point x="419.8" y="250.0" type="line"/>
      <point x="366.3333333333333" y="435.73333333333335" type="line"/>
      <point x="352.73333333333335" y="394.3333333333333" type="line"/>
      <point x="406.4" y="404.3333333333333"/>
      <point x="443.8666666666667" y="441.8666666666667"/>
      <point x="452.8666666666667" y="495.8" type="curve" smooth="yes"/>
      <point x="463.6" y="559.2666666666667"/>
      <point x="425.1333333333333" y="600.0"/>
      <point x="355.26666666666665" y="600.0" type="curve" smooth="yes"/>
      <point x="243.66666666666666" y="600.0" type="line"/>
    </contour>
    <contour>
      <point x="274.4" y="438.6666666666667" type="line"/>
      <point x="292.2" y="552.6666666666666" type="line"/>
      <point x="347.8" y="552.6666666666666" type="line" smooth="yes"/>
      <point x="384.1333333333333" y="552.6666666666666"/>
      <point x="403.46666666666664" y="531.0666666666667"/>
      <point x="397.46666666666664" y="495.53333333333336" type="curve" smooth="yes"/>
      <point x="392.2" y="460.0"/>
      <point x="366.3333333333333" y="438.6666666666667"/>
      <point x="330.0" y="438.6666666666667" type="curve" smooth="yes"/>
    </contour>
  </outline>
</glyph>
<glyph name="degree" format="2">
  <advance width="600.0"/>
  <unicode hex="00B0"/>
  <outline>
    <contour>
      <point x="327.0" y="450.0" type="curve" smooth="yes"/>
      <point x="416.2" y="450.0"/>
      <point x="484.6666666666667" y="508.0"/>
      <point x="498.6666666666667" y="595.0" type="curve" smooth="yes"/>
      <point x="512.6666666666666" y="682.0"/>
      <point x="462.2" y="740.0"/>
      <point x="373.0" y="740.0" type="curve" smooth="yes"/>
      <point x="283.8" y="740.0"/>
      <point x="215.33333333333334" y="682.2666666666667"/>
      <point x="201.33333333333334" y="595.0" type="curve" smooth="yes"/>
      <point x="187.33333333333334" y="508.0"/>
      <point x="237.8" y="450.0"/>
    </contour>
    <contour>
      <point x="334.0" y="498.06666666666666" type="curve" smooth="yes"/>
      <point x="279.1333333333333" y="498.06666666666666"/>
      <point x="248.06666666666666" y="537.1333333333333"/>
      <point x="257.3333333333333" y="595.0" type="curve" smooth="yes"/>
      <point x="266.6" y="653.8666666666667"/>
      <point x="309.93333333333334" y="692.9333333333333"/>
      <point x="364.8" y="692.9333333333333" type="curve" smooth="yes"/>
      <point x="421.1333333333333" y="692.9333333333333"/>
      <point x="451.93333333333334" y="653.8666666666667"/>
      <point x="442.6666666666667" y="595.0" type="curve" smooth="yes"/>
      <point x="433.4" y="537.1333333333333"/>
      <point x="390.3333333333333" y="498.06666666666666"/>
    </contour>
  </outline>
</glyph>
<glyph name="plusminus" format="2">
  <advance width="600.0"/>
  <unicode hex="00B1"/>
  <outline>
    <contour>
      <point x="26.0" y="0.0" type="line"/>
      <point x="486.0" y="0.0" type="line"/>
      <point x="495.93333333333334" y="63.333333333333336" type="line"/>
      <point x="304.06666666666666" y="63.333333333333336" type="line"/>
      <point x="341.93333333333334" y="300.3333333333333" type="line"/>
      <point x="537.4666666666667" y="300.3333333333333" type="line"/>
      <point x="548.1333333333333" y="371.0" type="line"/>
      <point x="352.6" y="371.0" type="line"/>
      <point x="384.1333333333333" y="570.0" type="line"/>
      <point x="306.53333333333336" y="570.0" type="line"/>
      <point x="275.0" y="371.0" type="line"/>
      <point x="80.8" y="371.0" type="line"/>
      <point x="70.13333333333334" y="300.3333333333333" type="line"/>
      <point x="264.3333333333333" y="300.3333333333333" type="line"/>
      <point x="226.46666666666667" y="63.333333333333336" type="line"/>
      <point x="35.93333333333333" y="63.333333333333336" type="line"/>
    </contour>
  </outline>
</glyph>
<glyph name="twosuperior" format="2">
  <advance width="600.0"/>
  <unicode hex="00B2"/>
  <outline>
    <contour>
      <point x="187.06666666666666" y="405.0" type="line"/>
      <point x="473.6666666666667" y="405.0" type="line"/>
      <point x="482.6" y="462.6" type="line"/>
      <point x="262.4" y="462.6" type="line"/>
      <point x="404.3333333333333" y="555.6666666666666" type="line" smooth="yes"/>
      <point x="461.73333333333335" y="593.8"/>
      <point x="500.8666666666667" y="650.2"/>
      <point x="509.1333333333333" y="699.6" type="curve" smooth="yes"/>
      <point x="522.1333333333333" y="785.8"/>
      <point x="475.6666666666667" y="840.0"/>
      <point x="387.0" y="840.0" type="curve" smooth="yes"/>
      <point x="301.26666666666665" y="840.0"/>
      <point x="236.33333333333334" y="784.2666666666667"/>
      <point x="219.66666666666666" y="696.5333333333333" type="curve"/>
      <point x="283.0" y="696.5333333333333" type="line"/>
      <point x="291.53333333333336" y="750.0"/>
      <point x="328.4" y="783.1333333333333"/>
      <point x="378.06666666666666" y="783.1333333333333" type="curve" smooth="yes"/>
      <point x="427.73333333333335" y="783.1333333333333"/>
      <point x="454.06666666666666" y="750.2666666666667"/>
      <point x="445.53333333333336" y="697.3333333333334" type="curve" smooth="yes"/>
      <point x="440.26666666666665" y="664.4"/>
      <point x="413.8" y="627.8666666666667"/>
      <point x="377.0" y="602.8666666666667" type="curve" smooth="yes"/>
      <point x="199.46666666666667" y="482.4" type="line"/>
    </contour>
  </outline>
</glyph>
<glyph name="threesuperior" format="2">
  <advance width="600.0"/>
  <unicode hex="00B3"/>
  <outline>
    <contour>
      <point x="303.0" y="395.0" type="curve" smooth="yes"/>
      <point x="392.1333333333333" y="395.0"/>
      <point x="456.3333333333333" y="448.73333333333335"/>
      <point x="470.06666666666666" y="533.6666666666666" type="curve" smooth="yes"/>
      <point x="483.06666666666666" y="615.6666666666666"/>
      <point x="435.6" y="667.9333333333333"/>
      <point x="348.6666666666667" y="667.9333333333333" type="curve"/>
      <point x="345.2" y="641.9333333333333" type="line"/>
      <point x="478.93333333333334" y="762.5333333333333" type="line"/>
      <point x="490.3333333333333" y="830.7333333333333" type="line"/>
      <point x="255.4" y="830.7333333333333" type="line"/>
      <point x="245.73333333333332" y="773.1333333333333" type="line"/>
      <point x="424.6666666666667" y="773.1333333333333" type="line"/>
      <point x="318.0" y="676.6666666666666" type="line"/>
      <point x="308.53333333333336" y="615.2666666666667" type="line"/>
      <point x="338.26666666666665" y="615.2666666666667" type="line" smooth="yes"/>
      <point x="386.93333333333334" y="615.2666666666667"/>
      <point x="412.8" y="583.8666666666667"/>
      <point x="405.26666666666665" y="533.6666666666666" type="curve" smooth="yes"/>
      <point x="397.0" y="483.73333333333335"/>
      <point x="361.3333333333333" y="451.8666666666667"/>
      <point x="311.93333333333334" y="451.8666666666667" type="curve" smooth="yes"/>
      <point x="260.53333333333336" y="451.8666666666667"/>
      <point x="233.2" y="483.73333333333335"/>
      <point x="241.46666666666667" y="533.6666666666666" type="curve"/>
      <point x="178.86666666666667" y="533.6666666666666" type="line"/>
      <point x="165.13333333333333" y="448.73333333333335"/>
      <point x="213.6" y="395.0"/>
    </contour>
  </outline>
</glyph>
<glyph name="paragraph" format="2">
  <advance width="600.0"/>
  <unicode hex="00B6"/>
  <outline>
    <contour>
      <point x="186.0" y="-180.0" type="line"/>
      <point x="258.0" y="-180.0" type="line"/>
      <point x="403.0" y="730.0" type="line"/>
      <point x="331.0" y="730.0" type="line" smooth="yes"/>
      <point x="220.2" y="730.0"/>
      <point x="135.6" y="664.1333333333333"/>
      <point x="120.13333333333333" y="565.3333333333334" type="curve" smooth="yes"/>
      <point x="105.53333333333333" y="474.6666666666667" type="line" smooth="yes"/>
      <point x="90.06666666666666" y="375.8666666666667"/>
      <point x="153.2" y="310.0"/>
      <point x="264.0" y="310.0" type="curve"/>
    </contour>
    <contour>
      <point x="356.0" y="-180.0" type="line"/>
      <point x="428.0" y="-180.0" type="line"/>
      <point x="573.0" y="730.0" type="line"/>
      <point x="501.0" y="730.0" type="line"/>
    </contour>
  </outline>
</glyph>
<glyph name="onesuperior" format="2">
  <advance width="600.0"/>
  <unicode hex="00B9"/>
  <outline>
    <contour>
      <point x="179.0" y="405.0" type="line"/>
      <point x="477.3333333333333" y="405.0" type="line"/>
      <point x="486.26666666666665" y="462.6" type="line"/>
      <point x="381.73333333333335" y="462.6" type="line"/>
      <point x="439.8" y="830.0" type="line"/>
      <point x="352.26666666666665" y="830.0" type="line"/>
      <point x="243.46666666666667" y="756.8666666666667" type="line"/>
      <point x="232.53333333333333" y="685.3333333333334" type="line"/>
      <point x="367.8" y="774.4666666666667" type="line"/>
      <point x="318.4" y="462.6" type="line"/>
      <point x="187.93333333333334" y="462.6" type="line"/>
    </contour>
  </outline>
</glyph>
<glyph name="ordmasculine" format="2">
  <advance width="600.0"/>
  <unicode hex="00BA"/>
  <outline>
    <contour>
      <point x="326.0" y="445.0" type="curve" smooth="yes"/>
      <point x="393.93333333333334" y="445.0"/>
      <point x="446.1333333333333" y="485.93333333333334"/>
      <point x="456.1333333333333" y="547.3333333333334" type="curve" smooth="yes"/>
      <point x="469.93333333333334" y="634.0" type="line" smooth="yes"/>
      <point x="479.6666666666667" y="695.4"/>
      <point x="440.2" y="736.3333333333334"/>
      <point x="372.26666666666665" y="736.3333333333334" type="curve" smooth="yes"/>
      <point x="304.3333333333333" y="736.3333333333334"/>
      <point x="252.86666666666667" y="695.4"/>
      <point x="243.13333333333333" y="634.0" type="curve" smooth="yes"/>
      <point x="229.33333333333334" y="547.3333333333334" type="line" smooth="yes"/>
      <point x="219.33333333333334" y="485.93333333333334"/>
      <point x="258.06666666666666" y="445.0"/>
    </contour>
    <contour>
      <point x="332.46666666666664" y="482.3333333333333" type="curve" smooth="yes"/>
      <point x="291.8666666666667" y="482.3333333333333"/>
      <point x="268.8" y="508.3333333333333"/>
      <point x="275.06666666666666" y="547.3333333333334" type="curve" smooth="yes"/>
      <point x="288.8666666666667" y="634.0" type="line" smooth="yes"/>
      <point x="294.8666666666667" y="673.0"/>
      <point x="325.93333333333334" y="699.0"/>
      <point x="366.53333333333336" y="699.0" type="curve" smooth="yes"/>
      <point x="407.1333333333333" y="699.0"/>
      <point x="430.2" y="673.0"/>
      <point x="424.2" y="634.0" type="curve" smooth="yes"/>
      <point x="410.4" y="547.3333333333334" type="line" smooth="yes"/>
      <point x="404.1333333333333" y="508.3333333333333"/>
      <point x="373.06666666666666" y="482.3333333333333"/>
    </contour>
  </outline>
</glyph>
<glyph name="guillemetright" format="2">
  <advance width="600.0"/>
  <unicode hex="00BB"/>
  <outline>
    <contour>
      <point x="227.33333333333334" y="40.0" type="line"/>
      <point x="323.8" y="40.0" type="line"/>
      <point x="564.6666666666666" y="280.0" type="line"/>
      <point x="398.26666666666665" y="520.0" type="line"/>
      <point x="308.46666666666664" y="520.0" type="line"/>
      <point x="472.6" y="285.46666666666664" type="line"/>
    </contour>
    <contour>
      <point x="-4.866666666666667" y="40.0" type="line"/>
      <point x="91.6" y="40.0" type="line"/>
      <point x="332.46666666666664" y="280.0" type="line"/>
      <point x="166.06666666666666" y="520.0" type="line"/>
      <point x="76.26666666666667" y="520.0" type="line"/>
      <point x="240.4" y="285.46666666666664" type="line"/>
    </contour>
  </outline>
</glyph>
<glyph name="onequarter" format="2">
  <advance width="600.0"/>
  <unicode hex="00BC"/>
  <outline>
    <contour>
      <point x="50.0" y="405.0" type="line"/>
      <point x="325.0" y="405.0" type="line"/>
      <point x="332.46666666666664" y="452.3333333333333" type="line"/>
      <point x="231.73333333333332" y="452.3333333333333" type="line"/>
      <point x="276.26666666666665" y="730.0" type="line"/>
      <point x="195.26666666666668" y="730.0" type="line"/>
      <point x="115.0" y="669.0" type="line"/>
      <point x="104.53333333333333" y="603.0" type="line"/>
      <point x="175.06666666666666" y="657.0" type="line" smooth="yes"/>
      <point x="192.06666666666666" y="670.0"/>
      <point x="206.8" y="685.2"/>
      <point x="213.8" y="693.4" type="curve"/>
      <point x="175.73333333333332" y="452.3333333333333" type="line"/>
      <point x="57.46666666666667" y="452.3333333333333" type="line"/>
    </contour>
    <contour>
      <point x="438.6666666666667" y="0.0" type="line"/>
      <point x="494.6666666666667" y="0.0" type="line"/>
      <point x="527.9333333333333" y="210.86666666666667" type="line"/>
      <point x="471.93333333333334" y="210.86666666666667" type="line"/>
      <point x="457.1333333333333" y="117.33333333333333" type="line"/>
      <point x="336.8" y="117.33333333333333" type="line"/>
      <point x="339.8" y="133.33333333333334" type="line"/>
      <point x="504.8666666666667" y="325.0" type="line"/>
      <point x="440.93333333333334" y="325.0" type="line"/>
      <point x="285.8" y="147.33333333333334" type="line"/>
      <point x="273.3333333333333" y="70.0" type="line"/>
      <point x="449.6666666666667" y="70.0" type="line"/>
    </contour>
    <component base="fraction" yxScale="0.04223466666666666" xOffset="-11.733333333333333"/>
  </outline>
</glyph>
<glyph name="onehalf" format="2">
  <advance width="600.0"/>
  <unicode hex="00BD"/>
  <outline>
    <contour>
      <point x="275.0" y="0.0" type="line"/>
      <point x="526.0" y="0.0" type="line"/>
      <point x="533.4666666666667" y="47.333333333333336" type="line"/>
      <point x="420.73333333333335" y="47.333333333333336" type="line" smooth="yes"/>
      <point x="397.06666666666666" y="47.333333333333336"/>
      <point x="365.8666666666667" y="43.666666666666664"/>
      <point x="349.53333333333336" y="41.46666666666667" type="curve"/>
      <point x="350.53333333333336" y="49.86666666666667" type="line"/>
      <point x="447.0" y="100.8" type="line" smooth="yes"/>
      <point x="509.4" y="134.2"/>
      <point x="547.6666666666666" y="177.0"/>
      <point x="554.9333333333333" y="220.4" type="curve" smooth="yes"/>
      <point x="564.6666666666666" y="285.53333333333336"/>
      <point x="523.0" y="330.0"/>
      <point x="450.1333333333333" y="330.0" type="curve" smooth="yes"/>
      <point x="378.4" y="330.0"/>
      <point x="322.2" y="284.73333333333335"/>
      <point x="309.0" y="216.0" type="curve"/>
      <point x="365.0" y="216.0" type="line"/>
      <point x="371.26666666666665" y="256.3333333333333"/>
      <point x="402.3333333333333" y="282.6666666666667"/>
      <point x="442.6666666666667" y="282.6666666666667" type="curve" smooth="yes"/>
      <point x="482.2" y="282.6666666666667"/>
      <point x="504.2" y="257.4"/>
      <point x="497.93333333333334" y="218.13333333333333" type="curve" smooth="yes"/>
      <point x="493.6666666666667" y="187.26666666666668"/>
      <point x="466.2" y="159.46666666666667"/>
      <point x="414.4" y="131.13333333333333" type="curve" smooth="yes"/>
      <point x="284.46666666666664" y="60.53333333333333" type="line"/>
    </contour>
    <contour>
      <point x="52.13333333333333" y="405.0" type="line"/>
      <point x="337.1333333333333" y="405.0" type="line"/>
      <point x="344.6" y="452.3333333333333" type="line"/>
      <point x="233.86666666666667" y="452.3333333333333" type="line"/>
      <point x="278.4" y="730.0" type="line"/>
      <point x="197.4" y="730.0" type="line"/>
      <point x="117.13333333333334" y="669.0" type="line"/>
      <point x="106.66666666666667" y="603.0" type="line"/>
      <point x="177.2" y="657.0" type="line" smooth="yes"/>
      <point x="194.2" y="670.0"/>
      <point x="208.93333333333334" y="685.2"/>
      <point x="215.93333333333334" y="693.4" type="curve"/>
      <point x="177.86666666666667" y="452.3333333333333" type="line"/>
      <point x="59.6" y="452.3333333333333" type="line"/>
    </contour>
    <component base="fraction" yxScale="0.04223466666666666" xOffset="-11.733333333333333"/>
  </outline>
</glyph>
<glyph name="threequarters" format="2">
  <advance width="600.0"/>
  <unicode hex="00BE"/>
  <outline>
    <contour>
      <point x="438.6666666666667" y="0.0" type="line"/>
      <point x="494.6666666666667" y="0.0" type="line"/>
      <point x="527.9333333333333" y="210.86666666666667" type="line"/>
      <point x="471.93333333333334" y="210.86666666666667" type="line"/>
      <point x="457.1333333333333" y="117.33333333333333" type="line"/>
      <point x="336.8" y="117.33333333333333" type="line"/>
      <point x="339.8" y="133.33333333333334" type="line"/>
      <point x="504.8666666666667" y="325.0" type="line"/>
      <point x="440.93333333333334" y="325.0" type="line"/>
      <point x="285.8" y="147.33333333333334" type="line"/>
      <point x="273.3333333333333" y="70.0" type="line"/>
      <point x="449.6666666666667" y="70.0" type="line"/>
    </contour>
    <contour>
      <point x="173.0" y="400.0" type="curve" smooth="yes"/>
      <point x="247.4" y="400.0"/>
      <point x="304.06666666666666" y="442.53333333333336"/>
      <point x="314.3333333333333" y="506.3333333333333" type="curve" smooth="yes"/>
      <point x="324.06666666666666" y="568.2666666666667"/>
      <point x="281.3333333333333" y="609.7333333333333"/>
      <point x="209.93333333333334" y="609.7333333333333" type="curve"/>
      <point x="207.46666666666667" y="593.8666666666667" type="line"/>
      <point x="326.1333333333333" y="677.6666666666666" type="line"/>
      <point x="334.8666666666667" y="730.0" type="line"/>
      <point x="123.86666666666666" y="730.0" type="line"/>
      <point x="116.13333333333334" y="682.6666666666666" type="line"/>
      <point x="272.1333333333333" y="682.6666666666666" type="line"/>
      <point x="179.0" y="617.2666666666667" type="line"/>
      <point x="170.53333333333333" y="564.0" type="line"/>
      <point x="200.53333333333333" y="564.0" type="line" smooth="yes"/>
      <point x="240.33333333333334" y="564.0"/>
      <point x="263.6" y="540.9333333333333"/>
      <point x="258.3333333333333" y="506.3333333333333" type="curve" smooth="yes"/>
      <point x="252.8" y="470.93333333333334"/>
      <point x="221.53333333333333" y="447.3333333333333"/>
      <point x="180.73333333333332" y="447.3333333333333" type="curve" smooth="yes"/>
      <point x="138.93333333333334" y="447.3333333333333"/>
      <point x="115.4" y="470.4"/>
      <point x="120.66666666666667" y="505.0" type="curve"/>
      <point x="64.66666666666667" y="505.0" type="line"/>
      <point x="54.666666666666664" y="442.0"/>
      <point x="97.6" y="400.0"/>
    </contour>
    <component base="fraction" yxScale="0.04223466666666666" xOffset="-11.733333333333333"/>
  </outline>
</glyph>
<glyph name="questiondown" format="2">
  <advance width="600.0"/>
  <unicode hex="00BF"/>
  <outline>
    <contour>
      <point x="261.0" y="-169.73333333333332" type="curve" smooth="yes"/>
      <point x="384.6666666666667" y="-169.73333333333332" type="line"/>
      <point x="396.8" y="-95.4" type="line"/>
      <point x="273.1333333333333" y="-95.4" type="line" smooth="yes"/>
      <point x="183.46666666666667" y="-95.4"/>
      <point x="135.33333333333334" y="-46.0"/>
      <point x="148.13333333333333" y="36.266666666666666" type="curve" smooth="yes"/>
      <point x="161.66666666666666" y="118.53333333333333"/>
      <point x="224.6" y="167.93333333333334"/>
      <point x="313.53333333333336" y="167.93333333333334" type="curve" smooth="yes"/>
      <point x="363.53333333333336" y="167.93333333333334" type="line"/>
      <point x="392.0" y="345.0" type="line"/>
      <point x="312.6666666666667" y="345.0" type="line"/>
      <point x="294.8666666666667" y="234.93333333333334" type="line"/>
      <point x="177.13333333333333" y="230.53333333333333"/>
      <point x="87.06666666666666" y="152.4"/>
      <point x="68.8" y="36.266666666666666" type="curve" smooth="yes"/>
      <point x="49.06666666666667" y="-90.6"/>
      <point x="123.0" y="-169.73333333333332"/>
    </contour>
    <contour>
      <point x="360.26666666666665" y="437.93333333333334" type="curve" smooth="yes"/>
      <point x="376.26666666666665" y="437.93333333333334" type="line" smooth="yes"/>
      <point x="413.6666666666667" y="437.93333333333334"/>
      <point x="442.3333333333333" y="462.1333333333333"/>
      <point x="448.06666666666666" y="498.06666666666666" type="curve" smooth="yes"/>
      <point x="453.3333333333333" y="533.2666666666667"/>
      <point x="432.1333333333333" y="555.2666666666667"/>
      <point x="394.73333333333335" y="555.2666666666667" type="curve" smooth="yes"/>
      <point x="378.73333333333335" y="555.2666666666667" type="line" smooth="yes"/>
      <point x="341.3333333333333" y="555.2666666666667"/>
      <point x="312.6666666666667" y="532.5333333333333"/>
      <point x="307.4" y="497.3333333333333" type="curve" smooth="yes"/>
      <point x="301.6666666666667" y="462.1333333333333"/>
      <point x="322.8666666666667" y="437.93333333333334"/>
    </contour>
  </outline>
</glyph>
<glyph name="AE" format="2">
  <advance width="600.0"/>
  <unicode hex="00C6"/>
  <anchor x="256.0" y="0.0" name="bottom"/>
  <anchor x="372.0" y="730.0" name="top"/>
  <outline>
    <contour>
      <point x="-12.933333333333334" y="0.0" type="line"/>
      <point x="67.13333333333333" y="0.0" type="line"/>
      <point x="143.93333333333334" y="206.2" type="line"/>
      <point x="292.6666666666667" y="206.2" type="line"/>
      <point x="260.1333333333333" y="0.0" type="line"/>
      <point x="525.7333333333333" y="0.0" type="line"/>
      <point x="537.1333333333333" y="72.13333333333333" type="line"/>
      <point x="347.93333333333334" y="72.13333333333333" type="line"/>
      <point x="391.3333333333333" y="343.06666666666666" type="line"/>
      <point x="552.6" y="343.06666666666666" type="line"/>
      <point x="564.0" y="415.2" type="line"/>
      <point x="402.73333333333335" y="415.2" type="line"/>
      <point x="440.8666666666667" y="657.8666666666667" type="line"/>
      <point x="630.0666666666667" y="657.8666666666667" type="line"/>
      <point x="641.7333333333333" y="730.0" type="line"/>
      <point x="259.53333333333336" y="730.0" type="line"/>
    </contour>
    <contour>
      <point x="168.33333333333334" y="273.2" type="line"/>
      <point x="309.8" y="657.8666666666667" type="line"/>
      <point x="364.46666666666664" y="657.8666666666667" type="line"/>
      <point x="303.3333333333333" y="273.2" type="line"/>
    </contour>
  </outline>
</glyph>
<glyph name="Ccedilla" format="2">
  <advance width="600.0"/>
  <unicode hex="00C7"/>
  <anchor x="261.0" y="0.0" name="bottom"/>
  <anchor x="377.0" y="730.0" name="top"/>
  <outline>
    <contour>
      <point x="142.26666666666665" y="-200.86666666666667" type="line"/>
      <point x="225.93333333333334" y="-200.86666666666667" type="line" smooth="yes"/>
      <point x="294.73333333333335" y="-200.86666666666667"/>
      <point x="346.3333333333333" y="-164.66666666666666"/>
      <point x="353.3333333333333" y="-119.46666666666667" type="curve" smooth="yes"/>
      <point x="361.6" y="-66.13333333333334"/>
      <point x="299.6666666666667" y="-39.93333333333333"/>
      <point x="249.0" y="-34.733333333333334" type="curve"/>
      <point x="280.53333333333336" y="26.0" type="line"/>
      <point x="227.53333333333333" y="26.0" type="line"/>
      <point x="177.8" y="-67.66666666666667" type="line"/>
      <point x="245.86666666666667" y="-67.66666666666667"/>
      <point x="283.0" y="-88.2"/>
      <point x="278.73333333333335" y="-113.6" type="curve" smooth="yes"/>
      <point x="275.73333333333335" y="-132.66666666666666"/>
      <point x="252.93333333333334" y="-151.2"/>
      <point x="223.13333333333333" y="-151.2" type="curve" smooth="yes"/>
      <point x="150.46666666666667" y="-151.2" type="line"/>
    </contour>
    <component base="C"/>
  </outline>
</glyph>
<glyph name="multiply" format="2">
  <advance width="600.0"/>
  <unicode hex="00D7"/>
  <outline>
    <contour>
      <point x="132.86666666666667" y="136.86666666666667" type="line"/>
      <point x="301.06666666666666" y="282.26666666666665" type="line"/>
      <point x="421.46666666666664" y="138.6" type="line"/>
      <point x="474.6666666666667" y="184.33333333333334" type="line"/>
      <point x="353.53333333333336" y="327.26666666666665" type="line"/>
      <point x="524.4" y="475.1333333333333" type="line"/>
      <point x="482.8666666666667" y="524.6" type="line"/>
      <point x="312.0" y="376.73333333333335" type="line"/>
      <point x="191.6" y="519.6666666666666" type="line"/>
      <point x="139.13333333333333" y="474.6666666666667" type="line"/>
      <point x="258.8" y="331.0" type="line"/>
      <point x="91.33333333333333" y="186.33333333333334" type="line"/>
    </contour>
  </outline>
</glyph>
<glyph name="Oslash" format="2">
  <advance width="600.0"/>
  <unicode hex="00D8"/>
  <anchor x="256.0" y="0.0" name="bottom"/>
  <anchor x="392.0" y="730.0" name="horn"/>
  <anchor x="372.0" y="730.0" name="top"/>
  <outline>
    <contour>
      <point x="-11.0" y="-40.0" type="line"/>
      <point x="65.4" y="-40.0" type="line"/>
      <point x="636.0" y="750.0" type="line"/>
      <point x="559.6" y="750.0" type="line"/>
    </contour>
    <contour>
      <point x="254.0" y="-10.0" type="curve" smooth="yes"/>
      <point x="381.8" y="-10.0"/>
      <point x="474.2" y="68.73333333333333"/>
      <point x="494.93333333333334" y="197.33333333333334" type="curve" smooth="yes"/>
      <point x="548.0" y="533.4" type="line" smooth="yes"/>
      <point x="567.7333333333333" y="661.0"/>
      <point x="500.53333333333336" y="740.0"/>
      <point x="373.0" y="740.0" type="curve" smooth="yes"/>
      <point x="245.46666666666667" y="740.0"/>
      <point x="153.53333333333333" y="661.0"/>
      <point x="133.06666666666666" y="532.6666666666666" type="curve" smooth="yes"/>
      <point x="80.0" y="197.33333333333334" type="line" smooth="yes"/>
      <point x="59.266666666666666" y="68.73333333333333"/>
      <point x="126.46666666666667" y="-10.0"/>
    </contour>
    <contour>
      <point x="265.4" y="61.13333333333333" type="curve" smooth="yes"/>
      <point x="183.66666666666666" y="61.13333333333333"/>
      <point x="145.53333333333333" y="110.06666666666666"/>
      <point x="159.33333333333334" y="197.33333333333334" type="curve" smooth="yes"/>
      <point x="212.4" y="532.6666666666666" type="line" smooth="yes"/>
      <point x="226.2" y="619.6666666666666"/>
      <point x="280.1333333333333" y="668.8666666666667"/>
      <point x="361.6" y="668.8666666666667" type="curve" smooth="yes"/>
      <point x="443.06666666666666" y="668.8666666666667"/>
      <point x="482.46666666666664" y="619.6666666666666"/>
      <point x="468.6666666666667" y="532.6666666666666" type="curve" smooth="yes"/>
      <point x="415.6" y="197.33333333333334" type="line" smooth="yes"/>
      <point x="401.8" y="110.06666666666666"/>
      <point x="347.1333333333333" y="61.13333333333333"/>
    </contour>
  </outline>
</glyph>
<glyph name="Thorn" format="2">
  <advance width="600.0"/>
  <unicode hex="00DE"/>
  <outline>
    <contour>
      <point x="50.0" y="0.0" type="line"/>
      <point x="129.33333333333334" y="0.0" type="line"/>
      <point x="158.86666666666667" y="184.0" type="line"/>
      <point x="318.53333333333336" y="184.0" type="line" smooth="yes"/>
      <point x="447.6" y="184.0"/>
      <point x="541.9333333333333" y="260.1333333333333"/>
      <point x="560.6666666666666" y="380.0" type="curve" smooth="yes"/>
      <point x="579.4" y="498.4"/>
      <point x="508.53333333333336" y="576.0"/>
      <point x="380.2" y="576.0" type="curve" smooth="yes"/>
      <point x="220.53333333333333" y="576.0" type="line"/>
      <point x="245.33333333333334" y="730.0" type="line"/>
      <point x="166.0" y="730.0" type="line"/>
    </contour>
    <contour>
      <point x="169.53333333333333" y="254.93333333333334" type="line"/>
      <point x="209.13333333333333" y="505.3333333333333" type="line"/>
      <point x="368.8" y="505.3333333333333" type="line" smooth="yes"/>
      <point x="448.8" y="505.3333333333333"/>
      <point x="491.6666666666667" y="457.46666666666664"/>
      <point x="479.1333333333333" y="380.0" type="curve" smooth="yes"/>
      <point x="466.8666666666667" y="302.8"/>
      <point x="409.93333333333334" y="254.93333333333334"/>
      <point x="329.2" y="254.93333333333334" type="curve" smooth="yes"/>
    </contour>
  </outline>
</glyph>
<glyph name="germandbls" format="2">
  <advance width="600.0"/>
  <unicode hex="00DF"/>
  <outline>
    <contour>
      <point x="-132.0" y="-180.0" type="line"/>
      <point x="-57.666666666666664" y="-180.0" type="line" smooth="yes"/>
      <point x="43.13333333333333" y="-180.0"/>
      <point x="112.6" y="-122.73333333333333"/>
      <point x="127.53333333333333" y="-29.333333333333336" type="curve" smooth="yes"/>
      <point x="217.4" y="536.4" type="line" smooth="yes"/>
      <point x="230.2" y="617.4"/>
      <point x="287.4" y="667.8666666666667"/>
      <point x="365.1333333333333" y="667.8666666666667" type="curve" smooth="yes"/>
      <point x="443.2" y="667.8666666666667"/>
      <point x="483.53333333333336" y="619.4"/>
      <point x="470.73333333333335" y="538.4" type="curve" smooth="yes"/>
      <point x="458.93333333333334" y="462.8666666666667"/>
      <point x="402.0" y="408.73333333333335"/>
      <point x="324.0" y="408.73333333333335" type="curve" smooth="yes"/>
      <point x="282.53333333333336" y="408.73333333333335" type="line"/>
      <point x="271.8666666666667" y="339.53333333333336" type="line"/>
      <point x="314.8" y="339.53333333333336" type="line" smooth="yes"/>
      <point x="402.2" y="339.53333333333336"/>
      <point x="445.26666666666665" y="290.4"/>
      <point x="431.73333333333335" y="208.06666666666666" type="curve" smooth="yes"/>
      <point x="418.6666666666667" y="125.46666666666667"/>
      <point x="359.06666666666666" y="72.13333333333333"/>
      <point x="272.4" y="72.13333333333333" type="curve" smooth="yes"/>
      <point x="214.8" y="72.13333333333333" type="line"/>
      <point x="203.4" y="0.0" type="line"/>
      <point x="268.3333333333333" y="0.0" type="line" smooth="yes"/>
      <point x="398.1333333333333" y="0.0"/>
      <point x="495.73333333333335" y="84.4"/>
      <point x="515.0" y="208.0" type="curve" smooth="yes"/>
      <point x="532.7333333333333" y="322.06666666666666"/>
      <point x="471.3333333333333" y="394.6666666666667"/>
      <point x="358.2" y="393.2" type="curve"/>
      <point x="356.46666666666664" y="379.53333333333336" type="line"/>
      <point x="459.26666666666665" y="378.06666666666666"/>
      <point x="539.2" y="450.6"/>
      <point x="555.4666666666667" y="552.9333333333333" type="curve" smooth="yes"/>
      <point x="574.2" y="671.8666666666667"/>
      <point x="502.93333333333334" y="740.0"/>
      <point x="376.53333333333336" y="740.0" type="curve" smooth="yes"/>
      <point x="251.46666666666667" y="740.0"/>
      <point x="157.8" y="658.8"/>
      <point x="138.06666666666666" y="536.4" type="curve" smooth="yes"/>
      <point x="48.2" y="-29.333333333333336" type="line" smooth="yes"/>
      <point x="40.2" y="-81.8"/>
      <point x="9.4" y="-107.86666666666667"/>
      <point x="-45.266666666666666" y="-107.86666666666667" type="curve" smooth="yes"/>
      <point x="-120.33333333333333" y="-107.86666666666667" type="line"/>
    </contour>
  </outline>
</glyph>
